<?xml version="1.0"?>
<svg xmlns:rdf="http://www.w3.org/1999/02/22-rdf-syntax-ns#" xmlns="http://www.w3.org/2000/svg" xmlns:cc="http://creativecommons.org/ns#" xmlns:dc="http://purl.org/dc/elements/1.1/" xmlns:svg="http://www.w3.org/2000/svg" id="svg2" viewBox="0 0 208.89 517.94" version="1.0">
  <path id="path2311" d="m106.75 517.21c-0.27-0.43-0.59-1.22-0.71-1.76-0.22-0.91-0.32-0.96-1.51-0.76-3.2 0.56-3.31 0.53-3.5-1.18l-0.17-1.54-4.64-0.45c-2.55-0.24-6.27-0.49-8.266-0.54-1.997-0.05-3.844-0.23-4.106-0.39-0.641-0.4-10.999-0.49-11.759-0.1-0.967 0.48-0.705 0.94 0.945 1.65 1.119 0.48 1.546 0.86 1.546 1.37 0 1.03-0.865 1.21-2.872 0.59-1.36-0.41-2.642-0.49-5.581-0.34-2.742 0.14-3.886 0.08-4.066-0.22-0.623-1 1.515-1.73 5.534-1.87 1.556-0.05 2.242-0.44 1.542-0.87-0.618-0.38-9.48-0.71-11.561-0.43-1.832 0.25-6.15-0.38-6.904-1.01-0.244-0.2-0.49-0.93-0.548-1.63-0.097-1.16-0.197-1.27-1.294-1.37-0.995-0.1-1.338 0.07-2.104 1.01l-0.914 1.12-2.362-0.4c-1.299-0.22-3.733-0.47-5.408-0.56-2.5-0.14-3.27-0.06-4.294 0.46-1.037 0.52-1.625 0.58-3.488 0.35-6.576-0.81-11.113-1.06-13.155-0.72-2.444 0.41-11.322 0.53-14.766 0.2l-2.339-0.23 1.995-1.29 1.9949-1.28 5.1526-0.29c6.1955-0.36 15.524-0.4 23.014-0.11 4.911 0.19 5.651 0.15 6.938-0.43 1.658-0.73 2.628-0.78 5.412-0.27 3.428 0.64 3.502 0.56 3.787-3.62 0.176-2.58 0.414-3.83 0.835-4.39 0.324-0.42 0.78-1.43 1.014-2.24 0.563-1.95 4.136-7.17 5.449-7.97 0.696-0.43 1.22-1.16 1.582-2.22 0.298-0.88 1.068-2.21 1.711-2.96 0.754-0.88 1.513-2.42 2.133-4.33 1.081-3.32 2.12-4.83 3.071-4.46 0.53 0.2 0.582 0.53 0.401 2.54-0.115 1.28-0.345 4.91-0.511 8.08-0.251 4.8-0.406 5.88-0.922 6.45-0.979 1.08-1.283 0.32-1.052-2.65 0.435-5.61 0.444-5.44-0.295-5.44-0.498 0-0.843 0.45-1.308 1.72-0.348 0.94-1.087 2.28-1.643 2.98-0.555 0.7-1.01 1.5-1.01 1.77 0 0.54 2.909 2.63 3.657 2.63 0.246 0 0.683 0.46 0.971 1.02 0.615 1.18 0.666 1.73 0.162 1.73-0.497 0-4.124-2.5-4.929-3.39-0.688-0.77-1.737-0.97-2.09-0.39-0.115 0.18 0.339 0.88 1.01 1.55 0.67 0.67 1.219 1.36 1.219 1.53s1.193 1.17 2.651 2.22c3.611 2.61 5.454 2.62 4.519 0.04-0.363-1.01-0.347-1.29 0.102-1.81 0.292-0.33 0.71-1.14 0.928-1.79s0.605-1.42 0.86-1.72c0.255-0.29 0.807-1.91 1.228-3.58 0.64-2.55 0.703-3.29 0.39-4.53-0.205-0.82-0.373-2.1-0.373-2.84 0-0.98-0.194-1.48-0.701-1.82-0.531-0.36-0.76-1.02-0.945-2.71-0.232-2.13-0.288-2.23-1.219-2.34-0.945-0.11-0.971-0.16-0.814-1.72 0.163-1.6 2.278-7.62 4.329-12.32 0.593-1.36 1.232-3.28 1.42-4.27 0.346-1.83 1.125-3.39 1.688-3.39 0.17 0 0.646 0.55 1.058 1.21 0.547 0.89 0.92 1.16 1.373 1.02 0.765-0.24 1.142 0.29 0.852 1.21-0.177 0.55-0.341 0.61-0.887 0.32-0.554-0.29-0.72-0.22-0.966 0.43-0.347 0.92 0.1 1.99 0.827 1.99 0.273 0 0.749 0.39 1.058 0.86 0.603 0.92 1.971 1.16 2.43 0.43 0.373-0.59 0.413-5.4 0.053-6.39-0.238-0.66-0.471-0.78-1.232-0.63-0.731 0.14-1.102-0.02-1.68-0.74-0.685-0.84-0.824-0.88-1.838-0.5l-1.096 0.41 0.155-1.27c0.216-1.77 1.972-8.05 2.396-8.57 0.192-0.24 0.546-0.43 0.786-0.43 0.553 0 1.593 2.55 1.325 3.25-0.544 1.42 0.654 2.58 3.533 3.43 0.408 0.12 0.828 0.44 0.934 0.72 0.11 0.29 0.636 0.5 1.226 0.5 0.723 0 1.202 0.26 1.596 0.86 0.638 0.97 1.421 1.09 2.393 0.35 0.367-0.27 0.913-0.51 1.215-0.51 0.855-0.02 1.572-1.08 1.817-2.69 0.271-1.78-0.21-2.82-1.31-2.82-0.896 0-1.227 0.57-1.227 2.11 0 0.6-0.144 0.93-0.343 0.81-0.189-0.12-0.344-0.75-0.344-1.42 0-1.93-0.521-2.59-1.86-2.34-0.856 0.16-1.187 0.08-1.344-0.33-0.115-0.3-0.538-0.55-0.939-0.55s-1.122-0.3-1.603-0.68c-0.48-0.38-1.161-0.69-1.514-0.69-0.352 0-0.64-0.14-0.64-0.3 0-0.17-0.541-0.57-1.203-0.88-1.396-0.66-1.439-0.94-0.515-3.29 0.882-2.23 0.867-3.65-0.053-5.15-0.574-0.94-0.854-2.33-1.27-6.35-0.74-7.15-0.712-8.6 0.207-10.71 1.005-2.32 0.975-4.16-0.133-8.27-1.266-4.69-1.326-5.41-0.619-7.49 0.577-1.7 0.582-1.91 0.067-3.14-0.304-0.72-0.636-2.03-0.739-2.91-0.114-0.98-1.028-3.3-2.368-6.01-3.16-6.39-6.331-12.74-7.347-14.72-0.485-0.94-1.429-2.79-2.098-4.12-0.668-1.32-2.218-4.09-3.443-6.16-1.225-2.06-2.57-4.63-2.987-5.69-0.418-1.07-1.322-2.82-2.011-3.89-0.688-1.08-1.251-2.06-1.251-2.18s-0.53-1.32-1.178-2.66c-2.304-4.76-3.975-8.69-3.975-9.34 0-0.37-0.523-1.76-1.163-3.1-0.64-1.33-1.276-2.94-1.415-3.57-0.138-0.63-1.18-2.85-2.315-4.93-2.034-3.72-3.694-7.82-3.694-9.1 0-0.36-0.483-1.57-1.072-2.67-1.111-2.08-1.345-2.79-3.091-9.4-0.861-3.25-1.078-4.86-1.237-9.14-0.136-3.69-0.079-5.25 0.2-5.43 0.232-0.14 0.391-1.22 0.391-2.66 0-2.73 1.271-8.06 2.567-10.76 0.566-1.18 0.82-2.31 0.814-3.61-0.012-2.54 2.607-9.26 4.924-12.63 0.554-0.8 1.178-1.96 1.386-2.57s0.895-1.69 1.526-2.4c0.632-0.71 1.15-1.56 1.15-1.89 0.001-0.33 0.619-1.82 1.374-3.32 0.755-1.49 1.373-2.9 1.373-3.13s0.476-1.01 1.057-1.74c0.863-1.09 1.014-1.53 0.822-2.37-0.13-0.57-0.255-1.67-0.277-2.45-0.041-1.41 0.01-1.5 2.62-4.73 0.722-0.89 1.588-4.25 1.605-6.23 0.007-0.76 0.255-1.73 0.552-2.15 0.632-0.91 3.242-2.29 4.956-2.63 0.662-0.14 1.864-0.49 2.673-0.78 1.149-0.43 1.655-0.46 2.318-0.16 0.859 0.39 1.123 1.5 0.567 2.38-0.359 0.56-5.051 2.14-6.391 2.15-1.932 0.01-2.602 1.06-2.602 4.07 0 2.61-0.226 3.18-2.402 6.06-1.663 2.19-1.768 2.45-1.614 3.92 0.09 0.87 0.363 2.22 0.607 3 0.427 1.38 0.385 1.57-1.116 5.16-0.857 2.04-1.819 4.44-2.136 5.31-0.749 2.07-1.565 2.77-3.193 2.77-1.855 0-2.417 0.42-2.682 1.99-0.127 0.75-0.99 2.88-1.917 4.72-1.769 3.52-2.127 5.5-1.213 6.71 0.678 0.89 1.564 0.73 3.455-0.61 2.002-1.42 2.898-1.68 7.93-2.25 3.037-0.34 4.149-0.34 5.589 0.01 2.168 0.52 2.631 0.25 3.191-1.83 0.795-2.95 2.084-4.26 3.247-3.3 0.747 0.62 0.616 1.38-0.658 3.8-0.636 1.21-1.347 2.79-1.58 3.51-0.53 1.64-1.575 2.2-3.128 1.65-1.497-0.52-4.968-0.47-8.859 0.12-3.026 0.46-3.35 0.59-5.496 2.24-2.485 1.91-3.04 1.98-4.876 0.62-0.814-0.6-1.073-0.65-1.512-0.28-0.291 0.24-0.528 0.92-0.527 1.51 0.002 1-0.681 4.54-1.899 9.84-0.519 2.25-0.74 12.39-0.294 13.55 0.117 0.3 0.658 0.78 1.202 1.07 0.973 0.5 0.989 0.56 1.004 3.5 0.015 3.03 0.464 4.93 1.5 6.35 0.313 0.42 0.946 1.29 1.408 1.93 0.461 0.63 0.928 1.71 1.037 2.4 0.356 2.24 1.193 3.05 1.861 1.8 0.448-0.84-0.063-6.06-0.795-8.13l-0.477-1.35-0.608 1.49-0.607 1.5-0.46-1.33c-0.252-0.72-0.462-1.88-0.464-2.58-0.003-0.69-0.185-2.04-0.404-2.99-0.455-1.97-0.034-2.9 1.227-2.72 0.604 0.09 0.73 0.37 0.801 1.82 0.047 0.95 0.174 2.39 0.284 3.21l0.2 1.5 0.848-0.8c0.672-0.63 0.969-0.72 1.433-0.42 0.498 0.32 0.568 0.85 0.465 3.52l-0.122 3.14 2.78 2.83c1.53 1.55 3.193 3.44 3.698 4.2 1.378 2.06 4.757 5.91 10.565 12.02 2.873 3.02 6.046 6.58 7.053 7.9s2.403 2.79 3.102 3.26c2.185 1.48 7.222 6.28 8.433 8.04 0.636 0.93 2.222 2.63 3.523 3.78 4.002 3.54 9.474 9.78 10.712 12.2 0.365 0.72 1.367 2.13 2.228 3.14 1.339 1.56 1.564 2.04 1.564 3.33 0 1.03 0.302 2.02 0.944 3.11 0.841 1.44 0.941 1.94 0.921 4.59-0.02 2.63-0.14 3.22-1.062 4.98-0.806 1.55-1.245 2.03-1.92 2.11-0.686 0.08-0.921 0.35-1.088 1.24-0.17 0.9-0.436 1.2-1.312 1.45l-1.098 0.31-0.123 2.74c-0.264 5.88-0.232 8.59 0.1 8.75 0.189 0.1 0.614-0.37 0.944-1.03 0.454-0.91 0.601-2.06 0.602-4.69 0-1.92 0.094-3.74 0.209-4.04 0.354-0.92 0.821-0.6 0.827 0.57 0.007 1.43 0.424 2.08 1.238 1.92 0.675-0.13 0.672-0.09 0.394-4.74l-0.092-1.54 1.353-0.22c1.088-0.18 1.758-0.66 3.478-2.5 2.19-2.35 3.08-2.73 4.08-1.74 0.91 0.91 0.63 1.48-1.96 3.92-2.87 2.71-4.39 5.15-7.616 12.2-0.864 1.89-2.039 4.98-2.612 6.87s-1.394 3.98-1.826 4.64c-1.199 1.84-1.275 2.28-0.55 3.2 0.594 0.76 0.608 0.89 0.13 1.29-1.021 0.85-1.59 2.4-1.356 3.71 0.53 2.96 0.889 3.8 1.822 4.24 0.73 0.35 0.959 0.73 1.041 1.72 0.058 0.7-0.063 1.58-0.27 1.97-0.349 0.65-0.432 0.66-1.19 0.17-1.072-0.7-1.276-0.34-1.489 2.64-0.175 2.44 0.139 2.97 1.02 1.72 0.332-0.47 1.093-0.7 2.902-0.87 5.274-0.52 14.384 2.07 21.514 6.1 2.87 1.62 3.59 1.52 4.64-0.64 0.42-0.86 0.76-1.77 0.76-2.01 0-0.9-1.92-2.26-10.13-7.16-2.7-1.62-5.52-2.78-9.05-3.72-2.31-0.62-3.433-0.74-5.778-0.59-2.174 0.13-2.955 0.07-3.08-0.26-0.092-0.24 0.074-1.36 0.368-2.5 0.734-2.83 0.693-4.1-0.151-4.62-0.939-0.59-0.876-0.78 0.537-1.65 1.448-0.9 4.525-0.96 9.614-0.19 1.72 0.26 3.82 0.39 4.67 0.3 1.53-0.18 1.57-0.15 3.21 1.76 0.91 1.07 2.67 2.74 3.92 3.71s3.35 2.79 4.67 4.04 2.97 2.62 3.66 3.04c0.69 0.41 1.5 1.14 1.8 1.6 0.67 1.02 0.72 2.24 0.09 2.24-0.66 0-1.44 0.99-1.97 2.49-0.94 2.67 0.73 2.36 4.52-0.83 0.92-0.78 1.78-1.74 1.9-2.14 0.13-0.4 0.75-1.54 1.38-2.54 1.36-2.12 1.37-2.18 0.47-2.99-0.92-0.84-0.86-1.6 0.22-2.77 0.5-0.54 1.9-3.01 3.11-5.5 1.65-3.37 2.44-4.64 3.13-4.98 2.1-1.05 2.47-1.66 2.47-4.01 0-1.36 0.22-2.6 0.57-3.28 0.74-1.43 4.48-7.1 5.26-7.98 0.93-1.03 1.2-2.19 0.56-2.44-0.92-0.35-2.92 1.23-4.97 3.94l-1.98 2.63-1.73-0.09c-1.93-0.11-3.37 0.42-5.49 2.01-1.55 1.16-2.58 1.14-3.22-0.06-0.51-0.94 0.04-1.79 1.84-2.84 0.82-0.48 1.91-1.41 2.41-2.07 0.6-0.79 1.46-1.37 2.56-1.74 0.98-0.32 2.19-1.1 2.96-1.88 0.93-0.96 1.69-1.39 2.72-1.56 1.84-0.29 3.8-1.46 5.67-3.38l1.48-1.53-0.14-2.88c-0.31-6.36-4.06-20.56-6.76-25.6-0.39-0.72-0.71-1.66-0.71-2.09s-0.62-2.23-1.37-4c-0.76-1.77-1.38-3.31-1.38-3.43 0-0.31-5.16-11.67-5.49-12.07-0.15-0.19-1.44-2.91-2.86-6.06-3.56-7.86-4.48-9.61-6.26-11.95-1.26-1.66-1.85-2.13-3.25-2.6-1.29-0.43-1.77-0.78-1.93-1.4-0.41-1.65 1.18-2.37 2.96-1.35 0.96 0.55 2.41 0.68 2.41 0.22 0-0.17-0.58-0.91-1.29-1.65s-1.83-2.26-2.49-3.38-1.79-2.81-2.5-3.76c-1.47-1.96-1.62-3.38-0.37-3.55 1.04-0.15 2 0.98 3.74 4.44 0.83 1.63 1.9 3.55 2.38 4.26s0.87 1.73 0.87 2.26c0 0.66 0.28 1.16 0.86 1.54 0.84 0.55 1.14 1.32 1.84 4.78 0.2 0.94 1.05 2.95 1.9 4.46 1.73 3.08 4.15 8 4.52 9.18 0.14 0.43 0.83 1.96 1.53 3.4 0.71 1.44 1.47 3.17 1.7 3.85 0.22 0.67 0.75 1.74 1.17 2.36 1 1.48 2.97 5.8 4.52 9.89 0.68 1.8 1.71 4.43 2.3 5.84 1.33 3.26 5.08 15.3 5.08 16.34 0 0.43 0.31 1.76 0.7 2.96 1.05 3.28 1.25 7.58 0.49 10.46-0.34 1.3-0.9 2.94-1.25 3.64-0.34 0.7-1.16 2.76-1.81 4.57-0.65 1.82-2.02 4.8-3.05 6.63-1.47 2.61-1.92 3.77-2.1 5.38-0.17 1.6-0.63 2.8-2.04 5.33-2.05 3.67-4.33 8.3-6.35 12.88-2.21 4.98-4.25 8.52-5.2 8.98-2.08 1.01-5.26 1.81-5.88 1.47-0.48-0.25-0.8-0.17-1.33 0.36-0.38 0.38-0.69 0.84-0.69 1.02s-1.48 3.39-3.3 7.13c-1.81 3.74-3.65 7.75-4.08 8.9-0.44 1.16-1.64 3.78-2.66 5.84-2.47 4.94-6.81 18.66-6.8 21.45 0.01 0.48 0.39 1.4 0.87 2.04 1.65 2.25 0.93 3.14-2.16 2.64-1.84-0.3-2.11-0.25-4.27 0.79-3.869 1.86-3.872 2.45-0.02 4.14 1.44 0.63 3.3 1.67 4.13 2.31 0.83 0.63 1.77 1.1 2.09 1.04 0.31-0.06 0.83-0.65 1.14-1.3 0.67-1.42 4.09-4.47 5.01-4.47 0.66 0 1.56 0.87 3.38 3.27 1.57 2.06 1.64 2.49 0.61 3.44-1.03 0.96-0.91 1.59 0.46 2.45 0.53 0.33 1.69 1.26 2.58 2.08 0.89 0.81 1.87 1.47 2.17 1.47 0.31 0 1.67 0.49 3.02 1.09 2.3 1 2.84 1.09 7.98 1.34l5.51 0.26 2.13 1.25c2.34 1.37 2.76 1.94 3.34 4.48 0.54 2.4 1.36 2.77 4.51 2.04 1.65-0.38 3.86-0.54 7.34-0.5 2.74 0.02 6.29 0.03 7.9 0.02 1.6-0.01 4.74 0.15 6.98 0.36 4.01 0.38 4.07 0.38 4.89-0.4 1.02-0.95 1.56-0.97 8.39-0.24 2.93 0.31 8.11 0.74 11.51 0.95 11.87 0.75 13.57 1.12 13.57 2.94 0 1.38-1.18 1.69-3.8 1-1.22-0.31-4.14-0.7-6.51-0.86-2.36-0.15-4.8-0.39-5.43-0.52-1.01-0.22-1.27-0.11-2.17 0.87-1 1.1-1.04 1.11-3.32 0.88-1.26-0.12-2.8-0.38-3.4-0.57-1.28-0.4-2.34 0.02-2.67 1.04-0.3 0.96-0.94 1.07-2.98 0.53-1.01-0.27-2.32-0.49-2.91-0.49-0.59-0.01-2.44-0.25-4.12-0.55s-3.9-0.68-4.94-0.84-2.37-0.39-2.95-0.51c-0.84-0.19-1.27-0.04-2.17 0.71-1.1 0.93-1.14 0.93-3.41 0.53-1.26-0.22-4.15-0.55-6.41-0.73-5.64-0.45-12.6-1.23-13.23-1.5-0.32-0.13-1.24 0.32-2.37 1.17l-1.85 1.39-3.99-0.27c-2.19-0.15-4.83-0.24-5.87-0.2-4.92 0.17-10.57 0.69-11.39 1.04-0.5 0.22-1.23 0.31-1.62 0.21-0.41-0.11-1.24 0.12-1.95 0.53-1.56 0.93-2.08 0.92-2.68-0.04zm12.47-3.85c0.67-0.81 0.17-1.11-2.15-1.3-2.36-0.19-4.46-0.99-3.16-1.21 1.79-0.29 2.23-0.48 2.23-0.91 0-0.52-0.72-0.89-1.76-0.89-0.37 0-1.24-0.29-1.94-0.65-1.81-0.93-5.86-1.12-6.38-0.3-0.87 1.35 1.72 2.42 6.44 2.65 0.16 0.01-0.11 0.34-0.6 0.73-1.9 1.49-1.14 1.97 3.38 2.14 1.52 0.05 2.93 0.13 3.14 0.17s0.57-0.16 0.8-0.43zm13.55-4.51c0.26-0.68-0.02-1.18-0.65-1.18-0.62 0-0.97 0.59-0.73 1.22 0.25 0.67 1.12 0.64 1.38-0.04zm-3.67-0.57c1.13-0.88-1.72-2.63-3.53-2.18-0.99 0.25-1.11 1.23-0.24 2 1.01 0.9 2.75 0.98 3.77 0.18zm-65.369-0.47c0.605-0.23 0.726-1.01 0.207-1.33-0.511-0.32-5.546-0.83-6.091-0.62-0.774 0.3-0.364 1.59 0.588 1.85 1.102 0.31 4.589 0.37 5.296 0.1zm58.529-0.2c0.64-0.65 0.49-1.51-0.48-2.66-1.04-1.23-2.34-1.39-2.9-0.35-0.98 1.84 1.94 4.45 3.38 3.01zm-50.058-1.17c0.38-0.46 0.358-0.82-0.13-2.19-0.787-2.22-0.738-3.01 0.275-4.34 0.955-1.25 1.038-1.77 0.474-3.01-0.29-0.64-0.733-0.89-1.803-1.03-0.781-0.11-2.091-0.3-2.912-0.42-1.332-0.2-1.479-0.15-1.369 0.42 0.075 0.39 0.649 0.81 1.473 1.08 2.505 0.82 2.764 1.57 1.522 4.38-0.783 1.77-0.765 4.17 0.038 5.14 0.561 0.68 1.859 0.66 2.432-0.03zm44.448-0.81c0.44-1.37-0.87-2.73-3.4-3.58-4.22-1.4-4.49 0.29-0.46 2.9 2.32 1.5 3.54 1.71 3.86 0.68zm-27.3-3.45c0.714-0.45 0.067-1.43-1.165-1.76-1.468-0.4-1.973-0.95-1.564-1.71 0.524-0.98 1.798-0.8 4.414 0.63 2.023 1.1 2.426 1.21 2.908 0.81 0.792-0.65 0.691-1.75-0.27-2.95-0.798-1-0.913-1.03-3.368-0.95-1.398 0.05-3.688-0.06-5.089-0.23-4.011-0.51-4.517 0.58-1.672 3.58 2.109 2.24 4.61 3.35 5.806 2.58zm-37.197-2.68c0.51-0.33 1.473-2.56 1.473-3.43 0-0.34 0.386-1.15 0.859-1.79 1.03-1.4 1.078-2.1 0.199-2.9-0.627-0.57-0.693-0.56-1.374 0.12-0.393 0.39-0.715 0.91-0.716 1.15 0 0.23-0.541 1.5-1.202 2.81-1.292 2.57-1.432 3.26-0.789 3.9 0.473 0.47 0.954 0.52 1.55 0.14zm12.036-0.5c-0.163-0.49-0.715-0.43-0.888 0.09-0.063 0.19 0.143 0.34 0.458 0.34s0.508-0.19 0.43-0.43zm15.712-0.94c0.116-0.19-0.104-1.05-0.487-1.92-0.738-1.66-1.823-2.02-2.007-0.66-0.201 1.5 1.849 3.62 2.494 2.58zm-4.475-5.27c0.432-0.98 0.877-2.05 0.989-2.38 0.22-0.65 1.899-0.84 2.475-0.28 0.18 0.17 2.182 0.87 4.449 1.56 3.071 0.92 4.452 1.19 5.417 1.02 1.534-0.25 2.43-1.04 2.199-1.92-0.136-0.52 0.172-0.73 1.671-1.17 1.71-0.5 3.938-2.32 3.938-3.23 0-0.53 2.194-1.68 3.956-2.08 2.52-0.56 2.85-1 2.82-3.71-0.03-2.3 0.61-4.25 2-6.13 0.51-0.7 0.5-0.8-0.19-1.49-1.54-1.54-5.615 0.12-8.868 3.6-2.073 2.22-2.656 3.23-4.878 8.46-1.013 2.39-1.339 3.56-1.176 4.21 0.261 1.04 0.192 1.06-3.798 0.92-2.236-0.07-3.95-0.65-3.95-1.34 0-0.16 0.326-0.66 0.723-1.11 1.122-1.28 1.37-2.23 1.736-6.67 0.671-8.11 0.421-11.16-0.913-11.16-0.769 0-1.152 0.83-1.837 3.96-0.843 3.86-1.88 6.98-3.171 9.53-0.552 1.09-1.003 2.35-1.003 2.79 0 0.57-0.298 0.93-1.014 1.23-0.557 0.23-1.781 1.23-2.719 2.22-1.944 2.06-2.77 4.11-2.133 5.3 0.377 0.7 0.445 0.71 1.443 0.19 0.704-0.36 1.306-1.12 1.834-2.32zm9.819-32.89c0.212-0.4 0.293-1.09 0.18-1.54-0.112-0.45-0.046-1.52 0.147-2.39 0.462-2.06-0.009-3.06-1.319-2.8-0.636 0.12-1.154-0.05-1.703-0.56-1.33-1.24-1.924-0.49-2.155 2.72-0.219 3.04 0.203 4.25 1.492 4.26 0.421 0.01 1.065 0.24 1.432 0.52 0.917 0.69 1.473 0.63 1.926-0.21zm25.895-2.57c0.29-0.3 0.54-0.72 0.54-0.93s0.32-1.04 0.71-1.85c1.16-2.4 0.91-2.83-2.56-4.51-2.71-1.31-5.53-2.25-9.56-3.2-0.698-0.17-2.93-0.45-4.957-0.63-5.048-0.43-5.518-0.22-6.309 2.81-0.885 3.41-0.814 3.46 4.883 3.59 5.37 0.12 6.533 0.44 12.173 3.33 2.05 1.05 3.91 1.92 4.13 1.92 0.23 0 0.65-0.24 0.95-0.53zm4.89-10.2c0.91-1.02 1.57-2.74 1.43-3.73-0.06-0.44-0.5-0.99-0.97-1.23-7.75-3.88-9.35-4.46-15.98-5.8-3.236-0.66-7.013-0.64-7.977 0.04-0.417 0.29-1.017 1.37-1.354 2.44-0.602 1.91-0.601 1.92 0.147 2.53 0.606 0.49 1.177 0.57 2.938 0.43 3.942-0.31 12.876 2.15 18.336 5.07 2.3 1.23 2.54 1.25 3.43 0.25zm-27.523-12.25c0.12-0.3 0.267-4.72 0.327-9.82 0.089-7.54 0.212-9.51 0.656-10.55 0.301-0.7 0.547-1.77 0.547-2.38 0-1.03-0.795-2.35-1.415-2.35-0.47 0-1.024 1.33-1.476 3.55-0.238 1.16-0.612 2.13-0.832 2.16-0.219 0.02-0.534 0.06-0.7 0.08-0.442 0.07-0.744 1.95-0.503 3.15 0.24 1.2 0.865 1.18 1.153-0.03 0.112-0.48 0.295-0.67 0.428-0.46 0.127 0.21 0.021 0.66-0.236 1.02-0.336 0.46-0.376 0.88-0.141 1.49 0.179 0.48 0.415 3.36 0.523 6.41 0.206 5.84 0.028 6.64-1.229 5.5-0.799-0.72-0.955-0.69-1.584 0.27-0.396 0.6-0.448 1.03-0.202 1.68 0.304 0.8 0.494 0.87 2.398 0.85 1.556-0.02 2.121-0.16 2.286-0.57zm-6.135-1.83c0.152-0.24 0.29-1.13 0.308-1.98 0.017-0.85 0.152-1.89 0.299-2.32 0.23-0.66 0.098-0.84-0.934-1.27l-1.202-0.5-0.213-3.54c-0.28-4.62-0.288-3.89 0.1-9.37 0.335-4.72 0.707-7.22 1.194-8.01 0.134-0.21-0.111-0.87-0.545-1.46-0.739-1.01-0.783-1.35-0.7-5.52 0.093-4.64-0.157-5.79-1.26-5.79-1.066 0-1.315 0.72-1.567 4.52-0.233 3.52-0.205 3.76 0.692 5.75 0.736 1.64 0.885 2.36 0.696 3.38-0.616 3.33-0.783 8.83-0.492 16.23l0.317 8.08 1.278 1.11c1.425 1.24 1.632 1.31 2.029 0.69zm3.137-5.3c-0.135-1.13-0.831-1.43-1.133-0.48-0.268 0.85 0.018 1.4 0.723 1.4 0.36 0 0.485-0.28 0.41-0.92zm1.038-17.13c0.219-0.48 0.399-1.17 0.399-1.53 0-0.85 0.633-1.23 0.897-0.54 0.31 0.81 0.743 0.65 1.327-0.47 0.634-1.23 0.681-2.9 0.094-3.37-0.549-0.45-3.391-0.45-3.937-0.01-0.294 0.23-0.361 1.15-0.229 3.13 0.103 1.54 0.247 3 0.32 3.23 0.212 0.69 0.699 0.5 1.129-0.44zm5.703-2.64c0.675-0.96 0.674-1.45-0.004-2.13-0.836-0.83-1.865-0.11-1.865 1.3 0 1.78 0.918 2.19 1.869 0.83zm-2.317-8.73c0.12-0.31 0.068-1.47-0.114-2.58-0.24-1.45-0.213-2.45 0.1-3.64 0.237-0.9 0.438-2.14 0.446-2.77 0.02-1.46 0.694-1.1 0.727 0.39 0.013 0.6 0.142 1.39 0.286 1.76 0.242 0.62 0.278 0.61 0.495-0.17 0.128-0.46 0.332-2.04 0.451-3.49 0.247-3.01 0.285-2.96-2.459-3.1-1.711-0.09-1.717-0.09-1.651 0.94 0.036 0.57-0.11 2.24-0.325 3.72-0.292 2.02-0.459 2.51-0.664 1.96-0.355-0.96-0.406-4.7-0.105-7.76 0.196-1.99 0.142-2.5-0.307-2.87-0.715-0.59-1.493-0.27-1.996 0.84-0.33 0.72-0.287 1.23 0.236 2.77 0.662 1.95 0.491 3.53-0.416 3.83-0.545 0.18-1.807-1.9-1.825-3.01l-0.013-0.85-0.831 1.01c-0.458 0.56-0.947 0.9-1.089 0.76s-0.322-1.27-0.4-2.5c-0.158-2.47 0.219-3.3 1.142-2.54 0.36 0.3 0.66 0.34 0.885 0.11 0.548-0.54-0.029-1.48-0.915-1.48-0.614 0-0.863-0.24-1.009-0.95-0.251-1.22-0.93-2.57-1.365-2.71-1.037-0.33-1.235 0.5-1.268 5.31-0.037 5.43 0.17 6.07 1.886 5.82 0.851-0.13 1.052 0 1.342 0.83 0.387 1.11 1.569 1.57 2.609 1.01 1.166-0.62 1.625 0.38 1.539 3.37-0.041 1.43-0.118 2.99-0.172 3.46-0.082 0.73 0.059 0.88 0.936 0.96 0.725 0.07 1.208 0.41 1.616 1.12 0.644 1.12 1.874 1.37 2.228 0.45zm-7.109-2.03c0-0.3-0.158-0.44-0.35-0.32s-0.26 0.36-0.151 0.53c0.294 0.48 0.501 0.39 0.501-0.21zm9.277-2.37c-0.157-0.7-0.344-1.33-0.414-1.4-0.235-0.24-0.282 3.33-0.049 3.71 0.421 0.68 0.758-1 0.463-2.31zm4.057-11.35c0.158-2.96-0.232-5.67-0.849-5.91-0.282-0.11-0.95 0.13-1.485 0.52l-0.972 0.72-0.203-0.81c-0.112-0.44-0.104-1.53 0.017-2.42 0.213-1.55 0.191-1.6-0.603-1.49-0.696 0.1-0.827 0.31-0.848 1.4s-0.462 2.34-0.506 1.43c-0.102-2.07-0.388-5.29-0.527-5.93-0.156-0.72-0.311-0.78-1.363-0.58-1.186 0.22-1.186 0.22-1.186-1.11 0-0.72-0.215-1.61-0.478-1.97-0.412-0.57-0.602-0.6-1.386-0.24-0.966 0.44-1.059 0.36-1.298-1.13-0.068-0.42-0.377-0.69-0.793-0.69-0.598 0-0.683 0.24-0.683 1.89 0 1.84 0.025 1.89 0.909 1.8 0.746-0.08 0.975 0.1 1.284 0.98 0.207 0.6 0.284 1.45 0.171 1.9-0.171 0.68-0.415 0.81-1.456 0.79-1.521-0.03-3.163-0.93-3.737-2.06-0.53-1.04-0.558-3.98-0.052-5.43 0.313-0.9 0.235-1.73-0.429-4.56-0.789-3.37-1.393-4.35-2.055-3.34-0.182 0.27-0.223 2.74-0.097 5.8 0.12 2.93 0.193 6.23 0.163 7.34-0.071 2.56 0.631 3.81 1.981 3.53 3.101-0.66 3.07-0.66 3.302 0.07 0.123 0.39 0.511 0.8 0.862 0.91s0.888 0.58 1.192 1.04c0.594 0.91 1.525 1.1 2.176 0.45 0.306-0.31 0.451-0.25 0.612 0.26 0.697 2.17 0.817 2.3 2.057 2.09 1.075-0.17 1.19-0.11 1.19 0.62 0 1.32 0.367 1.9 1.202 1.9 0.856 0 1.202 0.57 1.202 2.01 0 1.3 0.931 2.51 1.837 2.38 0.648-0.09 0.753-0.35 0.849-2.16zm-8.719-9.93c-0.238-0.95 0.066-1.7 0.561-1.39 0.422 0.26 0.411 1.77-0.014 2.04-0.183 0.11-0.43-0.18-0.547-0.65zm-10.749 6.32c0.123-1.62 0.072-3.41-0.114-4.04-0.415-1.39-1.321-1.94-2.167-1.33-0.523 0.39-0.586 0.86-0.451 3.34 0.174 3.2 0.952 5.24 1.93 5.06 0.469-0.09 0.623-0.67 0.802-3.03zm-4.042-6.87c-0.023-1.23-0.211-4.47-0.419-7.21-0.207-2.74-0.302-7.15-0.21-9.79 0.182-5.21-0.087-6.44-1.461-6.64-1.251-0.18-1.523 0.89-1.143 4.47 0.273 2.58 0.534 9.57 0.684 18.31 0.024 1.4 1.241 3.35 1.999 3.2 0.493-0.1 0.585-0.49 0.55-2.34zm3.064-1.18c0.395-0.39 0.46-1.31 0.325-4.55-0.092-2.23-0.143-5.99-0.112-8.35 0.043-3.33-0.059-4.45-0.453-4.98-0.409-0.56-0.63-0.62-1.13-0.31-0.51 0.32-0.613 0.81-0.576 2.75 0.052 2.73 0.421 15.72 0.45 15.85 0.066 0.28 1.08 0.01 1.496-0.41zm-6.834-4.57c0.372-1.21-0.757-4.39-1.349-3.8-0.353 0.35-0.593 2.63-0.37 3.52 0.256 1.02 1.433 1.21 1.719 0.28zm-2.859-5.63c0.306-0.58 0.274-1.29-0.144-3.18-0.673-3.05-1.412-10.33-1.1-10.83 0.383-0.62-0.481-4.07-1.078-4.3-1.045-0.4-1.555 0.49-1.351 2.36 0.105 0.96 0.332 4.45 0.504 7.75 0.295 5.65 0.608 7.43 1.486 8.49 0.545 0.66 1.238 0.54 1.683-0.29zm1.972-0.7c-0.139-0.94-0.969-1.26-0.969-0.37 0 0.71 0.278 1.12 0.769 1.12 0.17 0 0.26-0.34 0.2-0.75zm-0.171-10.16c0.166-3.09 0.112-4.13-0.233-4.48-0.37-0.37-0.58-0.34-1.194 0.17-0.704 0.58-0.719 0.7-0.275 2.16 0.258 0.85 0.579 2.59 0.714 3.87 0.135 1.27 0.364 2.32 0.509 2.32s0.361-1.82 0.479-4.04zm-6.49 2.81c0.648-0.65 0.643-0.33 0.055-2.96-0.266-1.19-0.591-3.56-0.722-5.26-0.279-3.65-0.863-5.32-1.85-5.32-0.994 0-1.348 0.88-1.014 2.52 0.159 0.78 0.527 3.36 0.819 5.71 0.649 5.25 1.366 6.66 2.712 5.31zm-4.667-11.14c0.106-1.09-0.093-2.41-0.958-6.33-0.381-1.73-0.161-2.25 1.056-2.49 1.188-0.24 1.3-1.1 0.264-2.03-0.561-0.51-1.218-0.65-2.929-0.63-2.412 0.03-2.177 0.24-2.722-2.48-0.081-0.41-1.076-1.67-2.211-2.81-2.363-2.38-2.616-3.35-1.033-3.95 0.567-0.21 1.03-0.58 1.03-0.82 0-0.77-2.985-3.61-3.663-3.47-0.515 0.1-0.625 0.43-0.602 1.83 0.056 3.48 0.537 5.09 2.659 8.88 2.382 4.27 2.806 4.78 3.683 4.51 0.893-0.29 1.307 0.67 1.899 4.39 0.276 1.74 0.657 3.62 0.846 4.18 0.929 2.74 2.464 3.44 2.681 1.22zm-4.755-18.54c0-0.18-0.338-0.64-0.751-1.03-1.269-1.18-1.758-0.8-0.775 0.6 0.538 0.77 1.526 1.05 1.526 0.43zm33.874 191.91c-1.504-1.1 0.227-2.63 3.317-2.92 1.799-0.18 2.999 0.5 2.999 1.69 0 0.66-0.368 0.79-3.221 1.17-0.922 0.12-1.854 0.28-2.071 0.37-0.218 0.08-0.678-0.06-1.024-0.31zm-19.79-36.1c0-0.64 0.232-1.35 0.515-1.59 0.439-0.36 0.515-0.27 0.515 0.62 0 0.57-0.093 1.29-0.208 1.59-0.36 0.94-0.822 0.59-0.822-0.62zm16.985-35.62c-0.127-0.21-0.059-0.55 0.151-0.76 0.281-0.28 0.383-0.18 0.383 0.37 0 0.83-0.179 0.96-0.534 0.39zm27.203-31.06c-0.42-1.09-0.23-3.45 0.46-5.67 0.37-1.23 1.4-4.55 2.27-7.38 1.65-5.32 3.08-8.54 6.07-13.57 0.95-1.61 2.25-3.8 2.89-4.87 0.63-1.07 1.3-2.75 1.49-3.74s0.52-2.01 0.73-2.26c0.9-1.1 2.7 0.01 2.7 1.66 0 1.43-0.64 2.88-4.67 10.58-3.1 5.91-4.28 8.59-5.91 13.4-1.11 3.3-2.22 7.06-2.46 8.34-0.48 2.57-1.1 3.54-2.46 3.86-0.65 0.16-0.95 0.06-1.11-0.35zm25.84-36.41c-0.74-1.25-1.52-1.49-2.73-0.85-0.55 0.3-0.86 0.16-1.78-0.8-1.52-1.59-4.42-2.31-6.02-1.48-1.06 0.55-1.1 0.54-2.33-0.54l-1.25-1.1-2.8 0.6c-1.54 0.33-3.57 0.78-4.53 0.98-2.24 0.49-3.51 0.17-3.8-0.95-0.34-1.38 0.66-2.22 2.66-2.22 1.57 0 1.71-0.08 2.53-1.37 0.92-1.45 1.28-1.59 2.77-1.02 1.1 0.42 1.87-0.06 1.87-1.18 0-1 0.93-2.27 1.67-2.27 0.33 0 1.06 0.47 1.61 1.05 1.6 1.67 4.03 3.08 5.34 3.08 0.64 0 1.63 0.32 2.2 0.7 0.57 0.39 2.05 1.23 3.29 1.87 2.83 1.45 4.44 3.19 4.44 4.81 0 0.81-0.21 1.29-0.67 1.53-1.13 0.61-1.73 0.41-2.47-0.84zm-16.74-14.04c-0.22-0.25-0.53-1.2-0.7-2.09-0.34-1.82-0.48-1.99-3.08-3.75-1.92-1.3-2.81-1.48-4.36-0.9-0.8 0.31-1.37 0.12-4.47-1.54-2.04-1.09-3.99-1.9-4.59-1.9-0.63 0-1.47-0.37-2.155-0.96-4.164-3.54-9.521-7.24-11.137-7.68-0.646-0.18-1.672-0.76-2.281-1.28-1.606-1.38-8.864-6.72-9.869-7.25-0.471-0.26-2.105-1.63-3.631-3.07-4.293-4.03-8.624-7.63-10.391-8.65-3.004-1.73-6.558-5.19-11.954-11.64-3.467-4.14-4.702-6.87-3.111-6.87 0.261 0 1.562 1.35 2.891 3 3.451 4.29 8.497 9.71 10.99 11.79 1.177 0.99 2.226 2.06 2.332 2.4 0.406 1.28 1.095 1.48 2.376 0.68 1.472-0.9 2.133-0.64 3.581 1.46 0.553 0.8 2.941 3.34 5.306 5.66 4.16 4.07 4.348 4.21 5.79 4.21 1.341 0 1.735 0.22 3.905 2.15 3.612 3.2 5.102 4.32 6.778 5.06 0.835 0.37 2.871 1.68 4.524 2.91s3.226 2.24 3.495 2.24 2.451 1.01 4.841 2.23c2.39 1.23 4.63 2.24 4.97 2.24 1.19 0 0.69-1.49-1.25-3.71-1.04-1.19-2.38-2.89-2.98-3.78s-1.65-2.25-2.33-3.03c-0.67-0.78-2.13-3.03-3.231-4.98-1.102-1.96-2.702-4.8-3.554-6.31-1.693-3.01-2.46-4.72-5.946-13.25-1.278-3.13-2.496-5.99-2.707-6.36-0.466-0.8-1.852-4.55-2.963-8.01-0.449-1.4-1.402-3.4-2.117-4.43-1.15-1.67-1.33-2.22-1.543-4.68-0.307-3.54 0.069-4.5 1.776-4.5h1.197l0.025 2.75c0.024 2.61 0.103 2.88 1.504 5.24 0.813 1.37 2.057 4.15 2.765 6.18 0.707 2.03 2.174 5.78 3.26 8.33 1.085 2.55 2.495 5.96 3.132 7.56 2.769 6.98 7.882 16.2 12.222 22.05 1.59 2.14 3.71 5.12 4.72 6.63 1.01 1.52 2.16 3.12 2.56 3.56 1.8 2 7.25 5.63 12.16 8.09 2.81 1.41 3.54 2.38 2.89 3.81-0.6 1.3-2.14 1.16-3.8-0.34-0.73-0.66-1.57-1.2-1.86-1.2s-0.84 0.54-1.23 1.2c-0.76 1.28-2.02 1.62-2.75 0.73zm-53.323-48.75c-2.204-1.57-10.315-6.9-13.104-8.61-0.631-0.39-0.945-0.87-0.945-1.45 0-1.34-0.507-2.02-2.507-3.35-1.011-0.67-2.033-1.45-2.27-1.74-0.933-1.12 0.208-2.55 1.719-2.15 0.454 0.12 2.471 1.66 4.481 3.43 2.011 1.77 4.207 3.56 4.882 3.98 0.674 0.41 1.718 1.38 2.32 2.14 0.601 0.75 2.933 2.61 5.181 4.11 4.198 2.82 5.218 3.96 4.408 4.93-0.714 0.86-1.49 0.62-4.165-1.29zm50.753-14.05c-0.29-0.44-0.79-1.49-1.13-2.34-0.33-0.85-1.35-2.78-2.25-4.29-1.74-2.9-1.99-3.93-1.13-4.65 0.92-0.76 2.07 0.15 4.09 3.26 1.06 1.61 2.04 2.93 2.19 2.93s0.46-0.18 0.69-0.41c0.32-0.33 0.54-0.29 0.98 0.16 0.49 0.48 0.52 0.76 0.17 1.87-0.58 1.91-1.88 4.03-2.53 4.15-0.32 0.07-0.8-0.24-1.08-0.68zm1.58-8.93c-0.24-0.29-1-1.59-1.68-2.89-0.69-1.3-1.53-2.72-1.86-3.15-0.44-0.57-0.67-1.75-0.85-4.46-0.22-3.17-0.37-3.83-1.07-4.66-1.14-1.37-1.02-2.13 0.6-3.62l1.4-1.3-0.04-4.75c-0.02-2.61-0.13-4.88-0.22-5.04-0.33-0.54-1.75-0.3-2.37 0.39-0.63 0.69-0.63 1.45 0.03 5.72 0.18 1.17 0.09 1.55-0.53 2.17-0.42 0.41-0.89 0.7-1.05 0.64s-1.29-1.02-2.5-2.13-3.65-2.89-5.43-3.95c-1.88-1.13-3.278-2.2-3.349-2.57-0.067-0.34 0.389-1.26 1.009-2.04 0.96-1.19 1.16-1.76 1.28-3.57 0.24-3.79-0.26-4.48-3.569-4.94-1.102-0.15-2.448-0.7-3.683-1.49-2.219-1.42-2.923-2.38-2.292-3.14 0.632-0.77 1.551-0.59 2.635 0.49 0.945 0.95 1.175 1 5.168 1.24 4.791 0.29 5.191 0.5 4.511 2.39-0.41 1.12-0.38 1.27 0.39 2.09 0.46 0.49 1.68 1.37 2.73 1.96 3.58 2.03 8.52 5.77 9.68 7.34 2.57 3.49 2.21 3.28 5.05 2.92 2.18-0.28 2.7-0.48 3.72-1.47 2.18-2.1 5.04-9.31 4.37-11.04-0.12-0.32-0.49-0.58-0.82-0.58-0.7 0-3.25 2.64-3.59 3.7-0.42 1.32-2.26 1.2-2.26-0.15 0-0.67-1.06-0.08-2.92 1.64-1.58 1.45-2.25 1.63-2.94 0.79-0.64-0.77-0.17-1.37 2.45-3.1 1.21-0.81 2.73-1.9 3.38-2.43 2.43-2.01 5.98-4.22 7.11-4.43 1.76-0.33 2.19 0.23 2.19 2.84 0 1.22-0.17 3.29-0.39 4.62-0.34 2.05-0.32 2.48 0.12 2.92 0.47 0.47 0.64 0.37 1.64-0.89 0.98-1.24 1.1-1.59 0.9-2.79-0.13-0.86-0.03-1.93 0.27-2.82 0.27-0.8 0.54-2.84 0.61-4.54l0.12-3.09-1.12-0.1c-1.38-0.14-1.41-0.55-0.1-1.65 0.55-0.47 1.36-1.43 1.78-2.13s1.32-1.94 1.98-2.77c0.95-1.17 1.2-1.77 1.16-2.8-0.06-1.48 0.21-1.78 2.06-2.38 0.8-0.26 1.78-1 2.58-1.96 0.7-0.84 1.97-1.97 2.82-2.5 1.88-1.17 4.47-3.55 4.47-4.09 0-0.79-1.38-1.77-2.5-1.77-1.89 0-3.34 0.6-4.89 2.03-0.82 0.75-2.54 1.91-3.84 2.57-2.34 1.2-4.62 2.76-9.47 6.48-3.04 2.32-3.75 2.42-6.65 0.93-1.89-0.97-2.35-1.05-7-1.25-3.63-0.15-5.31-0.37-6.19-0.79-1.51-0.73-10.9-0.96-13.043-0.32-1.116 0.34-1.619 0.32-2.828-0.12-0.81-0.3-2.223-0.61-3.142-0.7-1.87-0.19-3.132-1.13-2.771-2.07 0.38-0.99 2.158-1.23 6.067-0.79 2.727 0.3 5.897-0.24 8.237-1.39 1.34-0.66 2.59-0.58 2.83 0.18 0.11 0.35 0.5 0.9 0.85 1.22 0.59 0.54 0.84 0.55 3.17 0.07 2.37-0.49 2.68-0.48 5.08 0.15 2.82 0.74 7.2 0.89 8.37 0.28 0.41-0.22 1.76-1.04 2.99-1.84 2.13-1.4 2.38-1.47 5.65-1.69 1.88-0.13 4.13-0.45 4.98-0.72 0.86-0.26 2.23-0.65 3.04-0.86 1.57-0.41 2.81-1.39 2.81-2.22 0-0.85-1.63-0.99-4.58-0.42-3.06 0.6-5.89 0.96-8.81 1.14-1.04 0.06-2.84 0.21-3.99 0.33-2.35 0.24-3.57-0.18-3.57-1.24 0-1.04 1.86-1.82 3.75-1.58 1.81 0.23 3.42 0 10.33-1.42 3.97-0.83 5.4-0.98 7.05-0.79 2.03 0.24 5.61 1.34 7.41 2.27 1.24 0.64 2.57 2.27 3.06 3.75 0.71 2.16 1.97 2.29 3.74 0.4 0.45-0.48 1.3-0.97 1.89-1.1 1.28-0.27 1.93-0.75 1.93-1.41 0-0.27-0.71-1.71-1.57-3.21-1.17-2.02-1.54-3.01-1.46-3.85 0.1-0.99 0.23-1.13 1.12-1.13 0.93 0 1.16 0.28 2.92 3.62 2.05 3.88 4.3 7.18 4.95 7.24 0.21 0.02 1.48 0.08 2.8 0.13s3.35 0.21 4.51 0.35c2.09 0.25 2.13 0.24 4.19-1.22 1.15-0.81 2.22-1.86 2.39-2.35s0.47-1.36 0.67-1.93c0.2-0.56 0.72-1.84 1.16-2.85 0.86-1.96 0.69-2.86-0.59-3.11-0.36-0.07-1.02-0.42-1.47-0.78-0.45-0.35-1.08-0.64-1.4-0.64-0.31 0-1.02-0.46-1.56-1.03-0.55-0.58-1.35-1.03-1.8-1.03-0.86 0-1.55-0.63-3.61-3.26-1.27-1.62-1.64-3.01-0.93-3.45 0.2-0.12 1.15-0.11 2.11 0.02 1.35 0.18 2.02 0.51 2.92 1.4 0.64 0.64 1.5 1.17 1.92 1.17 1.21 0.01 1.54 0.38 3.09 3.44 0.8 1.59 1.64 2.94 1.88 3.01 0.23 0.07 0.6-0.31 0.81-0.84 0.51-1.3 0.15-11.55-0.52-14.59-0.39-1.8-0.42-2.93-0.15-5.33 0.19-1.67 0.32-3.98 0.3-5.12-0.04-1.67 0.09-2.2 0.63-2.69 1.67-1.51 2.81 0.75 1.55 3.08-0.5 0.93-0.53 1.28-0.19 2.03 0.22 0.49 0.4 1.79 0.4 2.89s0.3 3.76 0.67 5.91c0.99 5.84 1.24 11.68 0.61 14.22-0.29 1.13-0.62 2.78-0.74 3.65-0.32 2.27-1.96 7.13-3.05 8.97-1.16 2-2.7 3.54-4.38 4.39-1.1 0.57-2.03 0.68-5.61 0.68-2.53 0-4.65-0.17-5.17-0.4-0.48-0.22-1.27-1.07-1.75-1.89-0.76-1.31-1.02-1.49-2.07-1.49-1.72 0-3.21 0.72-5.25 2.53-2.31 2.06-3.09 2.06-5.08 0.05-0.84-0.86-1.78-1.55-2.09-1.55s-1.27 0.79-2.13 1.76c-0.86 0.96-2.86 3.07-4.44 4.68-4.97 5.07-6.91 8.73-6.92 13.07-0.01 0.89-0.24 2.7-0.52 4.02s-0.51 3.05-0.51 3.85c0 1.22-0.26 1.75-1.73 3.52-0.95 1.14-1.87 2.08-2.05 2.08s-0.97 0.81-1.75 1.8-2.54 3-3.92 4.46l-2.5 2.67h-2.43c-1.81 0-2.83-0.2-3.99-0.76-1.42-0.69-1.61-0.71-2.1-0.22-0.45 0.45-0.48 0.78-0.17 1.88 0.64 2.31 0.48 3.12-0.96 4.69-0.73 0.79-1.43 1.78-1.55 2.18-0.29 0.93 0.56 5.83 1.24 7.17 0.77 1.5 2.39 7.35 2.26 8.17-0.09 0.61-0.15 0.64-0.53 0.18zm-23.444-2.51c-0.806-0.6-1.607-0.86-2.604-0.86-0.899 0-2.314-0.41-3.761-1.09-1.847-0.86-2.713-1.07-4.246-1.02-3.807 0.13-4.367 0.13-6.907 0.01-2.213-0.11-2.752-0.02-3.82 0.64-0.683 0.42-1.776 0.77-2.429 0.77-0.652 0-1.922 0.25-2.822 0.56-1.264 0.43-1.824 0.47-2.465 0.18-1.954-0.89-0.382-3.15 3.528-5.07 2.363-1.17 4.098-1.37 5.743-0.68 1.671 0.69 3.269 0.7 4.256 0.01 0.647-0.46 0.972-0.48 2.027-0.13 0.82 0.27 2.332 0.35 4.35 0.22l3.093-0.2 3.642 1.86c2.003 1.02 3.984 2.18 4.402 2.57 0.942 0.88 0.99 2.25 0.097 2.73-0.86 0.46-0.739 0.49-2.084-0.5zm10.644-4.09c-1.73-1.73-5.07-3.64-6.385-3.64-0.608 0-2.056-0.45-3.219-1-1.162-0.55-3.041-1.11-4.176-1.24-2.469-0.28-3.959-1.32-3.589-2.49 0.327-1.02 1.291-1.23 3.747-0.8 1.166 0.2 2.702 0.46 3.413 0.56 0.712 0.11 3.699 1.42 6.639 2.93 2.94 1.5 5.49 2.73 5.66 2.73 0.64 0 0.28-0.7-1.43-2.76-2.11-2.54-6.694-6.02-8.592-6.53-0.755-0.2-1.459-0.59-1.564-0.87-0.382-0.99 0.205-2.14 1.288-2.51 1.26-0.44 2.106-0.1 3.408 1.37 0.66 0.75 1.2 1 2.39 1.07 1.47 0.09 1.62 0.2 3.51 2.67 2.82 3.67 5.43 8.02 5.43 9.04 0 0.96-0.25 1.2-2.06 1.9-2.44 0.95-3.16 0.88-4.47-0.43zm-26.928-4.39c-0.404-0.57-0.495-1.2-0.341-2.36 0.172-1.3 0.044-1.91-0.713-3.4-1.381-2.72-1.319-4.29 0.254-6.43 0.708-0.97 1.506-2.28 1.774-2.92 0.5-1.2 1.222-5.72 1.376-8.61 0.049-0.93 0.332-1.91 0.656-2.26 0.313-0.35 0.569-0.78 0.569-0.97 0-0.71-2.283-2.53-3.172-2.53-0.498 0-1.312-0.15-1.809-0.34-0.757-0.29-0.885-0.52-0.795-1.46 0.095-0.99 0.241-1.13 1.239-1.23 0.866-0.08 1.411 0.14 2.33 0.95 0.66 0.58 1.559 1.05 1.999 1.05 0.439 0 1.323 0.35 1.963 0.78 0.64 0.42 2.218 1.3 3.507 1.95 5.286 2.66 7.153 5.86 3.414 5.86-0.836 0-3.206-1.56-5.885-3.87-1.414-1.21-2.043-0.87-1.46 0.8 0.518 1.49 0.487 2.88-0.152 6.8-0.623 3.83-0.906 4.67-2.477 7.32l-1.153 1.94 0.905 1.98c1.239 2.71 1.431 4.79 0.585 6.33-0.804 1.45-1.855 1.71-2.614 0.62zm29.898-28.82c-0.5-0.39-0.9-0.99-0.9-1.34 0-0.64 4.85-5.44 7.35-7.27 0.73-0.54 1.75-0.98 2.26-0.98s2.52-0.78 4.47-1.73c3.56-1.75 6.74-2.72 8.88-2.73 0.71 0 1.75-0.41 2.69-1.04 2.9-1.96 5.26-2.91 5.26-2.13 0 0.5-2.99 2.78-5.32 4.06-1.27 0.7-3.03 1.4-3.9 1.56-0.88 0.17-2.97 0.79-4.65 1.39-2.72 0.97-3.1 1.21-3.53 2.24-0.5 1.2-1.06 1.55-3.42 2.15-1.51 0.38-3.66 2.39-5.45 5.09-1.11 1.67-2.26 1.9-3.74 0.73zm-40.394-4.65c-1.214-0.65-2.053-0.82-4.036-0.82-2.094 0-2.623-0.12-3.233-0.73-1.476-1.47-0.082-6.02 2.356-7.67 0.704-0.48 1.409-0.87 1.566-0.87s1.13 0.4 2.163 0.89c1.032 0.48 2.994 1.03 4.358 1.21 1.364 0.17 2.829 0.39 3.254 0.49 1.254 0.28 0.967 1.52-0.679 2.93-1.335 1.15-1.467 1.42-1.632 3.28l-0.18 2.02-1.202 0.05c-0.693 0.02-1.851-0.3-2.735-0.78zm18.998-0.97c-1.221-0.53-1.759-1.69-1.135-2.44 0.774-0.93 2.856-0.36 4.242 1.18 1.316 1.45-0.743 2.29-3.107 1.26zm-8.55-3.44c-0.464-0.46-0.843-0.99-0.843-1.18 0-0.49 1.009-1.41 1.554-1.41 1.523 0 3.229 1.77 2.796 2.9-0.338 0.88-2.51 0.69-3.507-0.31zm40.316-21.64c-0.72-1.6 1.32-2.73 2.14-1.19 0.3 0.57 0.26 0.85-0.22 1.38-0.8 0.89-1.45 0.82-1.92-0.19zm32.76-4.65c-0.55-0.97-0.71-1.03-2.71-1.03-2.68 0-3.49-0.66-4.74-3.87l-0.91-2.32 0.71-1.16c0.39-0.63 0.71-1.33 0.71-1.56 0-0.22-0.48-1.62-1.07-3.12-1.22-3.1-1.17-4.46 0.18-4.46 0.45 0 0.97 0.2 1.18 0.44 0.63 0.77 3.42 8.59 3.68 10.32 0.18 1.24 0.59 2.07 1.63 3.27 0.76 0.88 1.63 1.6 1.93 1.6 0.34 0 1.08-1.09 1.98-2.89 0.79-1.6 1.67-3.03 1.95-3.18 0.28-0.16 0.85-0.83 1.25-1.49 0.84-1.35 2.06-1.65 2.06-0.5 0 1.48-5.81 10.98-6.71 10.98-0.29 0-0.79-0.46-1.12-1.03zm-91.263-0.34c-0.115-0.19-0.107-1.25 0.018-2.35 0.218-1.93 0.182-2.07-0.841-3.11-0.588-0.6-1.069-1.3-1.069-1.54 0-0.76 4.033-8.5 4.922-9.46 1.151-1.23 1.948-2.9 1.948-4.08 0-0.54 0.373-2.06 0.829-3.37 0.456-1.3 0.94-2.99 1.076-3.75 0.136-0.75 0.483-1.84 0.77-2.4 0.697-1.38 2.122-6 2.129-6.91 0.003-0.4 0.469-1.59 1.037-2.66 0.568-1.06 1.426-2.98 1.906-4.25 1.225-3.26 1.688-3.87 2.917-3.87 0.741 0 1.131 0.22 1.389 0.79 0.301 0.66 0.107 1.29-1.18 3.86-0.935 1.87-1.836 4.36-2.291 6.34-0.808 3.51-1.982 7.72-2.925 10.48-2.812 8.22-3.717 10.36-5.523 13.08-0.64 0.97-1.165 2-1.165 2.3 0 0.29 0.58 0.82 1.289 1.16 2.005 0.98 1.895 1.83-0.541 4.18-1.522 1.47-2.159 2.37-2.469 3.51-0.23 0.84-0.473 1.72-0.54 1.96-0.144 0.51-1.386 0.57-1.686 0.09zm57.023-7.74c-0.57-0.26-1.77-0.49-2.66-0.49-0.89-0.01-2.59-0.32-3.78-0.68-5.49-1.68-10.9-1.97-17.169-0.91-3.318 0.56-6.042 0.6-11.089 0.18-1.534-0.13-7.978 0.77-9.693 1.35-3.339 1.14-4.243 0.86-3.745-1.12 0.286-1.14 2.906-2.19 7.386-2.96 2.006-0.35 4.729-0.81 6.052-1.04 6.226-1.07 17.638-1.14 22.328-0.14 1.32 0.29 3.25 0.67 4.29 0.86 1.04 0.2 3.13 0.79 4.64 1.32 1.51 0.54 3.39 1.08 4.18 1.21 1.59 0.27 2.64 1.19 2.46 2.14-0.15 0.8-1.79 0.94-3.2 0.28zm21.08-3.18c-1.08-1.01-1.46-1.67-1.71-2.98-0.32-1.71-1.1-2.94-1.87-2.94-0.24 0-1.17-0.62-2.09-1.37-0.91-0.76-1.85-1.38-2.08-1.38-0.24 0-1.3-0.71-2.36-1.57-1.07-0.87-2.62-1.82-3.46-2.1-1.8-0.61-2.53-1.54-2.53-3.2 0-2.44 1.38-2.68 4.13-0.7 5.34 3.84 9 7.05 9.82 8.61 0.35 0.66 1.13 1.83 1.73 2.6 2.28 2.91 3.45 6.33 2.18 6.33-0.21 0-1-0.59-1.76-1.3zm21.22-0.99c-0.68-0.69-0.14-2.12 1.35-3.57 0.86-0.84 2.44-2.84 3.5-4.45 1.06-1.6 2.48-3.54 3.15-4.31 0.67-0.76 1.72-2.11 2.33-3 0.81-1.18 1.34-1.62 1.94-1.62 1.79 0 1.42 1.54-1 4.15-0.8 0.87-1.73 2.11-2.06 2.75-0.61 1.2-5.44 7.53-7.08 9.3-0.89 0.95-1.66 1.22-2.13 0.75zm-1.75-9.85c-0.46-0.47-0.97-1.59-1.2-2.66-0.4-1.89-1.63-4.32-2.58-5.11-0.29-0.24-0.76-1.19-1.03-2.11s-0.98-2.28-1.57-3.02c-1.24-1.54-1.3-2.9-0.13-3.06 1.37-0.2 6.18 6.69 8.23 11.76 1.34 3.32 1.39 3.71 0.64 4.46s-1.42 0.68-2.36-0.26zm-64.6-1.99c-1.511-0.97-4.045-2.35-5.631-3.06-3.999-1.79-4.294-2.09-4.029-4.02 0.118-0.86 0.214-2.91 0.214-4.55 0-2.63 0.104-3.14 0.836-4.16 0.459-0.65 1.538-2.2 2.397-3.47 0.859-1.26 2.202-2.81 2.984-3.43 0.782-0.63 1.947-1.96 2.588-2.96 0.882-1.37 1.551-1.98 2.743-2.49 3.407-1.46 4.328-2.73 4.032-5.54-0.191-1.82-0.138-2.02 0.766-2.92 0.54-0.53 1.66-1.82 2.49-2.86 3.65-4.55 6.24-6.8 9.95-8.64l3.54-1.76 4.36 2.14c5.67 2.77 5.89 2.98 5.87 5.65-0.01 1.15 0.14 2.91 0.34 3.9 0.46 2.28 0.33 2.63-2.85 7.29-1.4 2.07-3.05 4.69-3.66 5.83-1.26 2.38-2.56 3.35-4.94 3.68-2.03 0.27-2.56 1.14-1.96 3.16 0.68 2.27 0.5 3.22-0.99 5.22-2.34 3.13-6.85 9.66-7.99 11.57-1.28 2.12-2.65 2.81-6.065 3.04-2.22 0.15-2.28 0.13-4.995-1.62zm7.6-9.49c1.27-1.84 3.04-4.28 3.92-5.42 2.91-3.77 2.92-4.31 0.06-5.84-0.89-0.48-2.11-1.19-2.72-1.57-0.87-0.55-1.24-0.62-1.8-0.32-0.388 0.21-0.705 0.52-0.705 0.7 0 0.41-5.644 8.74-6.926 10.23-1.679 1.94-1.394 2.51 2.223 4.39 3.253 1.69 3.297 1.68 5.948-2.17zm12.66-19.44c0.57-0.85 2.39-3.09 4.04-4.98 3.93-4.5 3.94-4.73 0.21-6.61-1.98-0.99-2.98-1.32-3.41-1.12-0.67 0.32-3.38 4.23-4.65 6.73-0.45 0.89-1.37 2.11-2.03 2.71s-1.19 1.37-1.19 1.72c0 0.37 0.77 1.13 1.97 1.91 3.26 2.15 3.39 2.14 5.06-0.36zm68.96 16.49c-1.03-0.19-1.8-0.51-1.8-0.75 0-0.23 0.7-0.99 1.55-1.69s1.54-1.46 1.54-1.7-0.4-0.81-0.89-1.27c-1.17-1.09-2-2.75-2.67-5.38-0.3-1.18-0.86-2.76-1.24-3.51-0.82-1.61-0.93-3.45-0.2-3.45 1.11 0 2.28 1.61 3.26 4.47 1.85 5.4 2.62 7.4 3.22 8.24 0.67 0.96 0.73 2.03 0.23 3.83-0.42 1.52-0.68 1.62-3 1.21zm-106.2-14.45c-0.538-0.65-0.195-1.87 1.403-4.99 1.015-1.99 1.318-2.98 1.318-4.32 0-2.08 0.61-3.07 2.226-3.6 0.66-0.22 1.815-1.1 2.588-1.98 0.767-0.87 1.923-1.94 2.569-2.38s1.639-1.48 2.207-2.3c0.568-0.83 2.524-3.03 4.347-4.89 1.824-1.87 3.851-4.04 4.506-4.84 0.66-0.8 1.714-1.61 2.366-1.83 1.016-0.33 1.176-0.53 1.176-1.51 0-1.51-0.43-2.12-9.626-13.62-10.339-12.94-10.645-13.37-9.45-13.37 0.379 0 0.432-0.19 0.215-0.77-0.203-0.55-0.582-0.78-1.277-0.8-0.544-0.02-1.158-0.06-1.366-0.09-0.347-0.05-4.118-4.674-7.008-8.586-0.661-0.896-2.29-2.937-3.62-4.536-1.33-1.6-3.102-3.836-3.937-4.969-0.836-1.134-3.192-4.115-5.236-6.626-2.044-2.51-5.146-6.452-6.894-8.759-2.832-3.739-6.725-8.798-9.682-12.582-0.567-0.725-2.336-2.999-3.931-5.053s-4.722-6.01-6.949-8.792c-3.478-4.344-7.036-8.945-14.42-18.644-5.746-7.55-7.493-10.565-8.199-14.156-0.3863-1.9629-0.3607-2.2074 0.388-3.7068 1.208-2.4194 5.023-5.8547 7.228-6.5095 2.25-0.66828 5.107-0.68228 6.662-0.03268 1.481 0.61898 4.605 3.539 6.25 5.8422 0.68 0.952 1.742 2.2719 2.36 2.9331 1.423 1.5227 2.017 2.9937 1.474 3.6487-0.877 1.056-1.632 0.395-4.946-4.3284-2.804-3.9945-6.016-6.1734-9.122-6.1866-2.331-0.0099-8.256 4.3831-7.727 5.7297 0.135 0.3418 0.393 1.5308 0.575 2.6423 0.385 2.352 1.067 3.825 2.003 4.326 0.608 0.325 0.673 0.218 0.769-1.278 0.095-1.481 0.185-1.634 0.955-1.634 0.761 0 0.913 0.245 1.469 2.366 0.464 1.77 1.261 3.328 3.166 6.183 3.728 5.59 4.488 6.652 5.926 8.276 2.142 2.419 3.494 4.186 3.923 5.128 0.223 0.489 0.501 0.89 0.617 0.89 0.836 0 9.305 9.968 10.227 12.036 0.376 0.843 1.371 2.382 2.212 3.422 0.841 1.039 1.902 2.43 2.358 3.091 0.457 0.661 1.917 2.453 3.246 3.982 4.799 5.521 7.741 9.49 7.741 10.443 0 1.23 1.786 3.853 3.682 5.406 0.85 0.697 2.263 2.355 3.14 3.685 1.518 2.302 1.668 2.427 3.127 2.59 1.486 0.167 1.575 0.246 2.92 2.589 0.763 1.329 2.356 3.84 3.542 5.58 1.185 1.741 2.307 3.566 2.494 4.058 0.187 0.491 1.15 1.69 2.14 2.663 3.17 3.118 8.452 9.539 8.673 10.549 0.272 1.24 1.43 2.73 2.123 2.73 0.806 0 3.491-1.81 3.731-2.51 0.116-0.34 0.005-0.9-0.248-1.25-0.252-0.34-1.629-2.15-3.061-4.01-1.431-1.869-3.187-4.323-3.901-5.457-0.714-1.133-1.659-2.447-2.098-2.919-0.44-0.473-1.108-1.555-1.485-2.405s-1.816-3.29-3.2-5.422c-1.383-2.131-4.125-6.382-6.094-9.446-5.462-8.498-6.856-10.65-10.398-16.047-5.287-8.057-15.057-22.859-18.025-27.308-1.512-2.267-3.432-5.165-4.266-6.439-0.834-1.275-2.483-3.665-3.663-5.313-2.239-3.125-2.496-3.848-1.624-4.571 0.923-0.766 1.96 0.106 3.589 3.017 0.856 1.527 3.874 6.143 6.708 10.257s5.369 7.874 5.633 8.356 1.368 2.035 2.453 3.452 2.474 3.581 3.087 4.809 1.768 3.083 2.566 4.122 2.194 3.159 3.102 4.71c0.909 1.552 2.284 3.591 3.056 4.532s1.932 2.609 2.577 3.706c2.124 3.608 9.012 14.151 9.523 14.575 0.275 0.228 1.122 1.478 1.881 2.778s1.834 2.88 2.389 3.512 1.334 1.901 1.731 2.818c0.397 0.918 1.379 2.52 2.182 3.559s1.811 2.585 2.242 3.435c0.43 0.85 2.075 3.369 3.656 5.598 1.58 2.231 3.202 4.701 3.604 5.491 2.167 4.29 13.138 20.25 15.378 22.38 0.59 0.56 1.06 1.36 1.06 1.8s-0.03 0.8-0.08 0.8c-0.62 0.01-5.4 2.28-6.18 2.94-0.57 0.48-1.64 1.18-2.38 1.55-0.78 0.4-1.49 1.08-1.7 1.62-0.19 0.51-0.94 1.5-1.668 2.2-0.726 0.7-2.4 2.55-3.721 4.12-1.32 1.57-3.194 3.63-4.163 4.57-1.685 1.64-1.753 1.77-1.552 3.11 0.318 2.12-0.507 3.79-2.21 4.47-2.203 0.88-6.71 6.21-9.388 11.1-0.63 1.15-1.324 1.36-1.964 0.59zm22.644-45.35c0-0.75-1.498-2.26-2.243-2.26-0.345 0 0.103 2.07 0.57 2.63 0.658 0.8 1.673 0.57 1.673-0.37zm-2.914-4.4c-0.298-0.62-1.117-1.97-1.82-3.01-0.953-1.41-1.517-1.92-2.222-2-1.456-0.17-1.214 0.92 0.798 3.58 2.201 2.91 3.13 3.71 3.513 3.03 0.159-0.28 0.046-0.95-0.269-1.6zm79.036 44.36c-1.62-1.8-2.04-3.25-1.06-3.62 0.72-0.28 2.06 0.68 3.26 2.34 2.33 3.21 0.49 4.27-2.2 1.28zm-3.73-4.67c-0.34-0.09-0.97-0.69-1.41-1.33s-1.44-1.64-2.24-2.22c-1.59-1.15-2.43-2.54-1.88-3.1 0.57-0.57 2.59 0.51 4.89 2.64 1.82 1.68 2.12 2.12 2.03 3-0.11 1.07-0.38 1.27-1.39 1.01zm-9.93-9.17c-0.68-0.25-1.69-0.79-2.22-1.21-1.94-1.53-12.07-5.78-16.4-6.88-1.35-0.34-3.24-0.94-4.2-1.33-1.08-0.43-3.05-0.8-5.11-0.95-3.88-0.28-4.53-0.68-5.5-3.35-1.08-3-1.59-3.33-5.33-3.53-1.8-0.09-4.09-0.15-5.09-0.13-1.95 0.03-2.81-0.39-2.81-1.38 0-1.34 0.84-1.53 4.84-1.09 2.07 0.23 4.3 0.68 4.95 0.99 1.12 0.53 1.32 0.53 3.06-0.02 1.45-0.45 2.02-0.84 2.56-1.76 0.77-1.31 3.29-3.05 5.31-3.68 1.72-0.53 3.14-2.28 4.04-5.01 0.88-2.65 0.71-3.49-1.02-4.86-1.97-1.56-2.52-3.22-2.71-8.17-0.18-4.86-0.02-5.826 1.1-6.335 0.45-0.204 1.09-0.983 1.43-1.731 1.02-2.261 3.15-3.292 2.72-1.313-0.2 0.914-0.09 1.106 1 1.751 0.68 0.399 1.23 0.936 1.23 1.194s0.31 0.634 0.68 0.835c0.82 0.437 1.72 2.078 1.72 3.119 0 0.42-0.31 1.25-0.68 1.87-0.49 0.78-0.67 1.59-0.61 2.74 0.15 2.64-1.5 3.08-2.83 0.75-0.49-0.87-0.46-0.95 0.61-1.92 1.22-1.13 1.45-2.39 0.57-3.27-0.64-0.64-0.47-0.63-1.9-0.15-2.41 0.81-2.78 1.8-2 5.41 0.31 1.46 0.69 2.01 2.61 3.8 1.86 1.73 2.21 2.23 2.02 2.86-0.13 0.42-0.39 1.38-0.57 2.14-0.19 0.76-1.18 2.85-2.21 4.66s-1.88 3.62-1.88 4.04c0 0.87-0.74 0.96-2.8 0.34-1.21-0.36-1.44-0.32-2.27 0.36-0.52 0.41-1.43 1.07-2.02 1.45-1.46 0.93-1.61 1.47-0.98 3.62 0.6 2.05 1.42 2.71 2.98 2.4 1.59-0.32 6.34 0.97 12.45 3.39 3.84 1.52 6.14 2.24 7.12 2.24 1.34 0 1.64 0.18 3.46 2.05 1.09 1.13 2.28 2.2 2.64 2.39 0.78 0.42 7.09 2.09 7.9 2.09 0.32 0 1.19-0.64 1.94-1.42 0.75-0.77 2.02-1.69 2.82-2.05 0.81-0.35 2.66-1.53 4.12-2.62 1.47-1.09 3.06-2.24 3.55-2.55 1.83-1.16 4.71-6.08 6.71-11.47 2.94-7.92 2.97-8.08 1.49-8.29-0.47-0.07-1-0.33-1.19-0.57-0.22-0.28-1.24-0.44-2.92-0.44-3.27 0-4.59-0.58-4.74-2.08-0.08-0.86 0.09-1.21 0.84-1.72 0.52-0.34 1.83-1.5 2.9-2.57 1.65-1.64 2.26-2.01 3.83-2.33 2.23-0.47 3.56-0.09 4.03 1.14 0.74 1.95-0.48 2.85-2.39 1.76-1.21-0.7-2.88-0.63-3.83 0.14-1.01 0.83-0.69 1.22 1.83 2.22 1.55 0.62 1.94 0.96 2.57 2.27l0.74 1.55 0.63-1.19c0.35-0.66 1.07-1.62 1.61-2.14 1.41-1.38 2.4-5.56 1.73-7.31-0.12-0.31-1.14-1.03-2.28-1.6l-2.07-1.04-0.98 0.72c-0.93 0.69-1.08 0.7-3.04 0.25-1.92-0.45-2.12-0.43-2.8 0.16-0.41 0.35-0.96 0.64-1.23 0.64-0.64 0-2.47-2.03-2.73-3.04-0.37-1.45 1.28-1.734 2.72-0.468 0.33 0.288 0.69 0.438 0.8 0.338 0.4-0.402-0.76-1.68-2.13-2.343-1.25-0.606-1.6-0.639-2.95-0.277-1.46 0.39-1.63 0.355-3.47-0.699-1.88-1.076-2.04-1.106-5.47-1.016-1.94 0.051-3.72-0.025-3.96-0.17-0.71-0.442-0.48-1.587 0.41-1.992 1.08-0.493 9.6 0.556 11.97 1.475 0.91 0.351 1.99 0.638 2.41 0.638 0.8 0 4.84 1.376 8.32 2.839 1.13 0.476 2.83 1.14 3.77 1.475 1.13 0.4 2.49 1.33 3.96 2.72 1.22 1.16 2.98 2.75 3.91 3.55 1.68 1.44 2.96 1.86 2.96 0.96 0-0.75-2.26-4.29-3.23-5.05-1.08-0.85-1.2-2.03-0.22-2.03 0.37 0 0.83 0.19 1.03 0.43 0.73 0.88 2.76 4.03 2.76 4.29 0 0.47 1.43 2.97 2.28 3.98 1.06 1.28 1.03 2.41-0.09 3.3-1.27 0.99-3.02 0.9-6.37-0.32-3.65-1.33-4.67-1.35-4.93-0.09-0.11 0.52-0.48 1.49-0.82 2.15-0.35 0.66-0.75 1.74-0.89 2.41-0.48 2.28-4.24 13-4.89 13.97-0.37 0.53-1.22 1.82-1.91 2.86-1.74 2.65-4.07 4.86-7.33 6.96-1.54 0.99-3.77 2.56-4.94 3.48-1.35 1.07-2.67 1.79-3.56 1.96-2.15 0.42-5.73 0.33-7.14-0.17zm-19.12-47.504c-0.24-0.1-0.54-0.087-0.65 0.027-0.12 0.114 0.08 0.195 0.45 0.18 0.4-0.016 0.48-0.098 0.2-0.207zm26.91 39.004c-1.1-0.59-1.72-0.69-3.29-0.52-2.89 0.3-3.68-0.97-1.67-2.67 1.27-1.06 2.16-1.11 4.14-0.21 0.83 0.38 1.92 0.69 2.42 0.69 0.91 0.01 2 0.78 2 1.42 0 0.41-1.57 2.02-1.96 2.02-0.16 0-0.89-0.32-1.64-0.73zm-22.74-5.48c-3.09-2.7-3.53-3.73-4.1-9.42-0.18-1.8-0.12-2.14 0.51-2.71 1.02-0.91 1.59-0.32 2.07 2.16 0.39 1.95 2.69 7.05 4.13 9.14 0.39 0.57 0.71 1.38 0.71 1.8 0.01 1.27-1.15 0.94-3.32-0.97zm26.68 0.54c-4.49-1.68-6.74-2.2-8.6-2.01-1.53 0.17-2.03 0.09-2.49-0.37-0.73-0.73-0.75-1.7-0.04-2.4 0.7-0.71 1.45-0.68 2.74 0.11 0.59 0.35 2.03 0.72 3.26 0.83 4.81 0.43 7.5 1.29 8.21 2.62 0.86 1.59-0.57 2.16-3.08 1.22zm-33.59-5.73c-0.46-0.46-0.56-1.65-0.15-1.65 0.55 0 1.8 1.09 1.8 1.57 0 0.6-1.08 0.65-1.65 0.08zm34.44-0.78c-1.33-1.33-1.02-1.9 1.39-2.54 0.76-0.21 1.65-0.7 1.99-1.09 0.79-0.92 1.41-0.72 1.55 0.5 0.17 1.38-0.57 2.9-1.68 3.48-1.39 0.71-2.29 0.62-3.25-0.35zm-4.89-2.44c-0.42-0.29-0.76-0.82-0.76-1.18 0-0.77 1.23-1.72 2.23-1.72 2 0 3.07 2.45 1.35 3.1-1.23 0.47-1.94 0.42-2.82-0.2zm4.3-10.48c-0.7-0.41-0.75-0.98-0.2-2.2 0.47-1.03 1.93-1.54 2.38-0.82 0.51 0.8 0.35 1.98-0.37 2.7-0.78 0.78-0.96 0.81-1.81 0.32zm-4.43-3.58l-0.71-1.21-1.1 0.68c-0.94 0.58-1.3 0.63-2.45 0.31-3.96-1.07-2.94-4.05 1.47-4.32 2.6-0.16 4.46 0.84 5.12 2.75 0.93 2.72-0.93 4.15-2.33 1.79zm1.25-6.57c-3.19-1.57-3.23-1.58-6.61-0.95-1.97 0.37-2.87-1.09-1.31-2.116 1.15-0.754 6.96-1.105 8.12-0.491 1.64 0.869 4.79 3.477 4.79 3.977 0 0.38-1.47 1.3-1.83 1.14-0.04-0.01-1.45-0.72-3.16-1.56zm-21.18 0.13c-0.55-0.45-1.71-3.235-2.33-5.582-0.48-1.843-0.61-1.997-2.59-3.181-1.05-0.626-1.66-1.208-1.57-1.498 0.09-0.26 0.22-1.401 0.29-2.535 0.11-1.633 0.32-2.255 1.02-2.996 0.65-0.683 0.96-1.508 1.17-3.052 0.16-1.164 0.82-3.293 1.47-4.732s1.66-3.908 2.24-5.486c1.26-3.433 2.7-5.539 4.42-6.483 2.19-1.203 5.39-2.138 6.63-1.94 1.42 0.227 5.65-1.326 7.99-2.936 3.47-2.387 8.66-3.237 13.65-2.237 1.58 0.317 3.11 0.7 3.4 0.85s1.82 1.589 3.4 3.197c1.84 1.882 3.61 3.317 4.97 4.026 2.81 1.474 4.24 2.569 4.81 3.687 1.42 2.793 1.73 13.742 0.53 18.446-0.39 1.511-0.83 3.961-0.99 5.444-0.15 1.483-0.49 2.907-0.75 3.166-0.74 0.736-1.98-0.088-3.42-2.263-1.06-1.6-1.73-2.148-4.47-3.659-1.78-0.978-4.08-2.111-5.12-2.519-1.03-0.408-2.04-0.863-2.23-1.012-0.65-0.513-2.82-1.066-6.22-1.583-7.85-1.197-8.55-1.235-11.73-0.639-1.83 0.343-3.7 0.482-4.78 0.354-1.28-0.151-2.37-0.02-3.95 0.474-1.19 0.375-2.76 0.684-3.48 0.687-3.34 0.011-3.54 1.595-0.5 3.985 2.13 1.672 2.17 1.687 4.75 1.715 2.86 0.03 3.41 0.218 3.41 1.152 0 1.152-0.88 1.502-3.12 1.248-2.75-0.311-3.75 0.264-3.75 2.166 0 3.066-1.61 4.976-3.15 3.736zm39.5-16.848c0.09-1.057-0.1-1.535-0.97-2.528-1.23-1.4-1.72-2.497-1.72-3.868 0-0.526-0.39-2.53-0.88-4.452l-0.88-3.496 0.88-1.047c0.98-1.159 1.14-2.414 0.4-3.03-0.46-0.379-2.36-0.814-5.6-1.279-1.32-0.189-1.48-0.128-1.86 0.687-0.35 0.784-0.29 1.063 0.53 2.248 1.07 1.541 1.18 1.157-1.57 5.74-0.91 1.531-1.66 2.94-1.66 3.131 0 0.801-1.44 2.092-2.57 2.304-1.31 0.245-2.01 1.147-1.84 2.358 0.14 0.972 1.32 1.509 3.94 1.804 1.96 0.22 2.15 0.181 2.53-0.531 0.34-0.647 0.29-0.924-0.31-1.745-1.76-2.377-0.39-3.36 3.49-2.504 4.43 0.977 4.79 1.358 3.15 3.303-1.3 1.553-1.04 2.651 0.88 3.603 0.9 0.446 2.05 0.733 2.75 0.687 1.13-0.076 1.21-0.162 1.31-1.385zm-8.95-7.826c-0.83-0.478-0.76-1.636 0.19-3.439 1.01-1.909 1.95-2.024 2.53-0.312 0.64 1.875 0.56 3.354-0.21 3.767-0.83 0.444-1.74 0.438-2.51-0.016z"/>
  <metadata>
    <rdf:RDF>
      <cc:Work>
        <dc:format>image/svg+xml</dc:format>
        <dc:type rdf:resource="http://purl.org/dc/dcmitype/StillImage"/>
        <cc:license rdf:resource="http://creativecommons.org/licenses/publicdomain/"/>
        <dc:publisher>
          <cc:Agent rdf:about="http://openclipart.org/">
            <dc:title>Openclipart</dc:title>
          </cc:Agent>
        </dc:publisher>
        <dc:title>baseball player</dc:title>
        <dc:date>2009-03-22T09:34:47</dc:date>
        <dc:description>Source: http://commons.wikimedia.org/wiki/File:Batter_(PSF).png</dc:description>
        <dc:source>http://openclipart.org/detail/22751/baseball-player-by-papapishu</dc:source>
        <dc:creator>
          <cc:Agent>
            <dc:title>papapishu</dc:title>
          </cc:Agent>
        </dc:creator>
        <dc:subject>
          <rdf:Bag>
            <rdf:li>baseball</rdf:li>
            <rdf:li>batter</rdf:li>
            <rdf:li>black and white</rdf:li>
            <rdf:li>boy</rdf:li>
            <rdf:li>clip art</rdf:li>
            <rdf:li>clipart</rdf:li>
            <rdf:li>coloring book</rdf:li>
            <rdf:li>contour</rdf:li>
            <rdf:li>drawing</rdf:li>
            <rdf:li>game</rdf:li>
            <rdf:li>line art</rdf:li>
            <rdf:li>outline</rdf:li>
            <rdf:li>people</rdf:li>
            <rdf:li>player</rdf:li>
            <rdf:li>psf</rdf:li>
            <rdf:li>sport</rdf:li>
            <rdf:li>wikimedia commons</rdf:li>
          </rdf:Bag>
        </dc:subject>
      </cc:Work>
      <cc:License rdf:about="http://creativecommons.org/licenses/publicdomain/">
        <cc:permits rdf:resource="http://creativecommons.org/ns#Reproduction"/>
        <cc:permits rdf:resource="http://creativecommons.org/ns#Distribution"/>
        <cc:permits rdf:resource="http://creativecommons.org/ns#DerivativeWorks"/>
      </cc:License>
    </rdf:RDF>
  </metadata>
</svg>
