<?xml version="1.0" encoding="utf-8"?>
<svg version="1.1" id="Layer_1" xmlns="http://www.w3.org/2000/svg" xmlns:xlink="http://www.w3.org/1999/xlink" x="0px" y="0px"
	 viewBox="0 0 1363.065 1706.602" enable-background="new 0 0 1363.065 1706.602" xml:space="preserve">
<g>
	<path d="M668.347,59.435c4.563-8.085,17.671-8.094,22.684-0.521c6.764,10.586,18.349,39.529,25.233,49.157
		c5.979,2.977,44.667,7.632,49.208,8.168c20.031,3.05,18.005,18.575,12.631,23.967c-41.142,42.936-39.902,33.123-37.799,46.887
		c2.901,12.77,4.295,25.823,6.945,38.638c0.957,5.436,2.153,11.74-1.476,16.508c-10.768,13.745-20.938,1.139-43.481-8.373
		c7.922,45.554,96.84,258.092,298.685,339.916c20.415,8.183,27.595,19.424,17.557,39.377
		c-42.396,85.106-144.44,117.044-151.438,122.326c84.748,96.58,201.689,152.635,306.508,161.615
		c20.767,1.843,27.698,18.581,22.66,32.157c-18.022,47.27-87.476,139.774-210.181,186.547
		c21.442,21.98,130.746,118.482,291.958,152.576c14.878,3.72,34.41,2.902,33.915,25.543
		c-1.679,50.502-138.049,244.459-475.63,236.169c-9.512-0.13-20.971-2.722-28.424,4.924
		c-16.358,12.841,21.679,102.517,29.295,117.575c-26.925,0.294-53.875,0.453-80.805-0.015
		c-11.057-21.661-23.475-72.887-16.838-144.23c3.293-35.103,33.773-28.138,48.16-27.649
		c162.898,17.196,392.001-44.489,482.647-161.472c6.433-8.466,13.605-16.541,18.045-26.325
		c-20.535-6.517-126.091-28.125-224.843-75.874c-76.112-36.708-145.076-91.46-147.37-109.154
		c-1.581-9.323,1.61-20.508,10.402-25.176c7.171-3.978,15.694-3.347,23.389-5.691c81.732-22.101,184.962-93.925,226.775-158.118
		c-67.098-12.183-133.572-29.784-196.074-57.383c-121.492-53.431-173.75-122.741-177.055-133.327
		c-3.598-11.941,4.087-26.387,16.544-28.989c83.545-19.788,158.821-71.631,178.892-101.539
		C858.887,529.8,735.08,397.283,685.457,289.864c-1.478-3.255-3.521-6.202-5.689-9.03c-10.899,19.328-21.52,51.972-79.383,124.096
		C488.987,537.517,384.857,583.687,359.873,598.372c18.134,35.251,118.084,86.883,172.516,98.81
		c6.134,1.57,12.863,2.457,17.84,6.712c8.07,7.647,12.115,21.312,4.538,30.773c-80.375,106.936-235.234,164.155-368.036,187.846
		c27.668,47.394,131.004,131.198,228.239,155.979c7.809,2,16.316,2.165,23.357,6.463c7.734,5.215,9.883,15.805,7.926,24.446
		c-4.388,17.305-51.776,51.377-63.046,59.692c-121.07,85.952-292.302,119.637-311.821,126.99
		c41.352,86.128,253.1,207.13,510.334,185.14c8.174-0.535,17.175-3.341,21.647-10.725c7.64-11.223-0.294-64.398-2.621-77.86
		c-2.814-15.708-5.103-34.851-49.32-85.763c-43.775-47.731-82.151-60.411-97.296-67.513c31.999,6.141,61.493,21.734,87.857,40.503
		c48.848,34.696,75.389,77.307,79.231,82.067c-1.265-5.196-50.438-110.803-2.635-195.358c21.113-35.807,62.89-98.091,98.905-80.871
		c13.417,7.477,23.398,34.931-4.68,50.733c-17.794,10.52-56.075,5.909-76.313,45.377c-38.4,69.55-17.429,169.57,3.852,208.489
		c31.694-103.365,70.74-123.2,113.917-246.471c18.644-54.217,34.914-124.787,18.487-179.993
		c-13.401-41.052-52.888-82.127-95.001-71.179c-23.087,6.305-40.057,27.576-44.722,50.555c-1.759,8.75-5.699,19.68-15.785,21.23
		c-14.78,3.209-45.123-14.16-12.19-59.103c65.807-81.115,186.575-20.784,189.397,92.792
		c2.442,100.942-52.996,193.479-66.687,224.101c6.305-7.182,11.407-15.286,17.121-22.915
		c94.871-122.45,89.198-134.732,105.314-179.36c0.252,5.819-0.669,12.003,2.233,17.357c15.279-7.22,23.945-37.447,46.575-67.579
		c34.943-50.517,72.023-56.653,98.543-44.905c53.671,21.668,32.784,86.037-8.373,94.677c-21.015,5.048-38.964-9.234-24.703-26.416
		c8.743-6.915,21.09-1.515,30.395-7.148c11.847-5.283,19.652-20.185,14.522-32.598c-11.548-23.916-48.787-28.063-75.698-5.079
		c-30.811,25.358-27.379,32.978-176.111,255.922c-41.995,61.488-89.934,148.415-94.424,223.158
		c49.017-114.27,167.28-185.668,230.773-197.861c-5.083,2.454-87.157,31.139-150.793,112.307
		c-110.177,139.574-71.37,297.737-71.49,311.086c-1.85,0.022-96.041,0.821-107.577-0.286
		c6.172-15.758,37.862-100.265,29.935-115.525c-7.959-10.705-17.384-5.295-58.515-4.848
		c-185.845-0.481-402.85-56.395-480.941-222.221c-7.656-16.098-2.691-33.89,15.959-36.938
		c119.13-22.618,219.662-77.828,307.044-156.353c-100.661-34.44-172.458-113.483-198.719-160.79
		c-6.329-11.113-27.879-40.441-2.821-53.793c7.948-4.365,17.306-3.705,25.997-5.063C339.2,878.804,448.458,793.416,494.543,735.023
		C387.659,695.516,325.321,613.32,341.271,587.885c5.556-9.715,17.279-12.141,26.622-16.697
		c150.936-64.354,261.725-222.781,290.093-336.82c-17.361,4.436-30.436,22.66-43.143,9.035c-5.914-7.174-2.202-14.329,5.449-60.253
		c3.449-13.249-56.365-41.794-39.156-61.035c9.983-10.231,60.871-7.556,63.95-16.03C653.146,90.699,659.633,74.469,668.347,59.435
		 M679.648,72.834c-35.55,70.535-11.227,44.075-81.922,60.189c49.329,56.441,42.711,17.023,30.844,96.968
		c38.202-17.415,46.308-28.428,56.494-23.59c15.614,6.559,29.57,16.51,45.29,22.835c-0.736-34.179-15.056-50.005-1.85-63.097
		c10.826-11.083,22.547-21.263,33.27-32.429c-1.429-3.382-19.844-3.617-47.261-8.372
		C699.873,123.213,701.351,111.164,679.648,72.834z"/>
	<path d="M689.509,378.304c20.55,8.158,33.891,40.747,13.727,71.726c-4.691,6.896-11.4,11.951-17.398,17.614
		c6.769-0.291,52.121-8.982,98.005,30.363c43.747,35.343,53.2,93.701,34.208,131.195c-25.204,59.309-114.518,63.946-125.91,25.394
		c-1.917-8.241,0.718-17.632,7.082-23.321c20.919-16.933,62.225,11.25,85.615-21.043c39.448-48.939-20.434-138.718-108.77-119.26
		C559.995,512.6,571.189,677.533,666.65,746.582c22.574,17.248,49.015,28.088,74.688,39.76
		c86.328,45.247,125.253,154.068,112.13,207.012c4.133-108.851-94.287-235.615-219.612-202.293
		c-88.439,22.859-146.667,108.4-135.048,177.805c9.156,60.958,51.831,66.032,63.97,86.513c12.992,20.731-7.724,37.338-27.677,31.243
		c-72.588-22.911-67.273-139.278-133.292-168.003c-33.015-15.523-64.8,1.394-68.739,22.139
		c-2.588,18.013,11.532,35.985,29.294,38.811c8.544,1.86,19.478,2.975,23.542,12.004c8.442,14.668-8.831,40.241-44.543,20.474
		c-42.91-23.584-51.725-102.471,21.949-114.551c24.713-4.378,50.251,5.889,68.259,22.656c16.725,14.979,27.888,34.742,37.931,54.523
		c0.714-6.543,0.745-13.134,1.366-19.666c9.502-94.117,86.592-177.086,186.771-184.787c11.524-1.334,23.069,0.221,34.611,0.237
		c-83.067-39.733-92.18-92.14-122.139-138.372c-16.133-24.625-46.676-72.095-83.695-58.06c-24.618,8.181-23.598,33.49-5.942,41.485
		c6.616,3.644,14.415,2.037,21.453,3.985c6.745,1.972,10.285,10.409,6.915,16.62c-8.492,17.553-50.418,6.464-56.244-28.075
		c-6.584-31.369,29.683-54.551,60.914-44.721c38.709,11.787,57.646,60.154,66.716,68.732c-1.147-9.655-3.332-19.202-3.498-28.955
		c-4.462-147.554,129.65-112.613,126.136-186.507c-2.702-24.661-26.585-33.168-40.006-15.508
		c-3.252,5.682-3.571,12.441-5.913,18.487c-4.334,14.825-35.61,9.53-20.189-21.42C646.28,378.075,674.235,371.091,689.509,378.304z"
		/>
	<path d="M911.102,1226.266c51.849-11.952,109.386,5.721,140.947,55.32c30.516,50.409,7.029,100.006-18.239,118.332
		c-36.788,29.737-101.196,20.209-130.446-16.928c-23.978-31.415-18.777-78.292,5.109-95.146
		c17.779-11.733,50.613,5.078,37.373,35.549c-3.745,10.349-12.809,18.353-14.15,29.625c-6.226,43.115,88.598,70.713,115.018-9.961
		c13.041-50.013-35.368-110.391-103.722-116.05C932.396,1225.657,921.716,1226.882,911.102,1226.266z"/>
	<path d="M438.42,1236.183c-13.187-0.628-26.542-1.933-39.598,0.82c-50.303,8.247-86.244,42.393-90.408,81.367
		c-4.258,35.193,21.442,65.504,46.156,66.85c21.158,0.799,32.773-17.278,24.82-28.859c-3.359-5.474-7.805-11.005-7.337-17.819
		c-0.337-13.664,13.215-26.344,26.929-23.161c24.274,2.936,31.512,36.804,19.385,59.974c-14.036,30.177-57.611,42.387-90.891,22.268
		c-56.15-34.5-47.355-123.415,24.158-153.859C376.934,1231.44,412.449,1228.876,438.42,1236.183z"/>
</g>
</svg>
