<?xml version="1.0" encoding="UTF-8" standalone="no"?>
<svg xmlns:rdf="http://www.w3.org/1999/02/22-rdf-syntax-ns#" xmlns="http://www.w3.org/2000/svg" height="868.9" viewBox="0 0 634.85938 868.89843" width="634.86" version="1.1" xmlns:cc="http://creativecommons.org/ns#" xmlns:dc="http://purl.org/dc/elements/1.1/">
<path d="m309.31 0-84 84v16l48 48h20v-20l-36-36 60-60 60 60-36 36v20h20l48-48v-16l-84-84h-16zm-64 164v56h144v-56h-144zm16 8h12v36h-12v-36zm56.117 62.039a317.43 317.43 0 0 0 -317.43 317.43 317.43 317.43 0 0 0 157.18 273.62c0.39481-7.746-1.6263-15.018-6-20.727-0.49662-0.648-0.46641-0.66925 0.53906-0.39845 24.188 6.5143 37.993-4.2458 37.547-29.273-0.11799-6.6114-1.7027-15.393-3.2578-18.07-0.25281-0.43532-0.0366-0.28284 0.65625 0.46876 10.45 11.337 21.581 14.448 35.211 9.8359 6.3227-2.1394 10.772-4.4592 25.531-13.281 3.3298-1.9904 4.9972-2.9805 4.9688-2.8125-0.0283 0.16796-1.7472 1.4943-5.1875 4.1406-2.9188 2.2452-5.7496 4.4838-6.2891 4.9688-14.999 13.484-14.918 32.69 0.21094 49.789 0.6678 0.75475 1.2777 1.4394 1.3516 1.5234 0.0802 0.091-0.87482-0.29999-2.3516-0.96871-16.889-7.6495-28.662-5.3346-36.578 7.1953-3.8266 6.0571-6.7035 16.671-7.5234 27.164a317.43 317.43 0 0 0 121.42 24.25 317.43 317.43 0 0 0 135.99 -30.953c-1.9075-6.4545-4.2602-12.142-6.9141-16.438-12.658-20.489-31.76-24.443-59.328-12.289-2.4104 1.0626-3.96 1.6854-3.8281 1.539 0.1216-0.13519 1.1214-1.2376 2.2188-2.4531 24.862-27.538 25.307-58.743 1.1562-80.898-0.86868-0.79688-5.4266-4.476-10.133-8.1719-5.5469-4.3562-8.324-6.5393-8.3672-6.8125-0.0432-0.27336 2.6452 1.3678 8.0234 4.6562 23.838 14.576 31.027 18.405 41.266 21.984 22.072 7.7162 40.217 2.8444 57.383-15.406 1.1379-1.21 1.4882-1.4532 1.0703-0.75-2.5706 4.3257-5.2864 18.564-5.586 29.305-0.91908 32.963 13.537 50.839 40.039 51a317.43 317.43 0 0 0 122.72 -219.18c-0.61972-0.15072-3.4829-1.6147-9.3125-4.6328-5.314-2.7512-10.548-5.3756-11.633-5.8359-30.172-12.797-58.383 0.53924-73.141 34.578-0.6514 1.5025-1.2475 2.8727-1.3203 3.0391-0.0788 0.18064-0.15548-1.4909-0.18748-4.125-0.36432-30.126-11.881-45.87-35.773-48.898-13.442-1.7036-35.099 2.7233-52.883 10.805-0.907 0.41216-1.6408 0.68616-1.6406 0.60936 0.00092-0.0772 0.2852-1.1066 0.6328-2.2812 8.3052-28.08-7.1359-55.251-39.281-69.125-1.578-0.6814-2.2774-1.0838-1.5156-0.875 10.155 2.7822 25.044 3.6241 36.188 2.0469 18.892-2.6738 34.174-12.647 41.773-27.258 0.30636-0.58868 0.47516-0.87308 0.60156-0.80468 0.1264 0.0683 0.21296 0.48704 0.35936 1.3203 7.0592 40.089 32.404 53.001 68.938 35.117 9.6508-4.7242 21.488-13.094 24.359-17.227 0.46696-0.67176 0.38732-0.25588-0.2422 1.2812-9.4949 23.186-6.4044 41.721 9.7656 58.609 7.5011 7.8346 13.965 12.792 37.109 28.445 4.7033 3.181 6.9479 4.725 7.2187 5.0938a317.43 317.43 0 0 0 1.7031 -32.453 317.43 317.43 0 0 0 -317.43 -317.43zm-52.992 55.492c-0.0459 0.27292-2.8472 2.4263-8.4375 6.7266-4.743 3.6484-9.3343 7.2822-10.211 8.0703-24.372 21.912-24.24 53.113 0.34375 80.898 1.0851 1.2264 2.0676 2.348 2.1875 2.4844 0.13033 0.14792-1.4128-0.49144-3.8125-1.5781-27.445-12.43-46.582-8.6655-59.445 11.695-7.2369 11.455-12.405 32.944-12.617 52.477-0.0109 0.99612-0.0711 1.782-0.14062 1.75-0.0695-0.0335-0.88001-0.7266-1.7969-1.539-21.919-19.417-53.074-16.938-79.258 6.3047-1.2857 1.1412-1.9493 1.6016-1.4375 1 6.8214-8.0204 13.896-21.152 17.188-31.914 5.5797-18.246 3.0168-36.318-7-49.391-0.80699-1.0533-0.75887-1.0887 0.875-0.64844 39.305 10.586 61.734-6.9009 61.008-47.57-0.19174-10.743-2.762-25.016-5.2891-29.367-0.41083-0.70735-0.0633-0.4557 1.0625 0.76563 16.982 18.422 35.079 23.471 57.227 15.977 10.274-3.4766 17.502-7.2346 41.484-21.57 5.4109-3.2344 8.1162-4.8432 8.0703-4.5703zm144.35 5.6484c0.1036 0.13517-0.0916 2.3039-0.5 6.625-0.34628 3.6661-0.64428 7.259-0.65628 7.9844-0.35596 20.166 13.754 33.197 36.578 33.781 1.0074 0.0245 1.9197 0.0436 2.0313 0.0469 0.12124 0.003-0.80892 0.42988-2.3047 1.0547-17.109 7.1446-23.445 17.347-19.672 31.68 2.1229 8.0637 9.6291 19.407 18.336 27.695 0.44396 0.42288 0.77836 0.78088 0.73436 0.79688-0.0442 0.0172-0.69484 0.092-1.4453 0.16404-17.937 1.7258-29.89 16.788-30.406 38.328-0.0256 1.0583-0.0998 1.5532-0.15624 1.0703-0.75036-6.4358-3.6982-15.129-7.164-21.125-5.8759-10.166-15.084-16.59-25.172-17.562-0.81263-0.0783-0.81316-0.12072 0.0703-0.67188 21.253-13.259 22.79-30.69 4.1719-47.422-4.9182-4.4199-12.426-9.2503-15.445-9.9375-0.49085-0.112-0.23312-0.16025 0.78906-0.15625 15.418 0.0801 25.288-5.9457 31.203-19.062 2.744-6.0847 4.0835-10.922 7.6875-27.734 0.81312-3.7932 1.2167-5.6898 1.3203-5.5547zm-186.99 29.539c-0.14736-0.0456-0.30492-0.0321-0.44532 0.0703-0.14597 0.10643-1.2254 1.3934-2.4062 2.8594s-2.7868 3.4216-3.5625 4.3516c-0.7754 0.93012-20.229 21.613-43.234 45.961l-41.828 44.266-3.9141 3.5312c-4.0118 3.6192-4.2412 3.8895-3.6875 4.3516 0.51578 0.43044 0.72157 0.29744 3.6562-2.3359 29.881-26.813 67.569-66.699 93.547-99 1.1875-1.4766 2.2362-2.7689 2.3281-2.8672 0.35667-0.38692-0.011-1.0506-0.45312-1.1875zm185.25 4.3672c-0.20972-0.0161-0.42132 0.0767-0.44532 0.28907-0.0132 0.11039 0.10864 1.1346 0.27344 2.2812 0.16476 1.1466 0.37556 2.6903 0.46876 3.4297 0.0936 0.73932 1.2484 18.178 2.5625 38.75l2.3828 37.398-0.0469 3.25c-0.053 3.3246-0.0263 3.5322 0.41404 3.4766 0.41016-0.0517 0.43136-0.19112 0.47656-2.6172 0.45956-24.702-1.6871-58.41-5.3359-83.656-0.1668-1.1541-0.31632-2.1672-0.32032-2.25-0.0165-0.2154-0.22008-0.33557-0.42968-0.35157zm39.32 185.92c-0.1352 0.0568-0.1962 0.185-0.2422 0.3594-0.17148 0.64956 0.0278 0.7772 3.6562 2.3203 36.946 15.711 89.049 32.961 129.31 42.812 1.8406 0.45032 3.4501 0.84904 3.5781 0.89064 0.6686 0.21228 1.2496-0.94608 0.6406-1.2813-0.15824-0.0872-1.7812-0.52784-3.6094-0.97656-1.8282-0.44864-4.2821-1.0662-5.4531-1.375-1.171-0.30844-28.153-9.1756-59.953-19.703l-57.813-19.141-4.8594-2.0547c-3.7334-1.576-4.8528-2.0216-5.2578-1.8516zm-207.55 5.0391c0.15899-0.0834 0.36066 0.27536 0.73438 1.0156 9.2771 18.378 28.225 31.075 51.797 34.703 13.904 2.1404 32.531 1.3156 45.266-2.0078 0.9554-0.2492 0.0745 0.25148-1.9063 1.0781-40.389 16.854-60.095 50.581-50.141 85.805 0.41645 1.4735 0.75781 2.7552 0.75781 2.8516s-0.92725-0.26032-2.0547-0.78908c-22.106-10.37-49.102-16.222-65.93-14.297-29.909 3.4223-44.548 22.929-45.461 60.578-0.08 3.2918-0.19346 5.3756-0.28906 5.1484-0.0884-0.2096-0.81016-1.9325-1.6016-3.8203-17.929-42.769-52.992-59.865-90.898-44.328-1.3634 0.55884-7.9491 3.7591-14.633 7.1172-15.756 7.916-15.786 7.9122-2.625-0.7578 29.166-19.214 37.326-25.314 46.82-34.992 20.467-20.864 24.61-43.977 13.094-73.102-0.7635-1.931-0.86231-2.4561-0.28907-1.6094 3.5262 5.2085 18.197 15.847 30.188 21.898 45.392 22.907 77.264 7.1566 86.695-42.844 0.196-1.0393 0.31756-1.5648 0.47656-1.6484zm47.852 55.242c-0.82823 0.14924-2.4979 0.81504-6.0156 2.25l-6.1016 2.4922-72.562 23.047c-39.907 12.676-73.758 23.343-75.227 23.711-1.4683 0.368-4.5441 1.1076-6.8359 1.6406-2.2918 0.53308-4.3321 1.0577-4.5313 1.1641-0.76616 0.41004-0.0594 1.8724 0.78126 1.6172 0.1604-0.0488 2.177-0.52752 4.4844-1.0625 50.475-11.702 115.86-32.477 162.27-51.555 4.5586-1.8736 4.8138-2.0292 4.6094-2.8438-0.0549-0.21852-0.12118-0.37252-0.28906-0.44532-0.12592-0.056-0.30986-0.0652-0.58594-0.0156zm123.84 172.75c-0.44492 0.13212-0.81412 0.79628-0.46092 1.1875 0.0908 0.0992 1.1242 1.3944 2.2969 2.8828 18.127 23.008 42.051 49.789 64.984 73.133a317.43 317.43 0 0 0 2.6328 -1.5156l-20.34-21.95c-22.76-24.577-42.015-45.453-42.781-46.391-0.7662-0.9378-2.3418-2.9128-3.5078-4.3906s-2.238-2.7748-2.3828-2.8828c-0.13932-0.1024-0.29732-0.11428-0.44532-0.0703zm-184.38 24.45c-0.0907-0.0272-0.18703-0.0238-0.27343 0.039-0.0898 0.0655-0.75772 0.86348-1.4844 1.7656-0.72663 0.9022-1.7101 2.1074-2.1875 2.6797-0.47717 0.5724-12.452 13.298-26.609 28.281l-25.586 27.078a317.43 317.43 0 0 0 0.85937 0.41409c17.781-16.374 39.114-39.091 54.133-57.766 0.73078-0.90868 1.3731-1.6974 1.4297-1.7578 0.21951-0.23823-0.009-0.65036-0.28125-0.73435zm251.09 52.805a317.43 317.43 0 0 1 -23.789 12.641 317.43 317.43 0 0 0 23.789 -12.641zm-306.32 7.4766a317.43 317.43 0 0 0 25.062 11.859 317.43 317.43 0 0 1 -25.062 -11.859z"/>
</svg>
