<?xml version="1.0" encoding="UTF-8" standalone="no"?>
<svg xmlns:rdf="http://www.w3.org/1999/02/22-rdf-syntax-ns#" xmlns="http://www.w3.org/2000/svg" viewBox="0 0 439.97873 896.30865" height="896.31pt" width="439.98pt" version="1.1" xmlns:cc="http://creativecommons.org/ns#" xmlns:dc="http://purl.org/dc/elements/1.1/">
<path d="m278.67 0c-3.18-0.01545-6.46 0.2707-9.82 0.88477-49.73 2.25-68.7 66.787-35.25 99.935-35.09 5.86-12.28 53.84-18.72 79.05-0.23 0.04-0.44 0.07-0.67 0.11-108.3 31.58-199.76 126.87-212.58 241.02-12.83 143.13 52.534 276.37 115.76 400.01 52.72 99.11 106.95 197.49 154.5 299.19 7.8 1.5 8.85-7.9 12.22-12.7 62.96-133.64 139.24-260.58 201.41-394.64 13.18-31.27 26.13-63.19 36.94-95.7l2.16-2.1-0.8-2.04c19.04-58.37 30.89-118.67 24.33-180.7-5.44-119.17-101.17-219.6-212.4-252.41-0.23-0.03-0.44-0.06-0.68-0.1-6.56-25.13 16.12-73.02-18.82-78.99 36.77-32.939 10.2-100.59-37.58-100.82zm-3.01 13.371c24.73 0.541 48.77 19.725 44.42 46.576 3.75 42.303-61.25 48.373-84.5 23.326-13.65-23.512-5.51-61.016 23.71-67.353 4.52-1.594 9.24-2.414 13.98-2.543 0.79-0.022 1.59-0.023 2.39-0.006zm1.6 198.02c7.36 0.07 14.65 0.58 21.88 1.47l-6.72 7.21c-12.73 13.65-78.54 89.42-146.25 168.39l-102.38 119.39c-4.614-42.6-2.179-85.52 11.606-127.65 30.113-78.12 95.444-150.64 181.05-164.82 13.71-2.84 27.35-4.12 40.81-3.99zm72.26 14.4c12.71 5 24.98 11.21 36.67 18.45-8.38 9.82-94.96 107.13-178.93 203.4-79.54 91.18-120.43 137.53-140.24 163.69-3.929-12.2-7.549-24.51-10.749-36.9 54.769-63.4 267.64-316.34 293.25-348.64zm65.26 39.16c13.28 11.13 25.47 23.66 36.31 37.27l-8.79 8.99c-9.67 4.12-96.4 108.98-188.14 215.68-66 76.76-124.03 143.06-152.23 174.12-2.062-4.05-4.125-8.1-6.18-12.15-3.638-8.9-7.235-17.9-10.742-26.98 19.272-19.72 279.12-332.81 329.77-396.93zm62.09 76.41c12.21 22.81 20.88 47.36 25.12 72.59 11.64 51.69 6.45 103.04-6.15 153.15-11.53 14.27-73.9 90-147.67 179.28-83.28 100.79-121.18 146.24-135.43 170.15-27.9-54.54-56.13-108.91-84.13-163.4 28.76-32.38 93.06-106.39 166.91-192.23 117.09-136.1 166.25-192.19 181.35-219.54zm-22.7 99.53c-16.54 0-22.97 11.25-16.33 28.58 1.58 4.1 6.87 5.52 17.3 4.66 24.37-2.01 23.46-33.24-0.97-33.24zm-60 68c-16.54 0-22.97 11.25-16.33 28.58 1.58 4.1 6.87 5.52 17.3 4.66 24.37-2.01 23.46-33.24-0.97-33.24zm84 0c-16.54 0-22.97 11.25-16.33 28.58 1.58 4.1 6.87 5.52 17.3 4.66 24.37-2.01 23.46-33.24-0.97-33.24zm-57.35 66.11c-18.54 0.05-29.12 17.82-15.85 31.09 8.85 8.84 26.78 5.87 29.48-4.89 3.56-14.18 0.63-24.03-7.64-25.62-2.07-0.4-4.07-0.58-5.99-0.58zm-98.65 21.89c-16.54 0-22.98 11.25-16.33 28.58 1.58 4.1 6.87 5.52 17.3 4.66 24.37-2.01 23.46-33.24-0.97-33.24zm32 64c-16.54 0-22.98 11.25-16.33 28.58 1.58 4.1 6.87 5.52 17.3 4.66 24.37-2.01 23.46-33.24-0.97-33.24zm-92 12c-16.54 0-22.98 11.25-16.33 28.58 1.58 4.1 6.87 5.52 17.3 4.66 24.37-2.01 23.46-33.24-0.97-33.24zm190.17 19.07c-57.18 114.4-117.56 227.19-174.98 341.34-1.35 0.2-4.12 0.6-5.47 0.7-12.74-25.8-25.66-51.61-38.69-77.33l3.23-3.76c5.66-6.61 60.34-73.22 121.53-148.02 33.79-41.32 67.96-82.13 94.38-112.93zm-162.17 44.93c-17.47 0-24.7 15.1-13.63 28.44 10.95 13.2 29.63 5.35 29.63-12.44 0-16 0-16-16-16zm-88 8c-16.54 0-22.98 11.25-16.33 28.58 1.58 4.1 6.87 5.52 17.3 4.66 24.37-2.01 23.46-33.24-0.97-33.24zm24 62c-16.19 0-24.98 23.42-13.2 35.2 2.64 2.64 8.58 4.8 13.2 4.8 11.32 0 18-7.43 18-20 0-12.58-6.68-20-18-20z" transform="matrix(0.8 0 0 0.8 0 -.000048828)"/>
</svg>
