<?xml version="1.0" encoding="UTF-8" standalone="no"?>
<svg xmlns:rdf="http://www.w3.org/1999/02/22-rdf-syntax-ns#" xmlns="http://www.w3.org/2000/svg" height="868.9" width="634.86" version="1.1" xmlns:cc="http://creativecommons.org/ns#" xmlns:dc="http://purl.org/dc/elements/1.1/" viewBox="0 0 634.85694 868.898">
<path d="m309.31 0l-84 84v16l48 48h20v-20l-36-36 60-60 60 60-36 36v20h20l48-48v-16l-84-84h-16zm-64 164v56h144v-56h-144zm16 8h12v36h-12v-36zm60.74 62.06a317.43 317.43 0 0 0 -229.09 92.94 317.43 317.43 0 0 0 0.001 448.92 317.43 317.43 0 0 0 448.92 0 317.43 317.43 0 0 0 0 -448.92 317.43 317.43 0 0 0 -219.83 -92.94zm7.04 122.29l21.47 52.91 9.72-34.15 14.01 3.99-9.47 33.26 45.2-32.96 8.59 11.78-60.28 43.97-10.17 35.71c1.04-0.91 2.1-1.8 3.2-2.64 16.42-2.82 33.13-4.53 49.68-6.59 3.57-0.8 9.07-2.25 10.92 2.13-1.82 18.96-5.83 37.72-8.54 56.6-0.95 1.45-2.02 2.8-3.17 4.09l35.92-9.01 45.82-58.87 11.51 8.97-34.35 44.13 33.54-8.42 3.55 14.12-34.44 8.66 52.2 23.13-5.9 13.32-69.27-30.68-36.29 9.11c1.8 0.58 3.58 1.21 5.32 1.93 10.79 13.13 20.83 26.97 31.14 40.53 2.77 2.36 5.81 7.03 2.48 10.23-17.41 7.16-35.21 13.55-52.78 20.41-1.74-0.11-3.45-0.38-5.16-0.74l25.73 26.56 73.89 10.25-2.01 14.45-55.39-7.7 24.07 24.84-10.47 10.15-24.73-25.51 6.1 56.79-14.51 1.54-8.07-75.34-25.98-26.81c0.37 1.61 0.71 3.23 1.03 4.86-5.47 15.96-12.75 31.3-19.19 46.92-1.09 3.51-2.55 9.01-7.31 8.42-15.48-11.1-29.7-23.95-44.73-35.69-0.8-1.58-1.45-3.22-2-4.9l-10.14 35.61 28.07 69.12-13.51 5.49-21.05-51.82-9.47 33.26-14.02-3.99 9.73-34.15-46.12 33.66-8.59-11.79 61.19-44.65 10.2-35.8c-1.21 1.13-2.45 2.23-3.71 3.3-16.63 3.24-33.6 4.62-50.38 6.89-3.51 0.73-8.82 2.09-10.66-2.12 1.72-18.99 5.82-37.79 8.51-56.69 1.22-1.88 2.64-3.58 4.17-5.21l-36.19 9.09-46.54 59.79-11.49-8.94 35.06-45.07-34.44 8.66-3.55-14.14 33.54-8.43-51.12-22.64 5.9-13.34 68.2 30.21 35.92-9.02c-1.31-0.45-2.6-0.92-3.89-1.44-10.81-13.1-20.83-26.98-31.15-40.53-2.77-2.36-5.82-7.03-2.49-10.23 17.41-7.18 35.22-13.53 52.79-20.39 2.24 0.14 4.45 0.53 6.64 1.06l-26.02-26.84-75.05-10.42 2-14.43 56.57 7.84-24.73-25.5 10.47-10.13 24.08 24.82-5.96-55.6 14.49-1.57 7.96 74.18 25.75 26.58c-0.25-1.11-0.48-2.22-0.7-3.33 4.73-14.13 11.29-27.71 16.84-41.52 2.65-4.5 2.76-10.65 7.26-13.89 0.65-0.24 1.38-0.29 2.06-0.16 15.62 11.11 29.93 24.1 45.06 35.91 1.01 1.94 1.78 3.98 2.41 6.06l10.2-35.82-28.5-70.19 13.52-5.49zm-36.87 99.45c-3.72 8.18-6.86 16.63-10.82 24.66-3.04 4.87 0.32 10.33 1.33 15.32 0.46 4.99 3.49 9.53 3.03 14.6l6.68 6.89 21.15 21.82 8.2-28.82 2.56-8.98c-0.44-0.26-0.86-0.55-1.27-0.91-2.4-8.26-4.2-16.8-6.46-25.14-6.16-4.97-12.37-9.88-18.57-14.81-1.94-1.54-3.88-3.09-5.83-4.63zm96.78 27.5c-5.11 0.59-10.24 1.19-15.35 1.78-5.02 0.99-10.2 0.86-15.17 1.87-5.51 4.48-10.6 9.7-15.61 14.8-0.92 1.79-2.59 2.95-4.44 3.29l-2.63 9.22-8.09 28.44 28.66-7.22 9.33-2.34c0.07-0.32 0.17-0.64 0.3-0.97 5.97-6.1 12.35-11.93 18.43-18 1.54-10.29 3.07-20.58 4.58-30.87h-0.01zm-139.96 31.14c-9.76 3.7-19.43 7.5-29.13 11.35l9.86 13.26c3.23 3.66 5.44 8.08 8.76 11.55 6.79 2.45 13.95 4.32 20.94 6.1 1.83-0.19 3.46 0.65 4.55 1.99l9.34-2.35 29.47-7.4-20.85-21.52-6.68-6.9c-0.3 0.22-0.59 0.44-0.9 0.64-8.57-1.39-16.91-4.62-25.36-6.72zm119.96 32.89l-9.06 2.28-29.07 7.3 21.16 21.82 6.72 6.95c0.15-0.08 0.29-0.16 0.46-0.22 8.51 1.82 16.9 4.81 25.35 6.97 9.67-3.79 19.33-7.63 28.98-11.46-3.28-4.41-6.55-8.83-9.83-13.25-3.31-3.65-5.42-8.25-8.94-11.67-6.72-2.16-13.61-4.32-20.55-5.92-2.28 0.25-4.12-1-5.22-2.79v-0.01zm-62.21 15.63l-29.88 7.51-9.13 2.29c0 0.47-0.02 0.94-0.11 1.42-5.79 6.38-12.45 12.1-18.53 18.28-1.68 10.32-3.14 20.65-4.68 30.99 9.05-1.09 18.09-2.14 27.13-3.13 5.67-0.03 8.66-5.63 12.49-8.95 4.03-2.81 6.43-7.62 10.95-9.69 0.22 0.06 0.46 0.12 0.69 0.15l2.63-9.24 8.44-29.62v-0.01zm13.9 4.38l-8.33 29.24-2.68 9.42c0.11 0.07 0.23 0.1 0.34 0.17 3.02 8.16 4.39 17.01 6.81 25.43 8.1 6.5 16.3 12.91 24.43 19.38 4.1-9.25 7.85-18.67 12.12-27.82-0.88-7.13-3.04-14.24-5.01-21.2-1.17-1.96-1.37-4.43-0.33-6.38l-6.49-6.7-20.86-21.54z" transform="translate(-.00079346)"/>
</svg>
