<?xml version="1.0" encoding="UTF-8" standalone="no"?>
<svg xmlns:rdf="http://www.w3.org/1999/02/22-rdf-syntax-ns#" xmlns="http://www.w3.org/2000/svg" height="868.9" width="634.86" version="1.1" xmlns:cc="http://creativecommons.org/ns#" xmlns:dc="http://purl.org/dc/elements/1.1/" viewBox="0 0 634.85694 868.89843">
<path d="m309.31 0l-84 84v16l48 48h20v-20l-36-36 60-60 60 60-36 36v20h20l48-48v-16l-84-84h-16zm-64 164v56h144v-56h-144zm16 8h12v36h-12v-36zm56.12 62.04a317.43 317.43 0 0 0 -317.43 317.44 317.43 317.43 0 0 0 163.51 277.48c-28.99-81.48-5.45-190.56 66.68-236.23v0.02c55.79 11.49 114.02 8.49 170.1 0.24 73.38 45.44 96.12 156.4 66.21 238.43a317.43 317.43 0 0 0 168.34 -279.94 317.43 317.43 0 0 0 -317.41 -317.44zm14.72 47.65c14.66-0.01 29.3 0.25 43.93 1.06 0.85 33.5 0.81 67.08-0.16 100.58-39.02 0.29-78.16 2.04-117.18-0.12-0.85-33.54-0.85-67.08 0.16-100.58 24.39-0.17 48.83-0.93 73.25-0.94zm11.13 113.99c5.58 0 11.16 0.01 16.75 0.03l-0.02-0.01c14.88 0.05 29.77 0.17 44.66 0.43v8.07c-59.53-0.49-119.1 0.65-178.59-0.36v-8.09c39.07 0.32 78.14-0.06 117.2-0.07zm31.17 19.85c31.06 36.75 24.94 100.7-17.69 125.99-26.4 1.38-52.96 1.8-79.27-0.36-46.33-18.88-56.15-95.51-15.91-124.78 37.64-0.45 75.27-0.56 112.87-0.85zm-90.96 17.79c-3.09 0.13-6.76 1.18-11.07 3.41-16.24 8.89-5.89 46.86 17.62 32.52 9.83-10.55 10.15-36.62-6.55-35.93zm69.04 0c-3.1 0.13-6.77 1.18-11.08 3.41-16.24 8.89-5.89 46.86 17.62 32.52 9.83-10.55 10.16-36.62-6.54-35.93zm3.9 71.54c-24.94 12.99-53.64 16.41-78.09 0.17 14.1 29.35 64.28 29.39 78.09-0.17zm-34.11 48.65c2.71-0.02 5.41-0.02 8.12 0 12.99 0.11 25.94 0.79 38.75 2.52 13.92 1.5 17.49 24.36 2.51 26.59-36.95 5.28-76.09 8.65-112.72-0.2-17.05-3.17-9.17-28.42 6.54-27.04 18.81-0.6 37.83-1.73 56.8-1.87zm-0.2 85.28c-7.04 0-14.44 1.24-20.3 1.17-18.03 7.38-9.74 30.77-8.81 44.82 3.29 18.92 27.85 10.28 39.91 11.33 15.68-8.89 10.48-31.47 10.56-45.76-3.84-9.5-12.3-11.55-21.36-11.56zm2.83 105.54c-7.9 0.15-16.74 2.82-23.05 1.08-10.19 5.04-11.37 17.95-11.33 28.02-10.88 32.69 39.27 39.55 52.95 18.72 1.18-13.93 2.03-29.2-4.47-41.91-3.09-4.4-7.57-5.76-12.54-5.91v0.01c-0.52-0.02-1.04-0.02-1.56-0.01zm-161.08 84.85a317.43 317.43 0 0 0 20.97 10.31 317.43 317.43 0 0 1 -20.97 -10.31zm28.68 14.03a317.43 317.43 0 0 0 19.13 7.13 317.43 317.43 0 0 1 -19.13 -7.13zm29.94 11.08a317.43 317.43 0 0 0 16.8 4.42 317.43 317.43 0 0 1 -16.8 -4.42zm30.92 8.02a317.43 317.43 0 0 0 13.99 2.21 317.43 317.43 0 0 1 -13.99 -2.21zm31.58 4.87a317.43 317.43 0 0 0 10.96 0.62 317.43 317.43 0 0 1 -10.96 -0.62z" transform="translate(-.00094604)"/>
</svg>
