<?xml version="1.0" encoding="UTF-8" standalone="no"?>
<svg xmlns:rdf="http://www.w3.org/1999/02/22-rdf-syntax-ns#" xmlns="http://www.w3.org/2000/svg" height="896.31pt" width="439.98pt" version="1.1" xmlns:cc="http://creativecommons.org/ns#" xmlns:dc="http://purl.org/dc/elements/1.1/" viewBox="0 0 439.97873 896.30865">
<path d="m278.67 0c-3.18-0.01545-6.46 0.2707-9.82 0.88477-49.73 2.25-68.7 66.787-35.25 99.935-35.09 5.86-12.28 53.84-18.72 79.05-0.23 0.04-0.44 0.07-0.67 0.11-108.3 31.58-199.76 126.87-212.58 241.02-12.83 143.13 52.534 276.37 115.76 400.01 52.72 99.11 106.95 197.49 154.5 299.19 7.8 1.5 8.85-7.9 12.22-12.7 62.96-133.64 139.24-260.58 201.41-394.64 37.35-88.65 73.01-182.44 62.63-280.54-5.44-119.17-101.17-219.6-212.4-252.41-0.23-0.03-0.44-0.06-0.68-0.1-6.56-25.13 16.12-73.02-18.82-78.99 36.77-32.939 10.2-100.59-37.58-100.82zm-3.01 13.371c24.73 0.541 48.77 19.725 44.42 46.576 3.75 42.303-61.25 48.373-84.5 23.326-13.65-23.512-5.51-61.016 23.71-67.353 4.52-1.594 9.24-2.414 13.98-2.543 0.79-0.022 1.59-0.023 2.39-0.006zm1.6 198.02c68.47 0.67 132.11 37.91 174.59 91.78-10.51 11.57-21.9 24.24-22.52 24.37-1.15 0.23-52.91-24.88-53.7-24.01-0.8 0.86 28.54 50.34 28.41 51.51-0.14 1.17-40.01 42.63-39.43 43.65 0.58 1.03 56.7-11.59 57.77-11.1s28.18 51.22 29.33 50.99 6.5-57.51 7.29-58.37c0.43-0.47 17.02-3.61 32.3-6.6 4.77 13.13 8.39 26.64 10.69 40.34 20.88 92.77-12.38 184.42-45.53 269.77-58.39 117.23-120.3 232.69-179.1 349.58-1.35 0.2-4.12 0.6-5.47 0.7-57.08-115.87-117.72-229.94-176.14-345.14-3.217-7.87-6.395-15.82-9.514-23.84 15.264 3.25 31.894 6.67 32.314 7.15 0.78 0.87 5.2 58.22 6.35 58.47 1.15 0.26 29.07-50.03 30.15-50.51 1.08-0.47 56.99 13.04 57.58 12.03 0.6-1.02-38.61-43.11-38.72-44.28-0.12-1.17 30.01-50.17 29.23-51.05s-52.93 23.4-54.08 23.15-38.44-44.05-39.52-43.58c-1.07 0.47 5.9 57.57 5.31 58.59-0.36 0.6-19.063 8.5-34.305 15.12-32.266-86.38-54.587-179.94-25.149-269.91 30.113-78.12 95.444-150.64 181.05-164.82 13.71-2.84 27.35-4.12 40.81-3.99zm188.29 110.88c6.21 9.52 11.79 19.43 16.66 29.65-9.91-4.46-18.69-8.43-18.91-8.83-0.23-0.4 0.93-10 2.25-20.82zm-116.59 52.56c-1.17-0.1-22.04 53.51-23.04 54.12-1.01 0.62-58.23-5.22-58.68-4.13-0.45 1.08 44.08 37.49 44.35 38.64 0.27 1.14-22.96 53.76-22.07 54.53 0.9 0.76 49.29-30.34 50.46-30.24 1.17 0.09 44.04 38.45 45.04 37.83 1-0.61-13.62-56.24-13.17-57.33s50.18-30 49.9-31.14c-0.27-1.15-57.7-4.43-58.59-5.2-0.89-0.76-13.03-56.99-14.2-57.08zm-71.59 99.91c-1.06-0.5-39.38 42.41-40.53 42.63-1.16 0.23-52.71-25.27-53.52-24.41-0.8 0.86 28.17 50.55 28.02 51.72-0.14 1.17-40.32 42.33-39.75 43.36s56.78-11.17 57.85-10.67c1.06 0.5 27.79 51.43 28.94 51.21 1.16-0.23 6.93-57.46 7.74-58.32 0.8-0.86 57.5-10.54 57.64-11.7 0.15-1.17-52.5-24.35-53.07-25.38s7.75-57.94 6.68-58.44z" transform="matrix(0.8 0 0 0.8 0 -.000048828)"/>
</svg>
