<?xml version="1.0" encoding="UTF-8" standalone="no"?>
<svg xmlns:rdf="http://www.w3.org/1999/02/22-rdf-syntax-ns#" xmlns="http://www.w3.org/2000/svg" height="868.9" width="634.86" version="1.1" xmlns:cc="http://creativecommons.org/ns#" xmlns:dc="http://purl.org/dc/elements/1.1/" viewBox="0 0 634.85694 868.898">
<path d="m322.06 234.07a317.43 317.43 0 0 0 -206.04 72.09h402.36a317.43 317.43 0 0 0 -196.32 -72.09zm196.33 72.102a317.43 317.43 0 0 1 23.486 20.84 317.43 317.43 0 0 1 0.0703 0.0723 317.43 317.43 0 0 0 -0.0684 -0.0742 317.43 317.43 0 0 0 -23.488 -20.838zm-425.46 20.89a317.43 317.43 0 0 0 -20.699 23.32 317.43 317.43 0 0 1 20.699 -23.32zm459.72 11.85a317.43 317.43 0 0 1 16.061 19.141 317.43 317.43 0 0 0 -16.061 -19.141zm-486.43 19.14a317.43 317.43 0 0 0 -32.391 51.711h567.34a317.43 317.43 0 0 1 0.10938 0.23047 317.43 317.43 0 0 0 -32.562 -51.941h-502.49zm-32.395 51.721a317.43 317.43 0 0 0 -11.787 26.551 317.43 317.43 0 0 1 11.787 -26.551zm572.37 10.795a317.43 317.43 0 0 1 11.145 28.117h-600.02a317.43 317.43 0 0 0 -17.008 106.05 317.43 317.43 0 0 1 0.04738 -12.89h633.96a317.43 317.43 0 0 0 -1.8438 -26.453h-630.4a317.43 317.43 0 0 1 4.2794 -25.95h622.21a317.43 317.43 0 0 1 3.8594 25.631 317.43 317.43 0 0 0 -26.238 -94.498zm28.369 128.12a317.43 317.43 0 0 1 0.21289 6.1191h-634.46a317.43 317.43 0 0 0 4.0005 46.9 317.43 317.43 0 0 1 -2.7011 -19.85h631.55a317.43 317.43 0 0 1 -3.7109 25.945h-624.3a317.43 317.43 0 0 0 25.782 79.44 317.43 317.43 0 0 1 -15.401 -38.69h604.05a317.43 317.43 0 0 0 14.975 -99.861zm-15.002 99.965a317.43 317.43 0 0 1 -1.1289 3.2559 317.43 317.43 0 0 0 1.1289 -3.2559zm-5.625 15.035a317.43 317.43 0 0 1 -10.051 23.783 317.43 317.43 0 0 0 10.051 -23.783zm-10.051 23.783h-572.84a317.43 317.43 0 0 0 30.896 51.703 317.43 317.43 0 0 0 0.002 0h511.17a317.43 317.43 0 0 0 30.773 -51.703zm-541.94 51.74a317.43 317.43 0 0 0 17.131 21.373 317.43 317.43 0 0 1 -17.131 -21.373zm499.4 14.982a317.43 317.43 0 0 1 -19.469 21.736 317.43 317.43 0 0 1 -16.742 15.148h-415.91a317.43 317.43 0 0 0 432.65 -15.145 317.43 317.43 0 0 0 19.467 -21.74zm-468.62 21.49a317.43 317.43 0 0 0 0.23047 0.25586 317.43 317.43 0 0 0 11.711 10.91 317.43 317.43 0 0 1 -11.707 -10.914 317.43 317.43 0 0 1 -0.23437 -0.25196zm216.57-775.67l-84 84v16l48 48h20v-20l-36-36 60-60 60 60-36 36v20h20l48-48v-16l-84-84h-16zm-64 164v56h144v-56h-144zm16 8h12v36h-12v-36z"/>
</svg>
