<?xml version="1.0" encoding="UTF-8" standalone="no"?>
<svg xmlns:rdf="http://www.w3.org/1999/02/22-rdf-syntax-ns#" xmlns="http://www.w3.org/2000/svg" height="896.31pt" width="439.98pt" version="1.1" xmlns:cc="http://creativecommons.org/ns#" xmlns:dc="http://purl.org/dc/elements/1.1/" viewBox="0 0 439.97873 896.30865">
<path d="m278.67 0c-3.18-0.01575-6.46 0.27051-9.82 0.88477-49.73 2.25-68.7 66.787-35.25 99.935-35.09 5.86-12.28 53.84-18.72 79.05-0.23 0.04-0.44 0.07-0.67 0.11-108.3 31.58-199.76 126.87-212.58 241.02-12.828 143.13 52.536 276.37 115.76 400.02 52.73 99.11 106.95 197.48 154.5 299.18 7.8 1.5 8.85-7.8 12.23-12.7 62.96-133.63 139.23-260.57 201.41-394.63 37.35-88.65 73.01-182.44 62.62-280.54-5.44-119.18-101.17-219.6-212.4-252.41-0.23-0.04-0.44-0.07-0.67-0.1-6.57-25.13 16.12-73.03-18.83-79 36.77-32.936 10.2-100.59-37.58-100.82zm-3.01 13.371c24.74 0.542 48.77 19.727 44.42 46.578 3.75 42.301-61.24 48.371-84.49 23.326-13.65-23.512-5.51-61.018 23.7-67.355 4.52-1.594 9.25-2.414 13.98-2.543 0.8-0.022 1.59-0.023 2.39-0.006zm1.6 198.02c0.49 0 0.98 0.02 1.46 0.03l-207.82 411.69c-7.944-23.42-14.875-47.27-19.99-71.35l167.86-332.54c5.79-1.54 11.69-2.83 17.68-3.82 13.71-2.85 27.35-4.13 40.81-4v-0.01zm53.46 7.98c16.05 4.65 31.53 11.23 46.21 19.42l-254.04 503.23c-9.08-17.7-18.14-35.41-27.14-53.15-0.304-0.74-0.603-1.49-0.906-2.24l235.88-467.26zm-187.53 38.63l-101.36 200.78c0.881-26.32 5.064-52.6 13.565-78.58 17.885-46.38 48.195-90.8 87.795-122.2zm275.05 9.9c13.39 11.64 25.61 24.7 36.39 38.87l-275.14 545.05-28.32-54.87 267.07-529.05zm66.66 89.86c8.02 18.02 13.85 36.91 17.09 56.19 1.13 5.04 2.1 10.08 2.92 15.11l-269.02 532.93c-9.33-18.43-18.71-36.84-28.13-55.22l277.14-549.01zm14.89 192.4c-9.8 45.68-26.58 90.43-43.33 133.57-58.39 117.22-120.3 232.68-179.1 349.57-1.35 0.2-4.12 0.6-5.47 0.7-2.69-5.4-5.39-10.9-8.1-16.3l236-467.54z" transform="matrix(0.8 0 0 0.8 -.00031738 0)"/>
</svg>
