<?xml version="1.0" encoding="UTF-8" standalone="no"?>
<svg xmlns:rdf="http://www.w3.org/1999/02/22-rdf-syntax-ns#" xmlns="http://www.w3.org/2000/svg" height="868.56" viewBox="0 0 634.12128 868.56377" width="634.12" version="1.1" xmlns:cc="http://creativecommons.org/ns#" xmlns:dc="http://purl.org/dc/elements/1.1/">
<path d="m321.68 234.08a317.43 317.43 0 0 0 -13.438 0.47656c9.474 23.379 28.338 42.983 52.797 50.562 23.986 8.2198 51.295 6.4095 73.875-5.1875 5.2625-1.2626 8.3714 1.0491 9.6328 4.4453 1.758-4.1243 3.8397-8.1356 6.3672-11.945 1.3647-2.1688 2.8698-4.2419 4.4453-6.2578a317.43 317.43 0 0 0 -16.055 -7.375c-21.146 15.381-49.522 20.996-74.234 11.172-17.174-6.2658-31.481-19.476-39.766-35.656a317.43 317.43 0 0 0 -3.625 -0.23436zm-13.438 0.47656a317.43 317.43 0 0 0 -30.93 2.3672 317.43 317.43 0 0 1 30.93 -2.3672zm38.688 1.1562c9.9373 12.716 25.063 21.393 41.492 21.609 10.495 0.57506 20.886-1.8307 30.25-6.4062a317.43 317.43 0 0 0 -71.742 -15.203zm-79.086 2.5a317.43 317.43 0 0 0 -23.812 4.75c27.175 11.503 46.48 40.403 44.109 70.211-1.3576 26.279-19.45 51.508-45.25 58.586-23.931 7.4097-53.076-1.2218-66.062-23.438-12.497-19.959-10.326-49.413 8.7422-64.586 17.324-14.787 48.435-12.975 59.945 8.1797 8.0115 13.773 3.8605 35.475-12.469 40.906-11.793 4.9906-29.39-6.7186-22.938-19.891 4.8365-9.0108 15.828-2.204 19.25 0.95313 8.0758-8.3852-2.3716-21.751-12.352-22.258-17.2-2.8801-33.115 14.138-30.734 31.094 1.4946 21.775 24.287 38.511 45.539 33.797 23.709-3.7778 41.945-27.519 38.938-51.43-2.2089-26.857-25.979-50.414-53.234-50.773-4.7371-0.25956-9.4406 0.14396-14.055 1.0156a317.43 317.43 0 0 0 -0.0156 0 317.43 317.43 0 0 0 -26.609 11.711c-0.003 0.002-0.005 0.006-0.008 0.008a317.43 317.43 0 0 0 -0.0156 0.008c-14.208 10.474-24.37 26.413-25.781 44.328-4.6169 37.138 24.21 75.302 61.758 79.414 39.526 5.989 81.539-21.824 89.5-61.422 8.0046-33.656-6.8485-70.943-34.445-91.164zm-91.031 28.844a317.43 317.43 0 0 0 -24.742 13.672 317.43 317.43 0 0 1 24.742 -13.672zm67.203-24.086a317.43 317.43 0 0 0 -28.555 8.1719 317.43 317.43 0 0 1 28.555 -8.1719zm227.45 31.266c-8.6632 9.6733-14.499 21.782-15.539 34.992-4.6169 37.138 24.21 75.294 61.758 79.406 21.52 3.2607 43.731-3.5503 60.828-16.773a317.43 317.43 0 0 0 -9.7266 -13.188c-6.136 4.9745-13.21 8.7848-21 10.922-23.931 7.4097-53.077-1.214-66.063-23.43-11.821-18.88-10.494-46.237 5.8203-61.984a317.43 317.43 0 0 0 -16.078 -9.9453zm-154.41 3.6719c1.7733 5.558 3.0667 11.281 3.7891 17.141 1.0966 7.3241 1.3263 14.77 0.75 22.156 1.8498-2.6595 4.8066-4.4613 8.8047-3.9766 11.528-4.7855 23.878-7.4982 36.336-8.1953-18.598-4.2898-35.811-13.956-49.68-27.125zm-170.27 5.9531a317.43 317.43 0 0 0 -8.1641 5.2812 317.43 317.43 0 0 1 8.1641 -5.2812zm340.87 0.39064a317.43 317.43 0 0 1 15.273 10.102 317.43 317.43 0 0 0 -15.273 -10.102zm-349.07 4.9219a317.43 317.43 0 0 0 -9.0859 6.6953 317.43 317.43 0 0 0 -3 2.2109 317.43 317.43 0 0 0 -22.875 18.961c7.4439 1.3903 14.76 3.4388 21.758 6.3437 3.6755-0.44559 6.4674 1.0459 8.3359 3.3516-1.1793-12.736 0.30836-25.636 4.8672-37.562zm364.35 5.1875c-8.0391 5.9128-13.191 16.053-11.766 26.203 1.4945 21.775 24.287 38.504 45.539 33.789 7.7659-1.2374 14.916-4.6512 20.953-9.4766a317.43 317.43 0 0 0 -14.94 -16.51c-1.4645 0.92004-3.0397 1.7176-4.7812 2.2969-11.793 4.9906-29.398-6.7264-22.945-19.898 1.0716-1.9964 2.4573-3.1813 3.9844-3.8359a317.43 317.43 0 0 0 -16.05 -12.57zm16.047 12.57a317.43 317.43 0 0 1 22.523 20.086 317.43 317.43 0 0 0 -22.523 -20.086zm-78.773-8.9688c-1.6357 1.0202-3.6314 1.5615-6.0078 1.2734-11.533 4.7875-23.888 7.4996-36.352 8.1953 14.878 3.428 28.89 10.278 41.008 19.617-1.1695-9.7278-0.7696-19.583 1.3516-29.086zm-69.359 24.344c-14.259 0.28508-28.455 3.7033-41.156 10.227-5.2249 1.2536-8.3302-1.0111-9.6094-4.3672-5.3119 28.278-22.341 54.411-48.031 68.148-4.4302 2.5253-9.0797 4.6582-13.875 6.4219 8.9815 1.3138 17.808 3.667 26.195 7.1484 3.3648-0.40792 6.0097 0.79188 7.8672 2.7656 1.0135-13.13 4.9852-25.974 12.445-37.219 19.277-30.634 60.615-46.537 94.844-32.93 28.838 10.522 49.735 40.548 47.273 71.508-1.3576 26.279-19.45 51.508-45.25 58.586-23.931 7.4097-53.076-1.214-66.062-23.43-12.497-19.959-10.326-49.413 8.7422-64.586 17.324-14.787 48.435-12.975 59.945 8.1797 8.0115 13.773 3.8605 35.475-12.469 40.906-11.793 4.9906-29.39-6.7264-22.938-19.898 4.8366-9.0108 15.828-2.1962 19.25 0.96092 8.0758-8.3852-2.3716-21.751-12.352-22.258-17.2-2.8801-33.115 14.138-30.734 31.094 1.4945 21.776 24.295 38.504 45.547 33.789 23.709-3.7778 41.937-27.519 38.93-51.43-2.2089-26.857-25.979-50.414-53.234-50.773-32.361-1.7731-63.913 24.428-66.484 57.078-4.6169 37.138 24.21 75.294 61.758 79.406 39.526 5.989 81.539-21.816 89.5-61.414 10.009-42.086-15.66-89.936-57.391-102.87-10.494-3.5961-21.62-5.2686-32.711-5.0469zm-283.44 10.27a317.43 317.43 0 0 0 -13.984 15.797c29.945-3.6719 61.535 11.574 77.672 37.219 9.6976 14.617 13.608 31.923 12.609 49.07 11.841-12.281 26.504-21.874 42.57-27.484-17.215-3.1596-33.448-11.01-45.961-23.742-12.39-12-20.937-27.872-24.773-44.75-1.3648 3.1497-4.4136 5.2151-9.4453 4.0078-11.965-6.1454-25.258-9.506-38.68-10.117a317.43 317.43 0 0 0 -0.008 0zm470.31 12.37a317.43 317.43 0 0 1 11.055 13.727 317.43 317.43 0 0 0 -11.055 -13.727zm-484.34 3.4844a317.43 317.43 0 0 0 -17.875 23.477 317.43 317.43 0 0 1 17.875 -23.477zm-17.875 23.477a317.43 317.43 0 0 0 -29.32 52.555c1.5534 20.83 18.189 39.72 39.117 43.055 21.252 4.7146 44.045-12.021 45.539-33.797 2.3811-16.956-13.534-33.974-30.734-31.094-9.98 0.5068-20.427 13.873-12.352 22.258 3.4223-3.1571 14.421-9.9639 19.258-0.95312 6.4526 13.172-11.152 24.889-22.945 19.898-16.329-5.431-20.48-27.141-12.469-40.914 6.4748-11.899 19.15-17.681 32.086-17.828 10.061-0.11476 20.28 3.1793 27.859 9.6484 19.068 15.172 21.239 44.635 8.7422 64.594-12.986 22.216-42.132 30.839-66.062 23.43-16.771-4.601-30.253-16.89-38.031-32.133a317.43 317.43 0 0 0 -6.0938 21.422c13.109 16.016 32.543 27.014 53.102 29.812 7.4117-0.90708 14.927-0.99704 22.336-0.2344 36.95-4.794 65.114-42.507 60.547-79.242-2.5716-32.65-34.123-58.843-66.484-57.07-8.564 0.11304-16.779 2.5176-24.094 6.5938zm523.01-0.0236a317.43 317.43 0 0 1 9.5078 15.008 317.43 317.43 0 0 0 -9.5078 -15.008zm9.5703 15.102c-3.5153 2.6463-7.2164 5.0693-11.148 7.1719-4.4302 2.5253-9.0796 4.666-13.875 6.4297 8.9815 1.3137 17.808 3.667 26.195 7.1484 3.3648-0.40792 6.0097 0.79188 7.8672 2.7656 0.1756-2.2767 0.47968-4.5367 0.83596-6.7891a317.43 317.43 0 0 0 -9.875 -16.727zm-109.1 5.3986c0.1896 1.1669 0.3704 2.3382 0.5156 3.5156 1.3139 8.7751 1.3222 17.708 0.25 26.523 9.4505-7.4695 20.074-13.439 31.414-17.398-11.442-2.1-22.41-6.3394-32.18-12.641zm69.828 24.422c-11.091-0.2216-22.217 1.4585-32.711 5.0547-41.73 12.931-67.4 60.774-57.391 102.86 7.9615 39.598 49.974 67.411 89.5 61.422 37.547-4.1125 66.375-42.276 61.758-79.414-2.5716-32.65-34.123-58.843-66.484-57.07-27.256 0.3596-51.025 23.916-53.234 50.773-3.0073 23.911 15.22 47.652 38.93 51.43 21.252 4.7146 44.052-12.021 45.547-33.797 2.381-16.956-13.534-33.974-30.734-31.094-9.98 0.5068-20.427 13.873-12.352 22.258 3.4224-3.1571 14.413-9.9639 19.25-0.95312 6.4526 13.172-11.144 24.889-22.938 19.898-16.329-5.431-20.48-27.141-12.469-40.914 11.511-21.154 42.621-22.966 59.945-8.1797 19.068 15.172 21.239 44.635 8.7422 64.594-12.986 22.216-42.132 30.839-66.062 23.43-25.8-7.0782-43.892-32.307-45.25-58.586-2.4619-30.96 18.435-60.986 47.273-71.508 30.339-12.061 66.226-0.90764 87.422 23.109-5.5931-10.62-9.0968-22.344-10.258-34.266-1.6906 1.3467-4.0848 1.9657-7.3281 1.1875-12.701-6.5233-26.897-9.9492-41.156-10.234zm-304.89 2.164c-11.091-0.2216-22.217 1.4508-32.711 5.0469-41.73 12.931-67.4 60.781-57.391 102.87 7.9615 39.598 49.974 67.403 89.5 61.414 37.547-4.1125 66.375-42.268 61.758-79.406-2.5716-32.65-34.123-58.851-66.484-57.078-27.256 0.3596-51.025 23.916-53.234 50.773-3.0073 23.911 15.228 47.652 38.938 51.43 21.252 4.7146 44.045-12.014 45.539-33.789 2.381-16.956-13.534-33.974-30.734-31.094-9.98 0.50676-20.427 13.873-12.352 22.258 3.4224-3.1571 14.413-9.9717 19.25-0.96092 6.4526 13.172-11.144 24.889-22.938 19.898-16.329-5.4311-20.48-27.133-12.469-40.906 11.511-21.154 42.621-22.966 59.945-8.1797 19.068 15.172 21.239 44.627 8.7422 64.586-12.986 22.216-42.132 30.839-66.062 23.43-25.8-7.0782-43.892-32.307-45.25-58.586-2.462-30.96 18.435-60.986 47.273-71.508 30.336-12.06 66.217-0.90916 87.414 23.102-5.5889-10.617-9.0895-22.342-10.25-34.258-1.6906 1.3467-4.0848 1.9657-7.3281 1.1875-12.701-6.5234-26.897-9.9414-41.156-10.227zm365.05 8.4219a317.43 317.43 0 0 1 8.5078 22.82 317.43 317.43 0 0 0 -8.5078 -22.82zm10.477 28.469a317.43 317.43 0 0 1 7.7188 29.352 317.43 317.43 0 0 0 -7.7188 -29.352zm-609.36 16.21a317.43 317.43 0 0 0 -6.2891 30.422 317.43 317.43 0 0 1 6.2891 -30.422zm609.04 5.0391c4.8166 9.4092 7.4884 19.649 8.289 30.078 0.95224-0.7694 2.0653-1.3399 3.3203-1.6719a317.43 317.43 0 0 0 -3.5469 -20.219c-1.1368-1.0265-2.2539-2.0786-3.3359-3.1797-1.6506-1.5986-3.2145-3.2784-4.7266-5.0078zm11.609 28.406a317.43 317.43 0 0 1 2.5859 19.102 317.43 317.43 0 0 0 -2.5859 -19.102zm2.5859 19.102c-2.5951 0.5688-4.6666 0.2792-6.2344-0.60156-1.2782 11.191-4.6085 22.174-9.7969 32.195 4.8995-5.285 10.548-9.8674 16.664-13.711a317.43 317.43 0 0 0 -0.63284 -17.883zm-319.1-45.35c6.3386 12.378 9.0066 26.187 8.5 39.977 3.7721-2.9118 7.7796-5.5426 12.039-7.8203 5.0927-2.903 10.493-5.2451 16.055-7.1406-11.869-4.1764-22.833-10.815-31.859-20-1.652-1.6-3.2212-3.2846-4.7344-5.0156zm125.83 11.984c-2.9916 2.135-6.0811 4.1532-9.3594 5.9062-5.0953 2.9044-10.498 5.2446-16.062 7.1406 9.1926 3.2338 17.819 7.9749 25.445 14.203-1.2422-9.0398-1.2914-18.223-0.024-27.25zm-305.2 4.9844c-5.8206 5.5362-12.359 10.07-19.391 13.633 7.2659 3.4156 14.034 7.876 20.094 13.336-1.4518-8.9156-1.6903-18.003-0.70313-26.969zm-119.15 5.1719c0.89049 6.343 1.1136 12.767 0.75 19.164 3.44-2.5674 7.0415-4.9422 10.875-6.9922 1.6297-0.92896 3.3151-1.7518 5-2.5781-2.4734-1.13-4.9049-2.3418-7.2656-3.6875-3.2783-1.753-6.3678-3.7712-9.3594-5.9062zm-12.07 2.1172a317.43 317.43 0 0 0 -3.1481 30.15 317.43 317.43 0 0 1 3.1406 -30.14zm377.62 12.625c-26.673 0.68832-52.638 15.654-66.875 38.109-1.641 3.5952-3.4821 7.0835-5.5703 10.43-1.8655 4.3633-3.3285 8.9254-4.2812 13.664-10.01 42.086 15.66 89.928 57.391 102.86 23.986 8.2198 51.295 6.4173 73.875-5.1797 1.9009-0.456 3.515-0.43332 4.875-0.078 7.631-34.668 34.547-63.805 67.641-76.078-6.7406-2.0296-13.262-4.7432-19.359-8.2188-5.7515-3.0756-11.021-6.8292-15.875-11.031 1.7666 18.261-1.933 36.91-12.281 52.508-19.277 30.634-60.615 46.545-94.844 32.937-28.838-10.522-49.735-40.556-47.273-71.516 1.3576-26.279 19.45-51.508 45.25-58.586 23.931-7.4097 53.076 1.2218 66.062 23.438 12.497 19.959 10.326 49.413-8.7422 64.586-17.324 14.787-48.435 12.975-59.945-8.1797-8.0115-13.773-3.8605-35.475 12.469-40.906 11.793-4.9906 29.398 6.7264 22.945 19.898-4.8366 9.0108-15.835 2.1961-19.258-0.96096-8.0758 8.3851 2.3716 21.751 12.352 22.258 17.2 2.8801 33.115-14.138 30.734-31.094-1.4945-21.775-24.287-38.504-45.539-33.789-23.709 3.7778-41.945 27.519-38.938 51.43 2.2089 26.857 25.979 50.413 53.234 50.773 32.361 1.7731 63.913-24.428 66.484-57.078 4.6169-37.138-24.21-75.294-61.758-79.406-2.4704-0.3744-4.9488-0.61876-7.4297-0.73436-1.7812-0.0828-3.5655-0.1008-5.3438-0.0548zm-295.93 2.8203c-7.1574 0.89124-14.415 0.97568-21.617 0.2968-21.513 3.427-41.624 15.786-54.305 33.422-2.4105 6.1078-5.407 11.968-8.9297 17.484a317.43 317.43 0 0 0 18.951 90.7c9.5264 10.274 21.409 18.279 35.055 22.508 23.986 8.2198 51.287 6.4172 73.867-5.1797 5.2632-1.2628 8.3717 1.0484 9.6328 4.4453 1.7581-4.1247 3.8473-8.1352 6.375-11.945 19.277-30.634 60.607-46.545 94.836-32.938 28.838 10.522 49.735 40.556 47.273 71.516-1.3576 26.279-19.45 51.508-45.25 58.586-23.931 7.4097-53.076-1.2217-66.062-23.437-12.497-19.959-10.326-49.414 8.7422-64.586 17.324-14.787 48.442-12.975 59.953 8.1797 8.0115 13.773 3.8605 35.475-12.469 40.906-11.793 4.9906-29.398-6.7186-22.945-19.891 4.8365-9.0108 15.828-2.204 19.25 0.95312 8.0758-8.3852-2.3638-21.751-12.344-22.258-17.2-2.8801-33.123 14.138-30.742 31.094 1.4946 21.776 24.295 38.511 45.547 33.797 23.709-3.7778 41.945-27.519 38.938-51.43-2.2089-26.857-25.986-50.414-53.242-50.773-32.361-1.7731-63.905 24.421-66.477 57.07-4.6168 37.138 24.203 75.302 61.75 79.414 39.526 5.989 81.546-21.824 89.508-61.422 10.01-42.086-15.668-89.928-57.398-102.86-23.986-8.2198-51.287-6.4173-73.867 5.1797-5.2632 1.2628-8.3717-1.0484-9.6328-4.4453-1.758 4.1243-3.8475 8.1356-6.375 11.945-19.277 30.634-60.607 46.537-94.836 32.93-28.838-10.521-49.743-40.548-47.281-71.508 1.3576-26.279 19.45-51.508 45.25-58.586 23.931-7.4097 53.084 1.2139 66.07 23.43 12.497 19.959 10.318 49.414-8.75 64.586-17.324 14.787-48.435 12.975-59.945-8.1797-8.0115-13.773-3.8605-35.475 12.469-40.906 11.793-4.9906 29.398 6.7264 22.945 19.898-4.8366 9.0108-15.828 2.204-19.25-0.95312-8.0758 8.3852 2.3638 21.743 12.344 22.25 17.2 2.8801 33.123-14.138 30.742-31.094-1.4945-21.775-24.295-38.504-45.547-33.789-23.709 3.7778-41.945 27.519-38.938 51.43 2.2089 26.857 25.979 50.414 53.234 50.773 32.361 1.7732 63.913-24.428 66.484-57.078 4.6169-37.138-24.202-75.294-61.75-79.406-0.42295-0.064-0.84996-0.0684-1.2734-0.1248zm-65.891 141.9a317.43 317.43 0 0 0 11.742 27.742 317.43 317.43 0 0 1 -11.742 -27.742zm-19.049-125.55a317.43 317.43 0 0 0 -0.10937 29.523 317.43 317.43 0 0 1 0.10937 -29.523zm633.56 7.26a317.43 317.43 0 0 1 -0.0624 21.867 317.43 317.43 0 0 0 0.0624 -21.867zm-0.0624 21.898c-11.275 10.291-19.076 24.292-20.297 39.797-1.6723 13.452 1.0868 27.017 7.0156 39.07a317.43 317.43 0 0 0 13.281 -78.867zm-13.281 78.867a317.43 317.43 0 0 1 -15.547 41.016 317.43 317.43 0 0 0 15.547 -41.016zm-16.312-68.398c-1.1821 1.3006-2.3544 2.6128-3.6172 3.8359-7.8807 8.0192-17.267 14.032-27.414 18.227 5.1101 1.2893 10.137 2.9 15.008 4.9219 3.3648-0.40792 6.0097 0.79188 7.8672 2.7656 0.79596-10.311 3.4358-20.43 8.1563-29.75zm-438.91 5.3906c1.2202 9.8354 0.83182 19.81-1.3125 29.422 1.6343-1.0168 3.6274-1.5532 6-1.2656 9.4832-3.9365 19.521-6.4816 29.719-7.6484-5.4486-1.8783-10.739-4.1837-15.734-7.0312-6.8617-3.6692-13.098-8.2356-18.672-13.477zm119.9 9.5078c-11.49 8.2216-24.912 13.28-38.875 15.328 16.882 5.5545 32.306 15.497 44.625 28.367-2.4407-6.7062-4.1779-13.684-5.0625-20.859-1.1303-7.5491-1.3328-15.226-0.6875-22.836zm262.54 21.16c-11.091-0.2216-22.217 1.4507-32.711 5.0469-41.73 12.931-67.4 60.781-57.391 102.87 7.2008 35.815 42.262 61.854 78.141 62.094a317.43 317.43 0 0 0 5.625 -5.0859 317.43 317.43 0 0 0 14.992 -16.086c-12.459 4.7574-26.637 5.3924-39.359 1.4532-25.8-7.0782-43.892-32.307-45.25-58.586-2.4619-30.96 18.435-60.986 47.273-71.508 30.335-12.06 66.217-0.9092 87.414 23.102-5.5889-10.617-9.0895-22.342-10.25-34.258-1.6906 1.3467-4.0848 1.9657-7.3281 1.1875-12.71-6.53-26.9-9.94-41.16-10.23zm8.6562 148.84a317.43 317.43 0 0 0 34.047 -47.672 317.43 317.43 0 0 1 -34.047 47.672zm-9-116.05c-1.6578-0.0544-3.3181-0.036-4.9844 0.0548-27.256 0.3596-51.025 23.916-53.234 50.773-3.0073 23.911 15.22 47.652 38.93 51.43 21.252 4.7146 44.052-12.014 45.547-33.789 2.381-16.956-13.534-33.974-30.734-31.094-9.98 0.50676-20.427 13.873-12.352 22.258 3.4224-3.1571 14.413-9.9717 19.25-0.96096 6.4526 13.172-11.144 24.889-22.938 19.898-16.329-5.4311-20.48-27.133-12.469-40.906 11.511-21.154 42.621-22.966 59.945-8.1797 11.608 9.2366 16.921 23.769 16.508 38.227a317.43 317.43 0 0 0 14.086 -27.102 317.43 317.43 0 0 0 0 -0.008c-9.21-22.94-32.7-39.79-57.57-40.6zm-233.38 26.484c2.443 6.7098 4.1852 13.687 5.0703 20.867 1.0966 7.3241 1.3263 14.77 0.75 22.156 1.8498-2.6595 4.8066-4.4613 8.8047-3.9766 12.217-5.0711 25.357-7.7914 38.57-8.2734-20.211-4.7296-38.82-15.75-53.195-30.773zm-280.99 22.492a317.43 317.43 0 0 0 7.1016 13.445c6.5513-1.56 13.242-2.5458 19.969-2.9218-9.4696-2.1836-18.562-5.8111-27.07-10.523zm405.14 2.3906c-0.98336 0.204-2.0246 0.312-3.1797 0.172-12.222 5.0736-25.367 7.7934-38.586 8.2734 16.865 3.9435 32.593 12.295 45.703 23.672-2.9992-10.422-4.352-21.298-3.9375-32.117zm-304.61 1.0625c-1.6344 1.017-3.627 1.561-6 1.2734-11.528 4.7854-23.878 7.4981-36.336 8.1953 14.869 3.4298 28.873 10.275 40.984 19.609-1.1683-9.7233-0.76774-19.579 1.3516-29.078zm235.53 22.18c-14.259 0.2852-28.455 3.7033-41.156 10.227-5.2294 1.2547-8.3323-1.0141-9.6094-4.375-5.3103 28.28-22.331 54.417-48.023 68.156-4.4302 2.5253-9.0875 4.6582-13.883 6.4219 8.9841 1.3135 17.814 3.666 26.203 7.1484 3.3693-0.40848 6.0093 0.795 7.8672 2.7734 1.0125-13.133 4.9837-25.98 12.445-37.227 19.277-30.634 60.607-46.537 94.836-32.93 28.838 10.522 49.743 40.548 47.281 71.508-0.69928 13.536-5.865 26.772-14.211 37.414a317.43 317.43 0 0 0 25.453 -11.203c1.1819-3.2478 2.2145-6.5596 2.9062-10 10.009-42.086-15.668-89.936-57.398-102.87-10.494-3.5961-21.62-5.2685-32.711-5.0469zm-301.66 2.1562c-6.0083-0.0788-12.028 0.3968-17.945 1.4297a317.43 317.43 0 0 0 9.8047 14.242c2.3398-0.2308 4.6895-0.3588 7.0391-0.3748 8.9894-0.0568 17.99 1.4966 26.547 4.8984 28.838 10.522 49.743 40.556 47.281 71.516-0.0408 0.79108-0.13996 1.5784-0.21092 2.3672a317.43 317.43 0 0 0 15.234 9.6484c7.4199-41.02-17.921-86.168-58.273-98.672-9.4747-3.2468-19.463-4.9236-29.477-5.0547zm87.75 103.73a317.43 317.43 0 0 0 24.578 13.047 317.43 317.43 0 0 1 -24.578 -13.047zm24.578 13.047a317.43 317.43 0 0 0 16.32 7.3516c5.3412-3.9154 11.173-7.1528 17.414-9.4297 30.327-12.056 66.199-0.91856 87.398 23.078-5.5811-10.609-9.0817-22.321-10.242-34.227-1.6904 1.3433-4.0809 1.9569-7.3203 1.1797-12.701-6.5233-26.897-9.9414-41.156-10.227-11.091-0.2216-22.225 1.4507-32.719 5.0469-11.2 3.4706-21.189 9.5122-29.695 17.227zm-120.48-101.1a317.43 317.43 0 0 0 13 17.359 317.43 317.43 0 0 1 -13 -17.359zm13 17.359a317.43 317.43 0 0 0 20.211 22.336 317.43 317.43 0 0 0 29.953 25.906c-3.24-24.96-24.879-46.45-50.165-48.24zm296.08-2.36c-30.141 1.5372-58.019 26.477-60.43 57.086-2.7463 22.091 6.3941 44.482 22.109 59.914a317.43 317.43 0 0 0 27.234 -2.2968c-9.6589-4.3486-18.062-11.283-23.555-20.68-12.497-19.959-10.318-49.413 8.75-64.586 17.324-14.787 48.435-12.975 59.945 8.1797 8.0115 13.773 3.8605 35.475-12.469 40.906-11.793 4.9906-29.398-6.7264-22.945-19.898 4.8366-9.0108 15.828-2.1961 19.25 0.96096 8.0758-8.3852-2.3638-21.751-12.344-22.258-17.2-2.8801-33.123 14.138-30.742 31.094 1.4945 21.775 24.295 38.504 45.547 33.789 23.709-3.7778 41.945-27.519 38.937-51.43-2.2089-26.857-25.979-50.414-53.234-50.773-2.0226-0.1108-4.0453-0.1104-6.0547-0.008zm-38.32 117a317.43 317.43 0 0 1 -44.891 -1.1328 317.43 317.43 0 0 0 44.891 1.1328zm144.59-91.18c1.4235 4.8614 2.4905 9.8465 3.1172 14.93 0.67244 4.4905 0.97964 9.0231 1.0156 13.563 5.9846-5.9079 12.79-10.699 20.117-14.453-3.7722-1.5296-7.4685-3.237-11-5.25-4.7207-2.5244-9.1298-5.492-13.25-8.7891zm58.664 6.2031a317.43 317.43 0 0 1 -22.867 19.445 317.43 317.43 0 0 0 22.867 -19.445zm-360.96 7.375c0.1894 1.1664 0.37832 2.3309 0.52344 3.5078 1.3139 8.7751 1.3144 17.716 0.2422 26.531 9.4539-7.4737 20.077-13.445 31.422-17.406-11.444-2.0994-22.417-6.331-32.188-12.633zm-49.812 11.258a317.43 317.43 0 0 0 17.414 12.742 317.43 317.43 0 0 1 -17.414 -12.742zm387 1.4844a317.43 317.43 0 0 1 -25.367 17.523 317.43 317.43 0 0 0 25.367 -17.523zm-25.695 17.727a317.43 317.43 0 0 1 -27.523 15.203 317.43 317.43 0 0 0 27.523 -15.203zm-246.99 26.797c-7.0668 0.0932-13.889 1.7675-20.172 4.6328a317.43 317.43 0 0 0 68.43 14.57c-12.643-12.546-30.316-20.186-48.258-19.203zm180.09 4.4609a317.43 317.43 0 0 1 -26.914 7.6094 317.43 317.43 0 0 0 26.914 -7.6094zm-29.422 8.211a317.43 317.43 0 0 1 -30.219 5.3672 317.43 317.43 0 0 0 30.219 -5.3672zm-78.67-860.56l-84 84v16l48 48h20v-20l-36-36 60-60 60 60-36 36v20h20l48-48v-16l-84-84h-16zm-64 164v56h144v-56h-144zm16 8h12v36h-12v-36z"/>
</svg>
