<?xml version="1.0" encoding="utf-8"?>

<!DOCTYPE svg PUBLIC "-//W3C//DTD SVG 1.1//EN" "http://www.w3.org/Graphics/SVG/1.1/DTD/svg11.dtd">
<svg version="1.1" id="Layer_1" xmlns="http://www.w3.org/2000/svg" xmlns:xlink="http://www.w3.org/1999/xlink" x="0px" y="0px"
	 viewBox="0 0 1064.1 1650" enable-background="new 0 0 1064.1 1650" xml:space="preserve">
<g>
	<path d="M1004.742,595.806c-18.467-12.704-35.585-27.422-50.689-43.983c-39.538-38.492-61.456-69.661-87.623-113.331
		c-21.248-39.971-41.69-68.931-36.999-99.984c1.864-12.362,2.442-24.852,4.178-37.213c3.479-15.748,7.753-28.803,7.127-45.091
		c-4.38-113.966-91.086-208.738-215.144-227.87C508.649,10.297,370.107,67.757,301.681,145.33
		c-6.234,7.263-14.118,13.133-19.56,21.081c0.557,6.684,8.998,7.841,14.247,9.234c17.589,2.956,34.321,9.169,51.588,13.433
		c21.938,5.913,41.755,17.675,63.993,22.688c-9.876,13.454-16.882,28.922-28.493,41.112c-11.14,12.726-28.665,19.624-36.206,35.478
		c1.393,4.199,3.771,7.97,5.87,11.847c10.605-1.178,21.231-2.485,31.921-2.442c0.107,10.326,1.114,20.674,0.193,30.979
		c-2.871,12.619-18.317,18.896-17.782,32.778c9.255,0.45,19.024-0.943,27.722,3.021c16.372,7.49,20.084,8.444,36.335,40.469
		c-11.483,5.356-24.209,6.706-36.42,9.534c-20.503,4.692-40.726,10.605-61.186,15.468c-10.359,2.778-87.423-30.677-97.349-35.178
		c-12.533-5.463-25.901-8.998-37.984-15.511c-8.827-4.627-15.489-12.64-24.873-16.303c-6.877-2.785-13.711-5.699-20.138-9.469
		c1.509-23.992-0.927-119.695,1.435-145.745c1.414-13.775,0.257-27.594,0.664-41.391c7.841,0.129,15.875-0.236,23.438,2.207
		c17.417,5.463,35.113,9.983,52.231,16.325c8.184,3.085,16.882,4.22,25.601,4.178c0.257-27.144-0.279-54.288,0.236-81.431
		c-12.961,2.378-24.423,9.148-36.699,13.583c-22.131,7.863-44.111,16.111-66.221,24.016c-0.728-11.44,0.793-22.88,0-34.299
		c-0.214-4.07-2.849-7.455-5.463-10.348c-6.856-1.157-13.84-0.471-20.76-0.386c-0.171,13.861,0.471,27.722-0.321,41.583
		c-13.647-2.399-26.93-6.384-39.591-12.04c-15.982-7.113-33.935-8.291-49.574-16.261c-5.742-2.806-11.526-5.484-17.546-7.627
		c10.071,72.331,7.398,80.213,11.44,90.751c6.363,3.916,19.872-5.061,31.836-9.555c20.824-7.755,42.526-13.069,62.857-22.152
		c4.799,16.582,0.214,33.55,1.178,50.41c-0.836,17.846,0.964,35.777-1.542,53.516c-2.057,24.145,2.057,48.889-5.142,72.434
		c-12.19-8.912-23.266-19.881-36.934-26.48c-4.627,2.549-9.512,7.091-7.627,12.94c8.505,11.226,22.902,17.16,29.458,30.036
		c1.714,10.198-0.021,20.738-2.571,30.679c22.94,29.576,11.463,61.733,14.614,93.468c4.731,47.652,1.917,53.818,5.888,66.802
		c1.35,5.442,7.927,10.798,13.325,7.348c18.25-26.406,3.212-103.643,12.404-137.433c14.675,4.392,28.708,10.648,41.776,18.639
		c15.168,9.426,33.657,11.997,48.096,22.709c5.035,3.556,10.026,7.134,15.061,10.712c-11.14,10.583-23.095,20.46-32.436,32.778
		c-22.816,29.393-43.533,60.586-59.772,94.135c-37.788,78.069-29.358,168.789,4.285,244.53
		c6.363,15.061,15.704,28.579,23.738,42.762c7.541,12.64,17.717,23.352,26.887,34.792c25.303,30.303,70.927,58.196,107.418,77.489
		c-23.848,51.705-18.709,33.356-32.864,80.682c-14.706,45.033-36.19,80.917-35.906,105.683c-0.171,12.94-1.264,26.287,3.192,38.713
		c17.949,53.918-4.949,162.324-4.949,205.41c-4.992,24.873-7.241,51.181-20.138,73.59c-4.713,8.227-9.512,17.032-17.717,22.302
		c-10.455,6.641-21.488,12.49-31.086,20.417c-11.933,9.426-21.831,21.424-35.092,29.115c-49.072,28.979-61.265,17.029-82.61,23.138
		c-4.58,2.202-13.9,10.797-13.892,16.045c0.03,17.083,36.531,9.43,45.407,9.278c3.749-0.064,7.027,1.95,10.348,3.406h3.192
		c8.634-2.614,17.375-6.277,26.608-5.313c13.69,1.542,27.379-0.643,41.069-1.371c44.637-0.352,104.053,6.806,116.767-6.627
		c10.871-11.487,0.203-37.436,2.884-51.816c44.973-260.271,108.387-159.596,67.763-359.725c-1.841-11.395-8.941-24,28.365-44.583
		c13.583-7.434,23.995-19.217,36.87-27.701c20.588-14.461,34.664-36.335,55.852-50.003c8.548,10.755,14.997,22.923,22.602,34.321
		c6.834,10.198,16.111,18.531,22.366,29.136c23.11,39.71,37.56,36.791,57.373,48.803c38.37,23.484,27.403,15.904,46.768,45.825
		c15.081,24.716,97.72,138.163,112.881,163.334c42.524,63.845,64.173,82.164,78.903,111.703c4.563,9.126,13.904,19.474,7.776,30.058
		c-8.143,14.065-21.863,24.287-36.842,30.147c-25.517,9.982-53.774,1.036-79.658,17.905c-6.938,4.521-21.296,14.143-19.663,24.486
		c1.105,6.999,11.243,4.06,17.438,4.071c29.334,0.053,28.079-0.237,31.755,1.197h17.719c-0.152-0.198-0.31-0.397-0.461-0.595
		c16.325-0.75,32.735,0.214,48.932-2.421c22.688-1.307,45.525,0.857,68.149-1.842c10.883-1.028,21.852-0.857,32.735-2.121
		c10.591-1.23,19.601,2.418,28.097-6.775c9.094-9.841,7.466-29.827,0.44-40.442c-77.966-117.797-58.353-89.949-87.194-149.88
		c-8.591-17.417-13.026-36.442-20.481-54.33c-14.204-34.235-16.796-71.748-28.494-106.733c-3.445-10.526-6.404-13.417-71.491-77.554
		c-9.726-9.448-18.36-20.395-30.443-27.037c-35.235-19.478-26.922-54.264-31.536-85.652c-0.364-23.159-4.542-46.232-2.335-69.413
		c-0.262-5.233,1.822-4.935,48.418-33.443c25.904-15.848,75.583-81.239,94.327-155.403c21.164-83.738,19.021-128.437,2.486-181.87
		c-16.717-54.019-51.813-103.869-96.192-138.804c-22.752-17.91-43.469-39.141-69.991-51.588
		c-16.625-9.662-35.97-12.961-52.788-22.216c17.527-10.108,35.607-13.418,29.565-22.431c-8.141-14.504-19.496-27.487-24.123-43.769
		c-1.65-8.634,1.671-17.16,3.278-25.537c91.499,44.611,79.118,41.2,137.476,99.192c15.082,15.704,28.172,33.207,43.533,48.653
		c16.668,17.696,35.392,33.357,50.753,52.295c9.855,9.191,19.753,18.36,29.5,27.679c23.523,14.804,44.304,33.892,69.413,46.189
		c10.712,5.292,19.731,13.347,30.465,18.617c22.495,10.648,45.375,21.038,69.97,25.708c0.9-4.285,2.164-8.548,2.4-12.94
		C1034.65,610.009,1017.747,604.911,1004.742,595.806z M209.988,133.482c12.447-5.699,25.087-11.033,38.263-14.89
		c-0.107,20.781,0.471,41.541-0.257,62.3c-10.773-2.117-87.601-26.152-88.608-26.523
		C174.831,144.365,192.549,138.817,209.988,133.482z M62.443,180.015c-7.734,3.042-15.104,7.005-23.18,9.148
		c-2.164-22.902-6.62-45.59-7.305-68.62c20.567,5.249,41.048,11.14,60.479,19.774c11.397,5.42,24.659,6.534,34.771,14.525
		C106.811,165.939,84.359,172.559,62.443,180.015z M64.585,1615.552c1.95-3.664,2.014-9.855,7.22-10.326
		c10.519-2.399,21.317-4.006,32.114-2.635C91.626,1617.443,87.826,1615.615,64.585,1615.552z M828.875,280.534
		c-13.881,7.126-27.447,7.266-87.044,19.131c-26.244,2.378-51.888,9.641-78.346,9.576c0.193-3.106,0.407-6.213,0.621-9.319
		c12.469-4.735,26.03-3.942,38.691-7.798c12.854-4.285,26.308-6.598,38.606-12.469c47.078-14.939,28.029-10.815,89.894-21.338
		C830.975,265.709,831.853,273.55,828.875,280.534z M831.275,255.597c-4.263-0.964-8.462-3.042-12.897-2.399
		c-81.001,12.248-130.284,44.771-155.943,33.271c11.59-13.947,31.15-12.983,46.918-18.596c17.267-6.256,35.178-10.369,52.531-16.368
		c15.039-4.82,31.171-5.12,45.89-11.055c6.384-2.657,13.325-2.914,20.138-3.064C829.561,243.343,830.782,249.427,831.275,255.597z
		 M824.269,213.628c-0.664,4.82,2.164,11.333-2.399,14.718c-7.777,4.927-17.246,5.484-25.816,8.27
		c-25.087,6.149-49.21,15.811-74.619,20.695c-18.146,3.835-35.799,11.783-54.673,10.519c9.748-14.547,29.479-13.197,43.876-20.267
		c15.018-7.712,31.279-12.404,46.597-19.474c12.94-5.656,26.48-9.641,39.762-14.354C805.759,210.265,815.293,212.3,824.269,213.628z
		 M811.008,175.43c4.82,7.627,8.012,16.153,7.927,25.301c-19.753,2.956-36.913,14.547-56.323,18.874
		c-11.826,2.399-21.616,9.769-32.778,13.925c-1.007,0.382-51.309,20.529-69.498,21.852c4.028-11.183,16.968-13.24,26.094-18.639
		c13.304-7.691,27.358-13.947,40.427-22.024c12.619-7.327,26.608-11.826,39.677-18.231
		C780.736,188.284,794.983,179.607,811.008,175.43z M805.652,164.418c0.771,3.985-3.771,5.527-6.234,7.563
		c-14.654,8.827-30.293,15.896-45.847,22.966c-13.082,6.029-45.671,27.544-61.872,30.507c4.049-6.877,10.562-11.59,17.568-15.125
		c30.057-16.282,56.751-38.091,87.044-53.881C801.389,154.178,805.931,159.598,805.652,164.418z M778.337,123.52
		c-8.419,9.469-18.724,16.903-29.265,23.844c-37.403,29.678-30.829,33.715-75.304,64.035c7.648-8.098,14.954-16.518,22.581-24.616
		c10.326-9.041,22.195-16.732,29.029-29.029c13.733-15.211,27.894-30.207,43.297-43.769
		C773.495,113.944,775.123,120.628,778.337,123.52z M764.112,106.038c-14.097,16.068-28.986,31.429-44.604,46.04
		c-9.084,8.141-15.082,19.046-24.337,27.015c-11.722,10.208-39.341,39.252-46.918,44.926c15.419-15.794,62.557-71.704,64.85-74.126
		c16.539-15.339,27.765-35.306,43.854-51.096C759.313,101.218,761.712,103.639,764.112,106.038z M748.579,93.249
		c-14.182,25.473-36.806,44.69-54.866,67.206c-5.313,8.098-12.169,14.975-19.089,21.681c-9.062,8.784-15.768,19.881-25.816,27.658
		c-5.506,2.078-10.369-3.342-14.975-5.656c5.163-0.857,11.462-0.107,14.975-4.863c22.729-29.406,52.16-74.007,83.831-100.606
		c-0.043-2.249,0-4.499,0.107-6.748c-2.228-0.064-4.435,0.043-6.62,0.278c-7.777,11.397-19.024,19.688-27.422,30.572
		c-10.883,12.362-18.574,27.572-31.621,37.941c7.455-20.438,24.637-35.006,35.67-53.345c6.084-10.283,14.14-19.196,20.91-29.029
		C734.161,78.466,741.767,86.221,748.579,93.249z M618.945,250.306c5.956-7.97,16.068-9.384,25.194-10.883
		c0.214,1.521,0.6,4.563,0.814,6.063C636.491,248.142,627.728,249.427,618.945,250.306z M636.255,261.596
		c-4.585,4.392-10.926,4.113-16.796,3.963c-0.236-1.136-0.707-3.364-0.964-4.499C624.429,260.975,630.342,261.039,636.255,261.596z
		 M623.251,233.059c4.413-2.742,9.127-4.949,13.947-6.877c0.429,2.399,0.836,4.799,1.242,7.198
		C633.363,233.424,628.307,233.338,623.251,233.059z M704.211,63.62c3.685,1.8,7.456,3.428,10.99,5.57
		c3.783,13.097-59.351,87.703-68.02,100.584c-2.549,3.663-5.57,6.963-8.762,10.026c3.278-14.697,13.947-25.794,21.145-38.563
		c9.705-14.868,16.218-31.579,26.822-45.89C690.735,83.929,694.999,72.189,704.211,63.62z M679.531,52.522
		c5.742,1.692,11.183,4.242,15.982,7.841c-9.683,13.818-14.611,30.143-23.459,44.411c-9.512,13.818-16.046,29.372-24.401,43.854
		c-9.34,17.643-9.507,8.464-23.223,43.212c-4.863-3.171-9.619-6.513-14.375-9.833c6.513-9.555,11.633-19.988,17.846-29.736
		c5.099-8.162,13.925-12.983,19.303-20.91c6.149-8.998,11.29-18.66,17.803-27.401c5.634-7.97,11.89-16.603,11.912-26.78
		c-12.94,8.334-16.26,24.166-25.537,35.542c-0.45-1.178-1.371-3.535-1.821-4.735c4.113-11.505,12.512-20.845,17.61-31.878
		C670.833,68.011,674.818,60.063,679.531,52.522z M593.129,221.127c-2.807-0.857-5.613-1.628-8.398-2.421
		c7.327-4.82,7.027-15.189,14.397-19.86c3.728-2.849,8.719-1.864,13.068-2.378c-5.157,9.895-1.289,8.801-19.581,11.654
		C592.722,212.45,592.958,216.778,593.129,221.127z M585.781,193.79c1.628-4.328,3.406-8.569,5.356-12.747
		c2.399,2.442,4.863,4.82,7.198,7.348C594.179,190.234,590.023,192.097,585.781,193.79z M647.245,44.638
		c1.735,0.557,5.185,1.671,6.898,2.207c-1.714,14.718-12.04,26.223-17.675,39.484c-5.442,12.79-13.497,24.23-18.96,36.999
		c-4.049,9.962-13.176,17.182-15.468,27.958c-1.457,3.792,2.421,5.784,4.713,7.97c6.577-10.241,13.475-20.374,17.975-31.75
		c5.013-12.34,12.083-23.63,18.167-35.413c4.178-9.641,9.105-18.896,14.868-27.679c1.307-0.107,3.878-0.321,5.185-0.429
		c-3.878,9.234-8.098,18.317-13.326,26.865c-11.648,19.897-34.243,75.508-48.825,83.338c-3.621-1.971-6.856-4.542-10.198-6.941
		c4.692-18.296,13.111-35.199,21.552-51.974C624.343,91.963,630.985,65.719,647.245,44.638z M636.598,42.496
		c-30.206,64.27-2.922,13.742-39.741,85.716c-6.556,11.654-9.127,25.216-17.096,36.12c3.021-13.176,8.762-25.516,11.783-38.67
		c3.021-13.776,12.147-25.023,16.132-38.456c4.992-16.261,12.404-31.579,20.331-46.554
		C630.878,41.232,633.727,41.853,636.598,42.496z M571.748,194.497c-3.514,0.536-7.048,0.428-10.562,0.493
		c5.27-6.47,12.383-11.119,20.31-13.711C578.818,186.035,576.419,191.348,571.748,194.497z M580.725,203.131
		c-0.171,1.114-0.557,3.364-0.728,4.499c-5.849,2.657-11.719,0.857-17.396-1.178C568.727,205.851,574.747,204.587,580.725,203.131z
		 M526.137,178.536c0.386,4.285,0.664,8.569,1.264,12.854c5.57-7.927,9.512-16.818,12.876-25.858c3.621,0,7.241,0.021,10.862,0.043
		c-4.092,5.163-8.762,9.941-12.211,15.597c-2.164,5.077-2.978,10.626-4.885,15.811c-2.764-1.65-5.463-3.406-8.419-4.649
		c-4.135,0.536-8.055,1.971-11.997,3.128C516.304,188.841,521.124,183.507,526.137,178.536z M518.382,173.587
		c2.314-4.649,4.349-9.426,6.213-14.268c2.078,0.836,4.22,1.585,6.384,2.271C526.458,165.254,522.238,169.26,518.382,173.587z
		 M565.792,168.489c2.142,1.05,4.263,2.185,6.256,3.513c-5.613,8.034-13.518,14.097-22.431,18.082
		C554.545,182.542,560.115,175.473,565.792,168.489z M619.33,36.711c-7.884,19.453-15.704,38.927-23.159,58.53
		c-10.198,20.01-14.911,42.183-24.551,62.429c0.064-7.52,0.214-15.189,2.935-22.323c5.249-14.011,9.019-28.558,15.339-42.14
		c7.884-18.467,11.376-38.541,20.503-56.516C613.374,36.69,616.352,36.711,619.33,36.711z M601.141,32.962
		c-2.207,13.39-9.276,25.237-12.062,38.477c-4.37,18.424-13.561,35.178-19.024,53.259c-3.278,9.791-5.784,20.524-13.497,27.936
		c3.792-22.302,11.74-43.683,19.924-64.7C591.609,37.075,591.207,39.523,601.141,32.962z M585.309,33.991
		c-5.549,16.068-10.198,32.393-14.632,48.782c-20.046,43.976-18.12,67.417-31.3,65.964c-1.178-14.268,5.399-27.187,10.626-39.955
		c4.563-10.562,5.42-22.302,10.091-32.821c6.577-13.347,9.084-28.236,16.003-41.455C579.161,34.333,582.224,34.162,585.309,33.991z
		 M555.38,41.018c1.157-3.921,5.334-4.606,8.655-5.849c-2.228,18.532-11.269,35.306-15.811,53.259
		c-2.635,11.29-6.92,22.088-11.547,32.692C537.84,107.992,548.834,59.497,555.38,41.018z M537.17,38.232
		c3.256-0.021,6.513-0.021,9.769-0.043c-3.535,14.375-6.149,28.965-9.512,43.383c-2.956,11.312-6.77,22.409-8.934,33.935
		c-2.742,11.119-2.142,23.566-9.019,33.314c-1.35-0.471-4.071-1.414-5.42-1.885c-1.2-14.011,3.299-27.615,7.627-40.726
		c3.021-8.655,2.507-18.017,5.313-26.715C531.279,65.955,532.8,51.751,537.17,38.232z M525.366,39.903
		c-1.018,15.263-13.9,79.103-23.459,107.74c-2.164-13.175,2.914-25.858,3.921-38.884c5.035-22.495,8.055-45.461,15.082-67.463
		C522.024,40.953,524.252,40.246,525.366,39.903z M512.362,168.788c-1.114,7.884-2.764,15.682-3.471,23.63
		c-1.971-0.064-3.921-0.064-5.892,0.021C504.285,183.914,507.627,175.965,512.362,168.788z M494.708,65.933
		c-0.193-7.884,2.892-15.275,4.97-22.752c3.449-0.171,6.92-0.343,10.412-0.493c-0.464,7.413-8.67,48.841-9.362,68.406
		c-1.864,1.585-3.942,2.892-5.934,4.285C493.959,98.904,494.966,82.408,494.708,65.933z M493.123,160.026
		c2.057-0.429,4.135-0.793,6.213-1.136c-0.621,8.27-2.657,16.346-5.677,24.059C492.866,175.344,492.673,167.674,493.123,160.026z
		 M497.065,189.719c-0.407,1.5-0.836,2.999-1.264,4.499c-5.356-0.707-10.733-1.007-16.089-1.628
		c0.193-6.813,1.478-13.497,2.464-20.224c1.585,6.384,2.25,13.133,5.377,19.024C490.724,194.261,493.959,190.898,497.065,189.719z
		 M486.182,49.351c3.085,16.56,2.207,33.614,0.407,50.281c-0.343,7.177,1.35,14.247,1.307,21.424
		c0.407,9.791-1.564,19.453-1.885,29.222c-2.057,0.107-4.113,0.193-6.149,0.279c-4.221-20.695-2.507-42.012-0.193-62.814
		C479.112,74.631,480.955,61.477,486.182,49.351z M471.678,186.999c0.836-0.236,2.528-0.685,3.385-0.921
		c-0.129,3.706-0.279,7.413-0.386,11.14c-1.821-1.05-3.642-2.078-5.484-3.085C470.028,191.776,470.864,189.398,471.678,186.999z
		 M468.979,179.522c-0.943-5.592-1.692-11.205-2.185-16.839c1.135-0.107,3.428-0.3,4.563-0.386
		C471.25,168.103,470.885,173.973,468.979,179.522z M467.115,55.757c2.207-0.364,4.435-0.6,6.684-0.707
		c-1.65,14.632-3.299,29.265-2.785,44.026c-0.878,12.661,1.478,25.58-1.778,38.006c-1.157-10.84,0.964-21.959-2.057-32.585
		C462.294,88.621,465.529,71.868,467.115,55.757z M450.147,99.633c2.378-13.818-0.407-28.365,5.656-41.476
		c1.028,17.01,0.129,34.106,2.828,51.01c2.721,13.668,1.178,27.636,2.057,41.455c-2.164,0.921-4.306,1.821-6.449,2.721
		c-3.535-10.433-2.614-21.488-2.678-32.286C451.647,113.858,449.355,106.81,450.147,99.633z M460.323,196.232
		c-7.904-14.289-6.89-10.275-4.478-22.409c1.157-0.171,3.471-0.557,4.606-0.728C460.259,180.807,460.323,188.52,460.323,196.232z
		 M452.29,198.31c-1.714-0.814-3.492-1.478-5.292-1.95c-0.964-2.164-1.992-4.263-3.085-6.341c-2.378-1.65-4.82-3.171-7.241-4.713
		c0.643-3.171,1.35-6.299,2.057-9.448c1.007-0.086,3.064-0.279,4.07-0.386C441.985,184.321,447.041,191.712,452.29,198.31z
		 M439.864,62.398c1.607,2.999,3.878,5.892,3.556,9.491c0.257,11.547-0.321,23.095,0.45,34.621
		C440.764,92.049,433.372,77.116,439.864,62.398z M424.589,70.304c8.698,5.035,4.992,15.896,8.184,23.887
		c5.463,15.532,2.764,32.136,5.87,48.032c0.664,5.442,1.907,11.676-2.871,15.725c-6.449-12.747-6.213-27.315-7.563-41.198
		C428.039,104.818,421.722,106.713,424.589,70.304z M415.162,76.752c1.157,24.294,7.755,48.096,7.155,72.519
		c-5.592-23.866-11.804-47.839-13.711-72.305C410.792,76.838,412.977,76.752,415.162,76.752z M397.402,80.373
		c7.177,12.683,9.533,27.401,9.512,41.819c-4.113-10.455-9.79-20.16-14.59-30.272C389.475,87.186,395.067,83.822,397.402,80.373z
		 M382.363,92.52c4.585,8.248,10.198,16.175,11.997,25.623c2.335,11.397,8.055,21.595,11.976,32.457
		c-9.555-18.896-16.154-39.184-26.78-57.501C380.477,92.906,381.42,92.713,382.363,92.52z M296.946,166.989
		c0.279-2.249,0.686-4.478,1.221-6.684c12.254,1.8,24.123,6.041,34.878,12.169c7.434,4.199,15.789,6.234,23.737,9.191
		C336.516,178.065,317.577,168.681,296.946,166.989z M310.443,154.199c-0.064-1.242-0.171-3.749-0.236-4.992
		c12.126,1.607,22.559,8.162,33.635,12.79c5.549,2.507,10.433,6.213,14.932,10.262C341.872,168.339,327.454,157.862,310.443,154.199
		z M319.398,141.066c-0.129-1.285-0.343-3.878-0.471-5.185c4.263-0.429,9.276-1.885,12.768,1.478
		c10.048,7.605,19.046,16.753,30.443,22.431C348.02,153.256,333.452,147.75,319.398,141.066z M364.003,137.296
		c-5.784-7.22-14.568-12.083-18.039-21.038c2.207-1.8,4.392-3.642,6.534-5.549c14.911,13.304,25.001,30.572,35.928,47.025
		C379.47,151.992,370.901,145.458,364.003,137.296z M360.832,105.931c3.256-2.099,6.341-4.842,10.24-5.677
		c5.527,2.849,8.419,8.719,10.283,14.375c2.806,8.548,6.256,16.989,7.327,26.008C379.363,129.09,371.244,116.579,360.832,105.931z
		 M400.873,188.134c1.028-3.299,1.992-6.62,3.214-9.876c2.999,5.527,5.913,11.526,11.826,14.504
		c4.306-4.306,3.578-9.426,0.643-14.225c2.014-1.564,4.028-3.149,6.17-4.563c4.178,7.884,8.484,15.703,12.833,23.48
		c-1.243,0.707-2.485,1.371-3.728,2.035c-2.378-4.563-4.22-9.898-9.705-11.462c-1.457,3.813-2.935,7.627-4.392,11.44
		C412.227,195.504,406.357,192.097,400.873,188.134z M355.947,291.118c7.884-2.228,15.918-4.135,24.166-4.113
		c10.39-0.257,20.181-4.135,30.357-5.827c6.406-0.793,12.897-0.364,19.346-0.279c0.257,0.814,0.75,2.421,1.007,3.235
		c-12.769-0.15-25.259,3.128-38.049,2.956C380.349,287.09,368.416,291.803,355.947,291.118z M419.661,366.379
		c-4.927-4.735-6.791-11.483-10.605-16.968c-8.976-0.578-17.953,0.45-26.908,0.043c5.335-8.055,11.569-15.596,15.575-24.466
		c4.156-1.414,8.462-2.571,12.383-4.649c0.793-2.271,1.178-4.628,1.692-6.963c-5.913-0.171-11.826-0.214-17.739-0.279
		c1.028-5.549-2.892-13.775,3.235-17.032c11.547-1.693,23.266-2.185,34.621-4.992c2.335,3.663,4.885,7.241,6.727,11.183
		c1.05,4.585-3.449,10.133,1.307,13.561c7.22,6.106,11.826,14.332,17.053,22.045c-6.813,4.156-14.568,7.37-19.774,13.647
		c-1.671,11.633,5.549,23.673-0.793,34.814C431.123,379.448,425.874,372.485,419.661,366.379z M455.867,394.166
		c-0.187-3.043,131.826,3.966,143.827,5.049c-0.735-0.066-8.391,6.921-10.353,7.662c-4.535,1.713-9.056,1.803-13.782,1.066
		c-7.301-1.138-14.614-0.487-21.929-1.085c-11.926-0.976-29.562-5.448-64.454-3.335c-4.347,0.263-35.037,4.778-36.694,1.29
		c-7.52-15.832-6.984-34.535-1.971-51.01C459.295,365.737,455.032,380.54,455.867,394.166z M445.82,281.177
		c9.576,2.614,18.981,5.849,27.915,10.176c8.955,4.135,19.496,6.277,26.308,13.925c2.828,2.892,3.149,7.006,3.492,10.84
		c-1.028,0.343-3.106,1.028-4.156,1.371c-1.585-3.556-2.357-7.755-5.42-10.433C478.555,297.266,461.309,290.754,445.82,281.177z
		 M133.762,543.394c1.248-2.592-3.561-10.72-4.09-13.579c-1.692-9.143-0.776-19.552-1.12-28.854
		c-0.521-14.056-1.041-28.111-1.562-42.167c-0.106-2.868,1.548-36.199,1.245-36.199c3.621-0.707,7.327-0.043,10.969-0.621
		c0.493,11.205-0.043,22.409-1.607,33.528c2.767,21.505,0.298,42.425,1.053,63.872C138.942,527.68,138.396,536.495,133.762,543.394z
		 M228.712,441.748c-9.341-5.956-19.196-11.29-29.843-14.44c-15.125-4.285-28.236-13.304-42.397-19.753
		c-8.184,3.128-17.332,6.77-25.773,1.992c-7.134-1.285-4.135-9.319-4.413-14.375c-4.842-2.807-9.555-5.806-14.311-8.719
		c5.592,1.65,11.44,1.842,17.225,1.221c-3.513-5.185-8.098-9.469-11.912-14.397c0.921-2.656,2.228-5.163,3.471-7.67
		c0.9,0.407,2.699,1.221,3.599,1.628c2.164,9.469,8.355,17.332,17.203,21.445c0.943-9.084-5.699-15.853-9.769-23.223
		c-10.519-12.79-28.365-18.146-36.784-32.928c12.554,4.606,19.838,17.525,32.971,21.081c8.27-14.761,3.942-32.157,5.077-48.225
		c2.292-23.266,1.95-46.704,1.842-70.077c-0.078-17.056,2.399-34.074,2.715-51.058c0.982-52.815-3.715-66.738,5.252-72.463
		c4.869,9.151,5.152,18.485,4.114,28.671c-1.518,14.901,3.957,65.74-1.091,94.122c-0.664,17.793-1.407,118.002,0.086,122.758
		c3.985,4.906,10.391,6.32,16.025,8.505c11.483,3.792,20.095,12.811,30.979,17.846c25.986,17.129,80.727,30.167,116.823,52.167
		c-15.018,8.591-29.972,17.332-45.161,25.601C254.699,451.453,240.281,449.139,228.712,441.748z M486.825,1065.327
		c-20.353,21.702-41.176,43.126-64.314,61.872c-44.055,31.791-55.593,36.321-62.322,46.104c-6.47,49.427,29.092,90.375,7.648,163.57
		c-4.242,11.655-10.669,22.388-15.211,33.935c-4.499,11.376-13.283,20.438-17.417,31.986
		c-16.046,41.005-28.344,83.51-36.549,126.785c-2.635,14.654-8.634,28.943-7.391,44.069c0.343,9.533,3.856,19.153,1.414,28.665
		c-2.828,7.798-12.212,6.277-18.682,8.141c-14.615,3.545-25.477,1.852-93.707,2.442c-0.343-3.728-0.664-7.455-1.05-11.14
		c-7.52,1.864-14.482,5.292-21.659,8.184c-5.549,2.421-11.74,1.114-17.567,0.9c4.542-0.986,9.169-1.65,13.775-2.164
		c0.043-2.292,0.107-6.877,0.129-9.169c-10.626-0.621-19.174,5.87-27.894,10.84c-5.484,3.321-12.04,2.421-18.124,2.121
		c5.077-3.342,9.898-7.177,15.553-9.534c4.199-0.536,8.441-0.193,12.661-0.236c-0.9-3.428-1.778-6.813-2.764-10.155
		c11.869-7.284,25.173-12.533,35.113-22.559c14.032-10.69,25.173-25.815,42.462-31.6c12.571-4.206,22.386-17.859,29.034-28.652
		c10.106-16.408,12.757-33.473,16.132-52.006c3.43-18.831,6.358-37.753,8.782-56.739c20.338-159.308,4.141-174.334-0.475-192.7
		c-7.098-40.085,19.858-81.194,25.666-100.563c4.221-14.547,11.762-27.958,14.911-42.869c5.699-23.159,19.431-43.019,27.851-65.107
		c13.852,1.423,59.21,26.804,107.076,30.55c12.854-0.279,25.516,2.485,38.37,2.057c11.847-0.428,23.416,2.785,35.263,2.592
		C507.541,1047.331,496.958,1056.415,486.825,1065.327z M746.737,1196.29c23.14,25.6,41.623,34.228,51.138,69.734
		c4.263,15.039,9.255,29.886,14.997,44.433c12.339,29.401,3.941,33.792,66.692,164.106c52.872,92.525,69.601,97.218,64.1,112.753
		c-2.421,6.384-4.713,15.811-13.026,16.239c-13.433,1.885-27.122-0.15-40.577,1.928c-19.174,3.128-38.67,0.557-57.972,2.207
		c-14.868,1.286-29.8,1.2-44.711,1.071c2.078-4.584,3.878-9.276,5.677-13.947c-6.62,1.907-12.212,5.913-17.353,10.348
		c-4.263,4.392-10.712,3.342-16.239,3.921c1.007-3.321,2.057-6.62,3.106-9.876c-8.805,1.435-16.518,6.042-24.444,9.855
		c2.185-4.885,4.478-9.726,6.449-14.675c-11.89,2.978-19.924,13.861-32.35,15.382c5.971-7.277,12.263-14.896,20.948-18.969
		c31.283-14.673,67.083,5.327,108.858-41.767c14.536-21.39,20.861-6.478-91.351-163.656
		c-19.409-30.711-75.395-106.593-104.076-151.016c-19.792-30.655-10.736-27.054-52.228-55.766
		c-31.787-21.996-21.642,7.012-65.495-60.714c-9.705-16.218-22.002-30.914-30.25-47.989c3.578-8.934,10.99-15.575,16.775-23.073
		c4.82-5.334,8.762-12.983,16.796-13.604c14.782-2.464,28.858-7.97,43.704-10.219c12.147-1.992,23.373-7.327,35.285-10.262
		c16.732-4.199,32.457-11.462,48.996-16.26c10.296,31.351-3.675,60.194,10.797,117.809
		C679.104,1154.124,719.833,1165.898,746.737,1196.29z M615.859,427.415c11.869,4.435,24.68,6.727,35.285,14.075
		c27.422,14.011,49.317,36.099,73.269,55.016c76.571,60.476,130.88,181.261,75.134,331.564
		c-7.742,20.874-15.579,41.834-27.439,60.788c-23.972,38.311-58.557,69.273-98.983,88.974
		c-16.925,8.248-32.971,18.767-51.374,23.566c-101.256,26.404-193.994,46.449-344.534-45.336
		c-31.793-19.384-60.866-46.272-80.016-78.292c-107.705-180.086-15.907-347.813,65.991-402.197
		c17.887-11.878,21.74-35.883,172.452-61.698c11.842-2.028,64.674-4.478,85.049-3.659
		C552.585,411.497,586.01,415.907,615.859,427.415z M595.25,347.976c2.035,15.596,12.876,27.979,18.103,42.462
		c-17.032-1.821-33.978-5.506-51.203-4.863c-23.926,0.874-78.226-5.746-97.863-4.349c0.578-8.569-0.279-17.182,0.471-25.73
		c4.799-6.02,12.104-9.191,18.082-13.861c8.741-6.984,20.01-10.862,26.651-20.331c4.285-4.735,4.67-11.312,5.099-17.353
		c-5.784-4.927-11.269-10.412-18.189-13.775c-39.768-16.928-33.466-19.433-86.445-17.953c-12.876-0.321-25.044,5.592-38.006,4.006
		c7.884-10.112,19.346-16.775,26.415-27.572c9.812-13.39,16.196-31.921,33.528-37.341c38.456-7.541,78.239-7.97,117.038-2.871
		c44.293,24.904,41.175,24.407,55.402,46.104c5.013,7.391,3.749,16.71,4.071,25.151C609.84,301.331,593.108,301.063,595.25,347.976z
		 M600.284,218.898c5.656-3.878,11.612-8.655,18.746-8.891c4.478,2.292,7.456,6.748,11.376,9.855
		C621.365,212.686,610.375,218.299,600.284,218.898z M611.789,308.021c1.35-1.2,2.678-2.4,4.028-3.599
		c2.357,1.371,4.735,2.721,7.113,4.092c0.129,1.435,0.364,4.285,0.471,5.72C619.416,312.37,615.688,310.056,611.789,308.021z
		 M648.616,327.045c-5.634-2.571-11.076-5.549-16.239-8.934c5.763-1.028,11.483-2.357,17.16-3.813
		C649.238,318.54,648.916,322.782,648.616,327.045z M650.373,297.866c-10.605-1.457-21.124-3.535-31.75-4.756
		c-0.214-2.164-0.407-4.349-0.578-6.513c11.312,2.571,22.259,7.305,34.021,7.391C651.487,295.274,650.93,296.581,650.373,297.866z
		 M634.734,279.228c6.256-1.778,11.419-5.463,14.268-11.419c1.092-0.021,3.256-0.043,4.328-0.064
		c0.043,3.578,0.107,7.156,0.171,10.733C647.224,278.649,640.968,278.821,634.734,279.228z M655.493,231.388
		c6.191-2.785,12.94-4.799,18.189-9.298c16.989-14.59,33.485-29.929,52.252-42.269c10.498-7.198,16.753-18.981,27.422-26.051
		c11.076-7.006,19.153-18.767,32.393-22.088c2.549,4.885,5.142,9.748,7.606,14.697c-13.96,15.77-22.682,12.919-114.253,76.268
		c-7.862,5.142-16.218,9.512-23.866,14.997C655.301,235.566,655.386,233.467,655.493,231.388z M660.249,319.954
		c34.695-6.174,100.305-14.511,142.189-25.237c7.841-1.778,15.939-1.371,23.93-1.221c-3.021,2.592-5.763,5.934-9.791,6.92
		c-10.883,2.806-21.638,6.363-32.778,7.97c-27.551,3.321-54.652,10.176-82.46,11.097c-13.925,2.935-28.236,1.264-42.183,4.263
		C659.435,322.803,659.992,320.918,660.249,319.954z M991.117,609.474c-12.254-4.992-23.866-11.505-34.599-19.217
		c-10.605-7.627-22.945-12.512-33.314-20.438c-12.447-10.54-26.651-18.81-38.391-30.186c-10.133-9.984-22.409-17.375-32.757-27.122
		c-12.704-10.862-23.759-23.459-35.713-35.092c-11.869-13.068-26.115-24.037-35.713-39.055
		c-9.148-14.14-22.752-24.294-34.021-36.527c-11.419-14.975-25.366-27.722-39.313-40.277
		c-12.683-11.226-29.522-16.453-41.369-28.708c9.276-0.129,18.617-1.05,27.894-0.578c13.947,11.697,23.545,27.744,36.035,40.962
		c8.543,8.469,29.768,41.232,47.432,55.444c11.912,9.448,21.274,21.552,32.2,32.071c9.726,11.655,22.088,20.781,31.279,32.907
		c12.447,12.597,24.273,26.094,39.013,36.12c15.575,11.847,30.786,26.287,50.689,30.015c-5.335-10.412-16.753-14.482-25.751-20.867
		c-25.533-16.58-82.096-75.556-111.982-106.369c-5.956-6.256-13.904-10.348-19.003-17.46c-8.784-11.805-20.224-21.424-28.322-33.742
		c-26.404-38.552-32.51-33.925-42.44-52.809c5.292-0.257,12.061-2.935,15.939,2.142c11.762,13.433,20.931,28.901,31.471,43.297
		c8.655,13.883,20.867,24.98,30.7,37.963c7.563,10.283,18.981,16.646,27.144,26.373c11.74,13.947,25.58,25.88,37.727,39.463
		c8.762,7.755,14.718,18.167,24.123,25.237c7.37,5.827,13.604,12.919,20.909,18.853c2.657-10.819-8.569-16.325-14.547-23.266
		c-23.512-25.668-101.402-100.741-120.487-129.849c-3.878-7.327-8.869-13.947-14.568-19.967c-5.57-5.87-8.077-13.711-11.247-20.974
		c5.484-2.1,11.14-3.749,16.86-5.12c7.541,17.032,21.488,29.736,30.572,45.825c5.12,7.627,11.676,14.247,16.004,22.431
		c14.29,24.937,36.377,43.961,52.252,67.763c2.935,4.092,7.155,6.963,11.162,9.941c0.75-9.276-7.198-15.425-11.29-22.859
		c-9.062-16.089-24.187-27.337-34.492-42.505c-10.605-10.712-15.832-25.194-25.623-36.527c-6.599-7.948-10.455-17.76-17.225-25.58
		c-4.906-5.763-8.698-12.383-11.205-19.517c7.198-1.95,14.632-2.742,22.045-3.428c3.578,10.562,6.256,21.424,10.99,31.557
		c5.077,11.14,5.677,24.53,14.847,33.507c-2.828-20.974-13.004-40.105-16.668-60.865c-3.256-10.536,22.728-13.568,34.106-14.911
		c-0.45,20.524-5.099,41.412,0.086,61.722c5.613,21.874,19.26,40.298,28.943,60.415c12.404,26.244,29.886,49.574,45.74,73.762
		c5.784,7.691,13.24,13.861,19.538,21.145c25.162,31.519,58.688,62.294,86.166,81.196c6.963,4.992,15.382,7.734,21.595,13.797
		C1012.326,620.764,1001.936,613.759,991.117,609.474z"/>
	<path d="M746.621,545.761C692.43,477.801,630.192,418.8,491.51,423.263c-36.848,1.186-93.701,7.663-140.857,23.129
		c-77.543,25.431-134.491,83.591-159.175,145.558c-8.445,22.035-33.998,72.74-24.135,146.653
		c15.118,113.294,93.28,207.026,178.665,234.732c16.175,9.126,34.064,14.482,51.353,21.081
		c61.025,19.81,149.951,13.867,191.764-0.214c16.572-5.581,35.023-8.975,50.698-16.443c60.607-28.871,72.553-33.336,85.218-50.463
		c13.671-18.486,44.871-51.955,70.83-128.462c7.545-22.239,9.962-46.021,10.133-69.399
		C806.501,660.865,788.635,598.451,746.621,545.761z M766.21,588.823c1.886,3.438,12.727,20.6,6.954,21.308
		c-1.781,0.219-112.582-64.893-173.351-138.755c-7.67-10.733-16.839-20.224-25.216-30.379
		C619.71,440.721,716.664,498.497,766.21,588.823z M497.169,740.596c11.779,33.851,22.245,65.455,41.501,93.784
		c11.654,15.297,22.388,32.286,39.377,42.226c26.316,21.872,57.506,39.776,68.599,48.91c-24.813,7.225-56.451-17.478-203.771,40.693
		c3.23-1.275,7.5-9.378,9.609-12.193c35.591-47.497,41.004-73.02,45.594-111.792C502.079,808.421,501.781,774.182,497.169,740.596z
		 M561.872,851.862c-46.048-55.742-48.256-90.532-63.586-141.032c0.809,2.664,17.423,9.56,20.49,11.71
		c62.108,43.536,102.41,64.132,149.1,190.016c2.528,5.806,4.285,11.933,5.077,18.253
		C652.986,921.832,575.037,868.411,561.872,851.862z M627.535,810c-10.091-14.054-20.824-27.851-33.207-39.934
		c-14.654-10.283-27.337-23.159-42.676-32.5c-7.755-4.885-14.011-11.74-21.831-16.496c-9.619-5.977-18.189-13.411-27.208-20.224
		c7.327-1.371,14.825-3.235,22.302-1.585c13.023,2.873,27.016,1.72,40.276,1.905c37.301,0.521,105.392,6.122,187.831-34.422
		c-1.175,0.578-20.361,51.986-21.915,56.284c-35.544,98.33-34.598,135.682-51.405,195.634
		C679.342,918.052,640.99,833.204,627.535,810z M512.383,689.427c8.184-7.37,19.196-9.834,28.515-15.254
		c14.821-8.327,30.83-14.144,46.395-20.67c29.365-12.312,72.389-36.417,163.536-34.067c8.12-0.021,14.932,4.992,21.552,9.041
		C747.896,695.255,581.538,704.067,512.383,689.427z M577.961,461.8c10.186,6.784,16.505,17.06,24.565,25.858
		c9.492,10.361,20.196,19.874,30.543,29.367c74.962,68.775,86.871,66.803,119.667,91.677c-17.182,0.536-34.621-1.821-51.524,2.164
		c-15.447,3.342-31.129,5.484-46.489,9.169c-26.394,8.634-52.724,17.632-77.897,29.436c-8.419,4.071-17.717,6.084-25.837,10.819
		c-12.597,7.327-25.923,13.475-39.805,17.932c8.275-10.753,38.585-43.983,50.924-81.753
		C589.31,513.206,578.158,480.034,577.961,461.8z M562.365,451.538c-0.276,0.192,6.054,20.063,6.368,21.765
		c2.446,13.263,0.726,26.428,1.066,39.786c0.621,24.38-5.077,48.396-11.783,71.662c-10.755,40.191-37.791,73.505-67.078,101.998
		c-1.705-70.184-3.582-121.014,34.149-191.871c5.956-10.648,14.161-19.774,21.681-29.308
		C551.053,459.958,556.602,455.545,562.365,451.538z M481.871,651.762c-18.312-23.109-9.361-54.6-111.967-146.258
		c-22.725-20.3-25.084-20.714-26.985-25.13c0,0,64.879-1.697,113.658-8.254c30.748-4.133,60.091-13.52,90.556-18.824
		c-3.547,0.618-10.67,13.046-13.116,16.202c-30.722,39.637-47.008,90.448-51.172,139.989
		C481.677,623.362,483.704,638.19,481.871,651.762z M396.909,960.651c-0.044-7.123-60.436-111.705-174.755-190.136
		c3.317,2.211,14.565,0.699,18.685,0.897c29.807,1.431,53.657,3.173,80.52-0.321c27.454-3.571,92.163-19.091,117.734-33.911
		c8.569-5.72,16.518-12.704,26.608-15.703c-5.417,13.061-38.081,59.184-47.796,85.052c-5.677,11.676-8.719,24.316-12.383,36.72
		C384.696,909.154,396.726,931.3,396.909,960.651z M353.226,757.597c-41.567,9.961-104.828,10.878-150.694-0.214
		c7.006-13.925,21.167-21.059,34.428-27.808c17.787-8.758,26.48-16.82,70.148-25.744c23.579-4.819,47.627-6.937,71.684-6.487
		c46.885,0.878,11.866-2.102,93.015,3.588C435.263,738.328,402.387,745.619,353.226,757.597z M480.569,687.713
		c-33.746-21.29-57.206-18.376-105.726-73.119c-19.482-26.616-32.746-59.847-44.304-90.536c-4.97-13.197-9.919-26.972-9.384-41.262
		c11.269,3.878,22.88,8.419,31.171,17.332c45.425,47.188,62.201,41.181,111.082,131.092c6.213,12.083,9.576,25.301,14.225,37.984
		C480.012,675.073,480.162,681.479,480.569,687.713z M359.461,451.903c66.426-23.957,191.191-19.732,191.095-18.545
		c-0.632,7.687-11.688,11.527-17.838,13.51c-83.545,26.945-138.476,21.724-162.135,23.46c-17.873,1.311-35.756,0.762-53.617-2.014
		c1.387,0.216,5.733-4.129,7.305-5.018c3.432-1.942,7.224-3.367,10.931-4.679C343.118,455.814,351.341,453.995,359.461,451.903z
		 M313.85,502.505c7.821,11.474,23.296,68.302,47.751,104.979c20.245,30.361,50.681,60.201,85.868,72.174
		c6.941,2.699,13.283,6.749,19.238,11.205c-1.117-0.836-8.666,0.772-10.39,0.802c-7.403,0.13-30.784-1.414-36.186-1.667
		c-121.274-5.676-173.601,28.433-192.727,35.164c2.152-6.651,1.701-7.435,30.7-57.715c8.784-13.09,13.84-28.172,18.767-43.019
		c15.703-35.499,27.079-72.99,32.821-111.425C310.743,509.425,309.115,503.641,313.85,502.505z M296.046,937.792
		c-4.41-3.757-28.928-13.173-72.862-70.377c-9.855-12.983-12.79-29.5-21.617-43.04c-14.097-23.052-20.952-49.574-25.58-75.947
		c0.214-12.276-5.42-23.759-4.542-36.077c0.621-14.161-1.885-28.708,2.678-42.44c3.085-19.988,7.434-39.977,14.718-58.915
		c10.041-19.953,17.867-40.546,30.437-59.188c26.188-38.84,71.233-72.204,84.844-77.774c0.9,3.706,2.035,7.434,1.992,11.312
		c-5.309,47.501-13.629,89.279-50.046,171.732c-18.274,30.357-31.386,65.171-59.087,88.63c-4.735,4.435-12.533,8.634-10.54,16.346
		c8.012,4.435,17.31,6.277,24.766,11.804c141.697,103.122,162.409,169.766,190.649,212.073
		C379.08,979.535,316.949,957.121,296.046,937.792z M407.685,965.214c-1.35-15.061-5.677-29.779-5.334-44.968
		c2.396-106.141,50.727-158.741,79.332-206.996c1.907,0.043,3.792,0.193,5.699,0.429c-0.893-0.11,4.797,53.134,5.401,62.034
		c8.782,129.437-45.045,171.412-80.662,206.169C409.978,976.526,408.221,970.977,407.685,965.214z M787.676,803.931
		c-5.794,20.845-19.542,38.81-27.271,58.857c-8.12,21.06-22.795,38.606-35.799,56.794c-11.798,16.501-30.655,25.81-48.555,34.165
		c-8.97,4.187-17.776,9.041-26.892,12.798c-51.768,21.336-111.647,35.989-167.475,31.971c-20.267-1.458-39.124-1.18-58.96-6.993
		c0.3-1.564,0.878-4.67,1.157-6.213c69.826-40.117,132.119-50.589,204.746-51.438c18.317-0.214,36.013,5.356,53.731,9.148
		c5.254-4.948,21.313-98.047,31.329-137.888c15.603-62.064,34.187-110.224,46.439-134.728c6.17-14.075,17.096-25.108,25.923-37.47
		c3.621,18.232,8.719,36.206,11.055,54.695C803.469,715.029,795.626,775.333,787.676,803.931z"/>
</g>
</svg>
