<?xml version="1.0" encoding="UTF-8" standalone="no"?>
<svg id="svg2" xmlns:rdf="http://www.w3.org/1999/02/22-rdf-syntax-ns#" xmlns="http://www.w3.org/2000/svg" height="375.29pt" width="450.03pt" version="1.1" xmlns:cc="http://creativecommons.org/ns#" xmlns:dc="http://purl.org/dc/elements/1.1/" viewBox="0 0 450.0293 375.2926">
<path id="path4" d="m206.68 0.0009141c-1.73-0.0101-3.46 0.06344-5.19 0.22344-6.8 0.61-13.6 1.67-20.1 3.8-5.5 2.13-10.369 5.58-15.369 8.65-4.18 2.68-9.3312 3.2394-13.581 5.7594-0.14 2.49-0.41 7.4606-0.55 9.9406-5.57 0.1-11.319-1.8303-16.759 0.02969-7.64 4.26-9.81 16.179-3.45 22.459 1.11 1.19 3.6997 1.67 2.9797 3.75-4.39 1.15-9.0091 1.59-13.189 3.45-4.42 1.81-8.7906 5.0609-13.841 3.0609-10.12-1.39-20.301-2.7609-30.541-2.5109-25.87 0.94-51.819 5.5909-75.809 15.461-0.13 0.58-0.3794 1.7403-0.5094 2.3203 6.93-1.72 13.48-4.6712 20.33-6.6812 12.37-3.36 24.97-5.9788 37.75-7.1688 16.19-2.18 32.58-0.52094 48.75 1.0891 0.04 0.4 0.1397 1.2 0.1797 1.6-2.68 2.13-5.6806 3.8406-8.3906 5.9406 0.02 0.39 0.05 1.1897 0.07 1.5797 3.82 0.37 7.7109-0.18062 11.511 0.30938-4 5.72-7.6912 11.64-11.531 17.45-15.07 0.72-30.039 2.89-44.859 5.7-19.25 4.85-38.37 11.801-54.53 23.611-0.4 1.06 1.73 2.2603 2.45 1.4203 12.85-9.49 27.88-15.53 43.12-19.95 17.53-4.54 35.5-7.2403 53.55-8.5203-0.96 4.06-2.2606 8.0403-2.9406 12.17-0.58 2.43-0.29 5.1891-1.6 7.3891-14.22 3.19-27.881 8.5497-40.891 15.08-3.43 1.79-6.5394 4.1209-9.7594 6.2609-4.63 3.27-9.7594 6.2091-13.059 10.989 2.01 1.91 3.87-0.31938 5.35-1.7094 5.04-5.17 11.28-8.9303 17.5-12.52 13.23-6.5 27.01-12.15 41.4-15.5-0.14 9.3 1.4897 18.45 2.7297 27.63 3.62-0.78 3.3294-5.9897 6.0594-8.0297 6.32 4.72 11.981 10.37 18.911 14.23 3.36 2.01 6.9091 3.6612 10.239 5.7312-6.33 3.44-13.219 6.1794-18.289 11.509 2.25 1.04 5.4391 0.64938 7.0891 2.5094-9.56 6.28-20.71 10.281-29 18.411 0.67 2.96 4.8209 1.4803 7.0109 2.4703-3.66 8.22-9.0709 15.52-14.761 22.43-6.28 7.85-9.61 17.42-13.5 26.55-1.34 3.22-1.6997 6.7191-2.6797 10.039-0.8 2.85-3.0194 5.4006-3.0094 8.4406 0.26 4.19 0.6288 9.1297 4.0688 12.08 3.49 1.1 7.2203 0.80093 10.82 1.2109-0.93 1.74-2.7903 5.2188-3.7203 6.9688-1.71 3.53-0.9288 7.6603-1.7188 11.42-3.83 1.67-7.8612 2.95-11.431 5.15-2.12 3.65-4.44 7.5397-3.95 11.98-0.68 6.43 3.9406 11.941 9.1406 14.961 11.97 5.96 24.769 10.089 36.709 16.089 6.34 3.03 9.7906 10.28 16.641 12.42 4.19 1.53 8.9694 2.3609 13.259 0.66093 5.71-2.69 8.6809-9.3809 8.0109-15.511-0.06-2.31-0.1697-6.9503-0.2297-9.2703 4.37 0.89 8.2291 3.3003 12.489 4.5703 15.81 4.81 32.241 8.15 48.841 7.75 3.91-0.21 7.8097-0.56031 11.73-0.67031 0.08 2.62-0.93 5.42 0.35 7.9 1.84 3.54 5.5 5.61 9.05 7.1 4.99 2.17 10.12 4.15 14.67 7.2 4.02 3.52 6.2503 8.5203 9.4203 12.72 3.94 2.52 8.6188 4.1997 13.369 3.5797 2.98 0.02 5.3209-2.0291 7.9109-3.1891 4.09 0.04 8.4094 1.6103 12.359-0.17969 2.59-1.44 4.7403-3.58 6.6203-5.85 2.23-2.54 2.2097-6.2003 3.2797-9.2203 1.27-1.95 3.44-3.3403 4.05-5.6703 2.07-5.07 0.5909-10.58-1.6391-15.27-0.83-1.9-2.55-3.0497-4.25-4.0297-3.64-1.97-7.4106-3.9103-11.541-4.5203-8.24-1.33-16.52 0.33031-24.77 0.52031l-0.4703-0.70938c4.37-2.36 8.9912-4.3506 12.881-7.4906 2.32-1.6 4.38-3.64 7-4.75 0.8 1.8 1.3797 3.6903 1.7297 5.6703 7.5-6.96 14.66-14.52 19.6-23.57 4.33-8.08 7.5291-16.69 10.689-25.28 0.81-3.36 4.4603-0.95062 6.6203-0.69062 2.72 1.65 4.86-0.28907 7.1-1.2891 2.79-1.33 6.41 1.0597 8.95-1.0203 3.47-2.73 4.2197-7.6097 4.1797-11.78-0.89-5.44-4.6388-9.9412-5.6188-15.381-2.25-10-6.8103-19.18-12.22-27.8-3.44-7.13-7.57-13.93-10.85-21.13 3.12 0.64 6.2291 1.2209 9.4391 1.2609 0.72-2.17-1.0597-3.97-2.1297-5.65-9.02-11.94-21.429-20.62-33.159-29.65l0.1797-0.7c14.57-4.27 27.35-13.27 38.58-23.27 1.98 2.54 3.33 5.4897 5.1 8.1797l0.6203-0.47969c2.93-10.5 3.6794-21.471 3.2094-32.341 4.5-0.12 8.9103 0.92062 13.37 1.4406 9.26 1.62 18.66 2.69 27.73 5.25 3.2 0.87 6.3906 2.0203 9.7406 2.0703 0.03-0.41 0.08-1.2409 0.1-1.6609-3.49-1.61-7.33-2.2391-11-3.2391-5.1-1.1-10.019-2.8609-15.109-3.9609-8.24-1.32-16.641-1.4794-24.861-2.8594-1.8-3.04-1.7894-6.8497-3.1094-10.08-0.61-3.88-3.1097-7.2206-3.5797-11.091 11.41-2.41 23.11-2.6597 34.65-4.1797 9.3-1.46 18.729-0.80969 28.109-0.97969 13.14-0.22 26.27 0.88906 39.28 2.7391 4.75 0.48 9.4006 2.7106 14.241 2.0906 0.09-0.41 0.2694-1.2103 0.3594-1.6203-8.66-2.26-17.48-4.0206-26.42-4.5906-11.04-0.86-22.09-2.2091-33.18-1.3891-12.49 0.79-25.03 0.84906-37.43 2.6891-7.31 0.51-14.5 2.65-21.87 2.05-2.56-2.99-6.1203-6.0197-6.6203-10.18 3.81-0.23 7.9406 0.98 11.591-0.25-4.17-5.11-10.409-7.7603-16.159-10.62 3-1.99 6.4897-2.9788 9.8297-4.2188 18.97-7.56 39.01-11.891 58.93-16.111 17.3-3.01 34.84-4.5691 52.4-4.6391 7.38-0.11 14.72 1 22.1 1.1-0.03-0.73-0.09-2.1903-0.1297-2.9203-8.32-0.21-16.64-0.06031-24.95-0.12031-19.03-0.39-37.931 2.3097-56.661 5.3797-22.35 3.6-43.76 11.24-64.78 19.43-9.11-0.25-17.489-4.5591-26.489-5.6891 2.28-3.65 6.5191-6.5306 6.6391-11.191-0.72-3.95-1.0194-8.4994-3.8094-11.659-3.78-3.7-9.5609-2.79-14.311-3.6-0.91-2.94-0.5797-6.2903-2.1297-8.9703-6.96-4.06-15.9-2.6297-22.45-7.6297-10.17-6.4794-22.17-10.598-34.28-10.669zm0.1984 2.7312c10.491 0.21392 20.824 3.7597 30.192 8.3422-4.98 1.38-9.84-1.05-14.8-1.35-2.15 0.22-4.41 1.5797-5.2 3.6797-0.08 5-0.1709 10.009-0.2609 15.009-5.77-0.03-11.849 1.3509-17.489-0.28906-0.67-5.56 0.2594-11.281-0.6906-16.791-1.63-1.14-3.6-1.9403-5.6-1.5203-7.74 1.08-15.4 2.58-23.08 3.9 1.2-1.26 2.5297-2.42 4.1797-3.1 7.78-4.36 16.65-6.4887 25.47-7.4687 2.4281-0.33375 4.8571-0.46186 7.2781-0.4125zm19.233 12.831c6.4383 0.10978 12.834 1.2791 19.098 2.6703 5.19 2.76 8.33 8.06 11.1 13.05 2.73 5.47 4.7206 11.9 3.2406 18-9.53 0.76-19.13-0.06937-28.63 1.1906-3.72 1.8-7.43-0.29969-8.9-3.6297-0.24-7.94-0.1803-15.891-0.02-23.831-0.39-2.68 0.06-5.1597 1.35-7.4297 0.9213-0.03 1.8412-0.036 2.7609-0.02031zm-35.855 0.03594c1.1452 0.0055 2.2803 0.13375 3.3828 0.475 0.35 10.98 1.0006 22.109 0.041 33.059-4 2.45-8.93 0.98094-13.3 1.0109-7.76-0.86-15.53-0.25-23.28 0.05-0.15-5.2-0.23-10.4-0.25-15.6 0.43-3.6-1.0909-7.9312 2.0391-10.881 0.35-3.51 3.5009-3.7188 5.9609-4.3188 6.58-1.05 13.14-2.2012 19.72-3.2312 1.8438-0.24375 3.7773-0.57324 5.686-0.56406zm61.914 3.8547c2.34 0.52 4.8894 0.88 6.8094 2.45 1.48 2.16 0.9197 4.9594 1.0797 7.4594-0.4-0.01-1.1891-0.02906-1.5891-0.03906-2.44-3.05-4.4-6.4803-6.3-9.8703zm-25.931 6.8906c1.36 3.06 1.5712 6.3791 1.4312 9.6891-0.11 1.39 1.7894 2.1997 2.7094 1.2297 1.03-0.71 1.9994-1.4988 3.0594-2.1688 1.46 0.01 2.9 0.34969 4.35 0.52969-1.65-5.02-5.83-9.4697-11.55-9.2797zm-37.819 0.02969c-1.16 0.11-3.4812 0.32906-4.6312 0.43906-3.1 2.07-5.7097 5.0803-6.8297 8.6703 1.49-0.2 2.98-0.52906 4.5-0.53906 1.41 1.29 2.8503 3.9691 4.9703 2.0891 1.07-3.22 0.6406-6.7794 2.1406-9.8594zm-44.855 4.0641c2.2063 0.02875 4.3597 0.34062 6.2547 1.5656 0.07 0.64 0.1988 1.9106 0.2688 2.5406-2.66-0.54-5.2097-1.5006-7.8797-1.9906-0.41 0.99-0.7497 2.0106-1.0297 3.0406 2.23 0.41 4.4897 0.67 6.6797 1.25-0.02 5.25-1.46 10.379-2.4 15.509-4.73 1.38-9.8397-0.95062-12.93-4.4906-3.16-5.64-1.8006-14.379 4.4594-17.289 2.11 0.09 4.3703-0.16469 6.5765-0.13594zm127.62 0.25625c1.9012 0.01625 3.7834 0.20406 5.5484 0.93906 1.83 3.09 3.84 6.38 4.15 10.05-0.18 2.72-1.4297 5.5003-3.5297 7.2703-2.91 3.88-8.2497 2.42-12.18 1.25-0.09-4.65-0.9306-9.4503 0.2594-14.02 1.46-0.35 2.9503-0.55969 4.4203-0.87969 0.02-0.66 0.059-1.9894 0.089-2.6594-1.8 0.16-3.5788 0.46-5.3688 0.65 0.24-0.63 0.71-1.8809 0.95-2.5109 1.84 0.05 3.7597-0.10531 5.661-0.08906zm-60.958 4.7844c2.2314 0.01594 4.4568 0.13406 6.6656 0.44531 0.06 2.61 0.1806 7.8103 0.2406 10.42-6.18-1.28-12.2 0.59938-18.3 1.1594-0.11-3.9-0.029-7.8006 0.2406-11.691 3.7-0.10625 7.4341-0.36094 11.153-0.33438zm-58.903 2.0547 0.6594 0.66094c0.14 4.66 0.53 9.4291-0.4 14.039-1.17 0.27-2.3594 0.44094-3.5594 0.51094 0.73-5.13 1.73-10.261 3.3-15.211zm58.659 11.236c0.8142 0.03453 1.605 0.24 2.35 0.725h2.55c3.59 0.67 7.5606 1.4391 10.041 4.3891-0.02 0.37-0.041 1.1103-0.061 1.4703-2.95 2.76-6.7494 4.9103-8.5094 8.7203-2.23 3.87-2.8797 8.75-6.2297 11.9-2.48-3.49-4.3403-7.33-6.3203-11.1-1.91-3.95-5.26-6.8206-7.95-10.191 1.16-2.7 3.9094-4.1997 6.7094-4.6297 2.3175 0.0375 4.9776-1.388 7.4203-1.2844zm44.897 3.7297c5.7256 0.05265 11.426 0.67625 16.933 2.375 8.23 2.61 16.91 3.77 24.98 6.9l-0.05 0.75c-14.95 6.69-29.019 15.15-42.819 23.93-1.79 0.89-0.05 2.6006 1.0297 3.1906 14.06-9.9 29.25-18.101 44.85-25.291 5.55-1.26 10.61 2.0197 15.23 4.6297-2.88 1.27-6.0806 1.5197-9.0906 2.2797 2.93 4.12 6.03 8.1112 8.75 12.381-17.58 3.35-35.199 6.9988-51.819 13.819-1.49 0.89-5.7403 1.1909-4.4203 3.9609 2.63 0.44 5.0394-0.96093 7.4094-1.8609 11.74-4.95 24.191-7.7791 36.591-10.489 4.63-0.99 9.2703-2.0903 14.02-2.3703 3.68 5.96 6.2791 12.791 6.2891 19.891-2.82 0-5.5294-0.04-8.3094-0.3-13.99-1.6-28.071 0.01-42.061 0.67969-0.09 0.71-0.2591 2.1197-0.3391 2.8297 17.27 0.08 34.75-3.06 51.9 0.2 0.21 8.19 0.2891 16.44-1.0609 24.55-0.43-0.01-1.28-0.04-1.7-0.05-0.8-1.93-1.1494-4.0203-1.9094-5.9703-5.05 5.8-10.96 10.81-17.4 15-14.32 9.99-31.77 16.59-49.45 14.95-6.6-0.91-12.96-3.2697-18.77-6.4797-5.71-4.54-10.91-9.69-16.65-14.2-2.68-2.3-6.9397-4.8503-5.0297-9.3703 0.05-16.41-0.1903-32.83 0.08-49.23 1.44-3.31 3.5903-6.2603 5.1203-9.5203 2.29-5.6 6.6103-10.04 11.27-13.75 4.19-1.47 8.68-2.2294 13.1-2.7594 4.4056-0.41125 8.8733-0.71595 13.327-0.675zm-83.384 1.0375c6.6028 0.04346 13.184 0.9 19.447 3.0875 3.47 1.62 7.3703 3.4191 8.9703 7.1891 2.69 5.05 4.9909 10.35 8.6609 14.8 0.91 9.66 0.26 19.37 0.4 29.05-0.13 8.8 0.3594 17.611-0.041 26.411-5.1 4.75-10.531 9.1194-15.691 13.809-2.34 2.04-4.5997 4.2603-7.4297 5.6203-7.67 3.58-16.129 5.6994-24.639 5.1094-10.98-0.22-21.461-4.0794-31.131-9.0094-10.11-5.46-19.439-12.42-27.259-20.85-1.58 1.33-1.0406 4.02-1.7906 5.9-0.4-0.16-1.1991-0.47969-1.5891-0.62969-0.54-6.55-2.2897-13.32-1.0297-19.85 10.55-2.66 21.46-2.9509 32.25-3.8609 0.05-0.71 0.1697-2.1291 0.2297-2.8391-11.07-0.69-21.83 2.18-32.75 3.2 0.84-6.03 1.7991-12.25 4.5891-17.73 13.74-0.83 27.521 0.0594 41.281-0.29062 0.01-0.75 0.02-2.25 0.03-3-13.23-0.14-26.46-0.12-39.68 0.45 1.78-7.4 7.8697-12.53 11.73-18.82-2.97-1.15-6.4206-0.73031-9.2406-2.3703 2.56-1.95 5.5309-3.9394 9.0109-2.9594 5.56 0.68 10.679 3.2103 15.959 4.9203 8.08 2.7 15.18 7.47 22.57 11.55 1.85 0.62 1.6191-1.0306 1.4391-2.2906-9.69-6.96-20.92-11.429-32.2-15.139-2.2-0.75-4.5991-0.94031-6.6391-2.1203 8.98-3.64 18.42-6.4406 28.12-7.1406 4.88-0.33 9.7197-0.99937 14.58-1.5094 3.9113-0.44625 7.8805-0.71358 11.842-0.6875zm40.088 84.337c5.88 3.55 11.27 7.9503 16.1 12.82-0.73 2.26-2.3297 4.1197-3.6297 6.0797-2.34 4-8.3197 1.08-11.88 1.6-0.28-6.84-0.3606-13.67-0.5906-20.5zm-2.1594 0.93907c-0.16 6.49-0.3809 12.981-0.6609 19.461-3.34-0.48-8.7097 2.3997-10.88-1.4703-1.46-1.89-2.9794-3.8303-3.7594-6.1203 3.32-2.89 6.7297-5.67 9.9297-8.7 1.35-1.17 2.6097-2.6903 4.4797-2.9703zm20.75 14.681c5.34 2.46 10.49 5.5488 16.33 6.7188 9.81 3 19.959 0.42124 29.889-0.21876 10.25 7.27 20.141 15.19 28.861 24.3 1.71 1.95 4.3591 3.5491 4.7391 6.3391-3.95-0.6-7.8191-1.6297-11.789-2.1297 1.91 3.62 5.02 6.4794 6.85 10.159 2.32 4.4 4.4097 8.9309 6.3797 13.511 3.27 7.36 4.7797 15.379 5.5797 23.359-3.32 0.41-6.39-3.3-9.55-1.25-0.5 5.96-1.7803 11.97-1.1203 17.97 1.12 5.98 0.2 12.15-1.9 17.8-5.14 15.1-11.35 30.45-23 41.77-0.82 0.62-2.4691 1.8597-3.2891 2.4797-0.76-1.5-1.4106-3.0497-2.1906-4.5297-9.98 8.71-21.46 15.78-34.13 19.78-25.01 6.8-51.829 6.85-76.859 0.1-7.52-1.92-14.9-4.6403-21.72-8.3703-1.99-6.32-3.9103-12.7-5.1203-19.22-0.42-9.88 0.2197-19.789-0.9203-29.639-2.06-4.93-2.9403-11.07-7.9203-14-1.06-1.1-3.1997-1.5209-3.3797-3.2109-3.17 0.28-6.3291-0.54907-9.4891-0.28907-3.18 0.91-5.8409 3.0403-8.5609 4.8203-2.15 3.37-2.4997 7.7194-4.8297 10.909-1.67-0.58-3.3097-1.33-4.7297-2.4-2.72-7.77-2.9009-16.179-3.2609-24.309-2.66-1.11-4.7488 2.0694-7.4688 1.4094-0.33-16.08 3.3291-32.19 10.539-46.55 1.88-4.16 5.1806-7.4106 7.4906-11.291l-0.1797-0.68907c-1.93-0.51-3.92-0.90093-5.7-1.8609 9.55-6.49 20.339-11.129 29.169-18.689-2.15-1.71-5.9994-0.34062-7.8094-2.3906 3.99-2.1 7.8903-4.4394 12.07-6.1594 4.97-1.98 10.159 0.78907 14.989 1.7891 7.2 2.02 14.78 2.5103 22.22 1.8203 7.8-0.84 14.71-4.8103 21.95-7.5203 2.29 2.66 4.2803 5.5609 6.7203 8.1109 8.04-0.16 16.08-0.11 24.13-0.15 2.46-2.65 4.4109-5.7497 7.0109-8.2797zm-140.29 57.01c-1.48 6.93-3.7188 13.721-4.4188 20.811-0.34 6.06-1.6 12.519 0.5 18.409 2.23-0.2 4.27-1.16 6.4-1.75-0.32 6.7 1.0794 13.29 2.6094 19.77-1.07-0.2-2.1097-0.49-3.1297-0.85-0.88-1.67-1.42-3.4903-2.15-5.2203l-1.5203 0.56093c1.52 4.06-2.0894 7.4097-5.7594 6.3297-2.81-1.48-2.92-4.9303-3.9-7.5703-0.6-0.05-1.8-0.13969-2.4-0.17969-0.04 2.2 0.5688 4.3494 0.4688 6.5594-2.11 0.49-4.3994 0.0209-6.0594-1.3891-1.68-4.56-2.8694-10.33 0.2406-14.52 4.03-6.28 3.97-14.17 7.2-20.82 3.08-6.87 6.4494-13.869 11.359-19.609zm228.98 15.281 0.8391 0.0297c3.04 6.4 5.0709 13.259 6.7609 20.139 0.79 3.09 3.0891 5.5203 3.9891 8.5703 0.71 3.17 0.7197 6.69-0.7703 9.65-1.1 2.32-3.8488 3.7609-6.3688 3.1609 0.06-2.17 0.4488-4.3212 0.5188-6.4812-0.61 0-1.8188 0.0109-2.4188 0.0109-1.27 2.55-1.1406 6.2694-3.9406 7.7094-4.31 0.81-6.2594-0.96031-5.8594-5.3203-0.02-1.68-3.0709-1.6597-2.4609-3.5797 1.21-7.61-1.1794-15.35 0.6906-22.92 3.2 0.08 5.4594 2.85 8.3094 4 2.12-4.78 1.7809-10.009 0.7109-14.969zm-199.46 31.875c6.2762-0.14396 11.942 5.2284 13.473 11.205 2.85 10.78 1.7194 22.089 2.2594 33.109 1.72 10.7 6.91 20.721 6.9 31.711 0.08 4.31-2.1194 8.2288-4.1594 11.869-2.06 1.5-4.5097 2.5112-7.0297 2.8312-4.15-0.2-8.0606-1.9512-11.741-3.7312-3.76-2.6-6.4597-6.4194-10.28-8.9594-4.63-2.95-9.7294-4.9903-14.759-7.1203-6.11-2.5-12.011-5.46-18.181-7.8-3.91-1.44-7.5791-3.61-10.639-6.45-2.76-3.94-2.5603-9.2391-1.6703-13.739 0.85-2.38 1.8803-5.2503 4.6203-6.0203 2.66-1.12 5.4094-2.7297 8.4094-2.5797 9.51 8.13 18.191 17.169 27.561 25.439 2.16 1.39 3.5688 5.2009 6.5688 4.7609 0.29-1.55-0.1988-2.8103-1.4688-3.7703-9.14-9.58-19.471-17.931-29.091-26.991-3.32-3.51-2.1806-9.0103-0.7906-13.17 0.87-3.56 4.7012-5.5388 7.6312-7.1188 5.98-0.83 14.94-0.93031 17.95 5.6797 4.9 9.19 7.3594 19.44 12.009 28.77 1.32 2.37 2.3894 6.44 5.8594 6.05-0.44-3.57-3.0197-6.2903-4.4297-9.4703-3.22-7.29-5.58-14.91-8.75-22.22-1.35-3.19-2.7191-6.4806-2.6391-10.041 0.85-5.24 3.9088-10.99 9.6688-11.83 0.9112-0.26 1.8206-0.3935 2.7172-0.41407zm79.844 11.194c-3.06 0.79-4.8609 4.3403-4.0109 7.3203 1.07 3.63 4.9006 5.94 8.5406 6.15-0.04-0.55-0.1297-1.65-0.1797-2.2-2.73-1.52-6.2309-3.3703-5.5609-7.1203 1.89-1.63 4.5012-0.33969 6.7312-0.47969 0.55-3.08-3.3103-3.5303-5.5203-3.6703zm71.962 60.637c3.1352-0.00064 6.2694 0.095 9.3969 0.31251 4.04 0.78 7.7106 2.8509 11.191 4.9609 5.37 4.28 5.06 12.539 2.6 18.359-0.37 0.16-1.1106 0.48062-1.4906 0.64062-1.57-2.78-1.8194-6.31-4.5594-8.4-3.54-4.81-10.021-5.07-15.161-6.9-3.57-0.87-6.98-3.03-10.75-2.55-0.09 0.38-0.2497 1.16-0.3297 1.55 6.12 3.53 13.6 4.0091 20.1 6.8391 4.2 1.82 6.6203 6.0509 7.7203 10.311 1.56 4.36-0.9994 8.9294-3.8094 12.159-3.04 2.83-8.2503 5.4906-11.87 2.0906-0.54-4.34 0.4797-8.9-1.1703-13.05-2.93-7.95-10.729-13.651-18.909-15.161-0.18 1.29 0.3697 2.6506 1.6297 3.1906 2.56 1.44 5.3191 2.4697 7.8891 3.9297 2.14 1.95 4.08 4.19 5.55 6.7 2.14 3.71 1.7509 8.2509 1.4609 12.361-0.34 1.9-1.3503 3.8588-3.2203 4.6188-4.32 1.56-9.4297 1.6606-13.43-0.80938-4.81-2.34-6.3006-7.7703-9.2906-11.77-7.06-6.47-16.94-8.1197-24.63-13.58-1.44-2.32-1.4103-5.4694-0.6703-8.0594 7.44-1.61 15.131-2.23 22.361-4.75 4.41-1.55 9.1191-1.8406 13.739-2.2906 5.2-0.43125 10.428-0.70205 15.653-0.70313z" fill="#363639"/>
</svg>
