<?xml version="1.0" encoding="utf-8"?>
<!-- Generator: Adobe Illustrator 22.0.1, SVG Export Plug-In . SVG Version: 6.00 Build 0)  -->
<svg version="1.1" xmlns="http://www.w3.org/2000/svg" xmlns:xlink="http://www.w3.org/1999/xlink" x="0px" y="0px"
	 viewBox="0 0 628.4 677" style="enable-background:new 0 0 628.4 677;" xml:space="preserve">
<style type="text/css">
	.st0{display:none;}
	.st1{display:inline;fill:#EDD5BD;stroke:#000000;stroke-linecap:round;stroke-linejoin:round;}
	.st2{display:inline;fill:#A08D7C;stroke:#000000;stroke-linecap:round;stroke-linejoin:round;}
	.st3{display:inline;fill:none;stroke:#000000;stroke-linecap:round;stroke-linejoin:round;}
	.st4{display:inline;fill:none;stroke:#000000;stroke-linecap:round;}
	.st5{display:inline;fill:#8E7762;stroke:#000000;stroke-linecap:round;stroke-linejoin:round;}
	.st6{display:inline;fill:#2C2424;stroke:#000000;stroke-width:0.9549;stroke-linecap:round;stroke-linejoin:round;}
	.st7{display:inline;fill:#161212;stroke:#000000;stroke-linecap:round;stroke-linejoin:round;}
	.st8{display:inline;fill:#2C2424;stroke:#000000;stroke-linecap:round;stroke-linejoin:round;}
	.st9{display:inline;fill:#171111;stroke:#000000;stroke-linecap:round;stroke-linejoin:round;}
	.st10{display:inline;fill:#8D7663;stroke:#000000;stroke-linecap:round;stroke-linejoin:round;}
	.st11{display:inline;fill:#584848;stroke:#000000;stroke-linecap:round;stroke-linejoin:round;}
	.st12{display:inline;fill:#574949;stroke:#000000;stroke-linecap:round;stroke-linejoin:round;}
	.st13{display:inline;fill:#251F1F;stroke:#000000;stroke-linecap:round;stroke-linejoin:round;}
	.st14{display:inline;fill:#FFFFFF;stroke:#000000;stroke-linecap:round;stroke-linejoin:round;}
	.st15{display:inline;stroke:#000000;stroke-linecap:round;stroke-linejoin:round;}
	.st16{display:inline;fill:#D7B694;stroke:#000000;stroke-linecap:round;stroke-linejoin:round;}
	.st17{fill:#FFFFFF;stroke:#000000;stroke-linecap:round;stroke-linejoin:round;}
	.st18{clip-path:url(#SVGID_2_);}
	.st19{fill:#1F1F1F;}
	.st20{fill:#E8E8E8;stroke:#000000;stroke-width:1.273;stroke-linecap:round;stroke-linejoin:round;}
	.st21{fill:none;stroke:#000000;stroke-linecap:round;stroke-linejoin:round;}
	.st22{fill:#333333;stroke:#000000;stroke-linecap:round;stroke-linejoin:round;}
	.st23{fill:none;stroke:#000000;stroke-linecap:round;}
	.st24{fill:#E8E8E8;stroke:#000000;stroke-linecap:round;stroke-linejoin:round;}
	.st25{fill:#251F1F;stroke:#000000;stroke-linecap:round;stroke-linejoin:round;}
	.st26{stroke:#000000;stroke-linecap:round;stroke-linejoin:round;}
	.st27{clip-path:url(#path3872_4_);fill:#1F1F1F;}
	.st28{clip-path:url(#path3882_4_);fill:#1F1F1F;}
	.st29{display:inline;}
	.st30{clip-path:url(#SVGID_4_);}
	.st31{clip-path:url(#path3872_5_);fill:#1F1F1F;}
	.st32{clip-path:url(#path3882_5_);fill:#1F1F1F;}
</style>
<g id="svg74" xmlns:cc="http://creativecommons.org/ns#" xmlns:dc="http://purl.org/dc/elements/1.1/" xmlns:rdf="http://www.w3.org/1999/02/22-rdf-syntax-ns#" xmlns:svg="http://www.w3.org/2000/svg">
	<g id="svg2" class="st0">
		<title  id="title3930">Sciccareddu</title>
		<path id="path3853" class="st1" d="M127.6,300c3.8-0.6,11.9-2,17.8,0.9c15.4,10.8,4.5,31.7-2.5,39.6c-9.2,10.3-22.1,19-39,26.1
			c-17,7.1-32,3.3-19.4-12.8c-22.6,0.5-54.5,3.6-51.9-18.6c-1.6,2.8,1.9,10.7,2.5,11.1c0.9,0.6-3.3-0.5-10.4-5.5
			c-16-12.2-17.2-28.7-10.6-46.6c-1.9,4.6-2.8,9.9-3.7,15.4c-9.2-13.5-7.3-21.9,3-32.2c1.4-1.2,4.7-4,10.1-3.1
			c1.2,0.4,3.7,0.7,2.6,2c-2.4,2.9-6.6,9-7.5,11.4c2.2-4.3,4.8-8.4,8-12c16.5-16.2,25.7-20.4,48-24.3
			C99.3,264.1,107.3,287.1,127.6,300L127.6,300z"/>
		<path id="path3866" class="st2" d="M229.7,143.4c0,0,67.9,26.4,54.1,28.1c6.9,2.3,10,7.8,11.7,21.3c-0.2,18.1-5.9,36.1-8.5,57.3
			c-10.5,96.1,98,68.9,159.5,55.5c17.6-3.9,46.8-3.7,65.1,2.3c22.2,7.7,31.4,15.7,43.1,24.4c12.7,8.7,43.3,0.3,49.4-18.4
			c6.5-18.9-0.7-43.1-19.7-53.6c-31.2-13-94.6,42.1-76.3,12.2c0.3,0.3-17.7,5.6-14.5,0.5c17.1-20.6,49.5-28.5,67.6-31.9
			c41.2-5.3,68.2,24.8,61.6,67.8c-2.6,22.7-26.1,44.7-50.9,44.4c4.8,31.5-1.1,64.8-16.2,86.5c-17.3,22.7-34.9,42-52.4,65.6
			c-13.4,22.2-11.5,25.3-12.2,31.7c1,6.2,2.3,12.3,1.5,24.2c-0.8,7-0.1,12.6-7.2,25.9c-1.7,5.2-2.6,11.1-1,18.9
			c2.8,7.7,5.5,15.5,7,23.9c0.1,12.7-15,0.1-19.4-3c-15.7,3.5-15.7-9.8-29.2-11.2c-28.9,11.2-11.9-6.4,2.2-17.5
			c2.4-2,6.2-8.4,2.5-16.2c-2.4-7.1-4.9-12.8-6-22.9c-1.2-6,5.1-20.1,6-28.9c-6.4-13.2-8.1-19.1-20.1-35.2c-2.8-1.9-13.5-5.3-26.6-2
			C364,503.8,300,497,276.1,483.5c2.3,15.5,3.4,22.9,1.6,40.6c-1.8,19.8-10.5,34.3-14.7,52.1c-1.4,11.6,3.3,21.6,7,31.9
			c3,7.2,9.9,23.4-0.5,18.9c-4.9-4-2.6-2.8-10.5-8c-5.8,0-7.6,3.5-12,3c-9.2-3.7-8.7-11.8-14-13.7c-4.8,0.1-12.5,2.3-21.9,5.7
			c-8.4,3-9.8-3.4-3.7-7.7c12.6-8.5,15.2-9.9,22.5-19.2c-0.7-13.6-2.7-3-6.1-38.5c0.2-15.8,6.3-20.1,6.2-37.2
			c1-18.9-14.9-26.2-26.3-50.3c-6.6-29.5-1-47.9,3.3-77.3c2.1-21.4-8.9-49.7-30.4-59.8c-5.8-0.1-19.8,5.1-33.9,16.6
			c5.1-6.5,10.1-16.1,10.5-21.2c0.8-25.2-18.6-20.2-25.8-19.6c-12.2-5.5-31.9-37.9-52.9-48.6c6-8.9,9.2-19.3,14.3-30.7
			c3.9-10.2,0.4-23.8,10-39.8c6.6-10.5,28.7-22.5,30.5-24.4c-9.3,19.1,34.3-8,39.6-9.7c-12.7,7.6-22.3,24.5-5.7,20.7
			c18.8-2.8,25.8-12.2,35.9-19.9c-12.5,16.6,3.1,9.2,7.7,5l17-15C216.1,147.9,220.4,150.3,229.7,143.4L229.7,143.4z"/>
		<path id="path3868" class="st3" d="M289.5,426.1c-8.6,20.9-12.2,35.7-13.3,57.2c2.1-10.1,5.3-19.4,11.3-28.3"/>
		<path id="path3870" class="st4" d="M448.3,393.2c-28.3,24.1-35.2,62.1-21,101.6"/>
		<path id="path3872" class="st5" d="M399.8,493.5c4.3,9.3,6.6,10.2,13.3,20c4.3,8.7,7.9,13.5,8.1,23.2c-4,15-6,31.3-2.7,45.1
			c-5.8,5.3-22.1,18.5-6.7,18.9c4.4-1.2,8.2-5.1,12-6c7.6-1.5,11.1,11.2,12.9,10c2.5-2.8,17.6-7.6,9.6-24.8
			c-1.4-6.8-5-12.3-4.5-24.7c1.9-11.1,5.3-20,5.3-24.8c-0.3-5.1-12.1-24.7-19.4-35.5C420.2,492.5,412.5,490.1,399.8,493.5
			L399.8,493.5z"/>
		<path id="path3874" class="st6" d="M427.2,616.4c-17.8,15-21,27.8-21.7,44.9c0.7,11,64.9,7.6,74.2,0.7c5.8-8.8,4.7-25.3,4.3-27.4
			c-2.6-1.3-8.2-5.3-12.2-8.8c-5.1,2.1-9.4,0.9-13.1-2.1c-5-4.1-10-6.6-15.1-8C426.9,621.1,426.4,618.3,427.2,616.4L427.2,616.4z"/>
		<path id="path3876" class="st7" d="M405.6,599c-15.3,14.7-23,36.3-20.7,45.6c1.4,2.6,3,4.5,22.1,2.9c3.4-11.5,10.2-21.4,19.7-30.6
			c1.5-5.1,5.9-8.1,9.6-11.7c-5-6.4-6.5-12.1-13.5-10C415.2,598.6,412.9,603,405.6,599L405.6,599z"/>
		<path id="path3878" class="st8" d="M204.8,614.3c-8.3,4.2-11,9.4-14.7,15c-6.4,11.2-7.3,18.2-6.2,27.2c2.4,6.4,27.5,3.5,38.9,4
			c16.2-0.6,33.4-1,37.4-3.5c3-4.4,4.1-12.1,5.5-16.7c0.9-5.9,3.1-12.9-2-17.7c-5.3-6-10-2.2-15.7-0.2c-6.5-0.6-7.3-7.2-14.2-13.5
			c-5-1.1-10,1.5-15,2.7C213.5,613.1,206.3,616.5,204.8,614.3L204.8,614.3z"/>
		<path id="path3880" class="st9" d="M190.1,529.5c7.1,12.1,13.7,26.4,10.2,30.2c-16.6,17.3-64.9,39-71.3,33.4
			c-12.2-5.3-10.2-44.6,1.2-55.6c7.6,3.2,6.8-4.5,18.4-13.8c9.6-6.9,9.9-6.6,19.4-0.9c8.6-5.2,9.4-2.5,13.5,3.9
			C183.2,527.9,189.4,529.3,190.1,529.5L190.1,529.5z"/>
		<path id="path3882" class="st10" d="M204.3,402.2c0.6-3.8-19.6,21.9-30.9,29.3c-9.8,6.5-46.1,19.3-52.8,26.9
			c-16.8,19.2,7,48,12.5,58.6l-3.2,17.7c-0.4,4.8,5.6,4.9,8.2,0.6c6.4-10.8,17-17.3,19.7-17.3c4.2,0.1,7.8,2.6,10.5,5.1
			c5.8-3.7,8.2-6.6,13.2,3.4c14.9,7.9,17.4-1.2,14.2-8.5c-4.2-4.8-11.4-8.5-19.7-14.2c-3.5-6-4.6-15.3-5.3-25.1
			c15.5-5.7,26.9-11.2,33.3-17.3C199.2,438.7,201.2,424.3,204.3,402.2L204.3,402.2z"/>
		<path id="path3884" class="st3" d="M165.9,467.4l5.5,10l-3.5,4l-9-5h-8.5"/>
		<path id="path3886" class="st11" d="M585,125.2c-15.7,20.4-19.2,35.2-28.2,59.1c-2.2,9.3-6.5,23-17,36.9
			c-8.8,10.9-19.7,19.1-30.8,27.6c-5,4.4-3.8,7.4-1.3,11.7l-9.4,7.4c-17.8,16.8,27-3,10.1,4.7c-5.5,9.3-3.3,8.7-1.2,8.9
			c-69.1,38.2-51.8-60.7-17.6-80.2c-4.9,7.6-6.7,14.2-8.7,20.8c3-7.9,4.2-15.3,10.2-22.7c7.9-9.5,10.4-18.9,26.5-29.5
			c7.5-4.3,14.1-8.4,22.4-10.5c0.6,7-3.9,13-8.7,17.8c-2.3,2.3-4.6,4.3-6.5,6c7.7-7.7,15.5-11.9,15.2-23.8
			c15.2-7.8,24.1-18.4,36.4-28.3L585,125.2z"/>
		<path id="path3888" class="st3" d="M532.9,187c-6.3,10.7-7.6,12.7-14.5,16.2c2.5-0.9,4.5-2.6,7.1-4.4c2.2,11.6-2.6,19.1-7.6,22.3"
			/>
		<path id="path3890" class="st3" d="M547.8,196.7c-1.4,8.8-5.1,16.8-8.5,24.9"/>
		<path id="path3892" class="st3" d="M508.8,209.1c-12.7,9.1-23.7,25.6-25.1,40.6c-0.7,0.7-1.3-11.4-1.1-10.5
			c-6.6,9.9-8.3,15.5-9.8,26.7"/>
		<path id="path3894" class="st12" d="M303.5,164.2c11.1,7.4,24.2,41.7,13.1,40.5c-6-4.5-7.6-10-9.6-15.5c1.8,6.1,4.4,11.7,9.5,15.5
			c1.2,12.3-1,55.6-10,52.8c-2.7-5.4-4.1-11.2-2.6-17.6c-2.4,7.5,0.5,12.9,2.6,18.6c0.7,21,14.8,28.9,30.4,39.4
			c8.6,6.9,4.1,9-3.9,8.4l-8.5-7.6l15.1,13.6c5.4,3.6,8.7,5.1,12.4,7c-14-0.6-19.2-0.1-38.1-7.2c-21.9-13.5-29.6-26.7-26.3-66.3
			c9.1-44.8,8.5-45.4,7.9-54.6c-0.6-9.9-5.7-17.1-10-19.6C294.3,170.5,299.1,167.1,303.5,164.2L303.5,164.2z"/>
		<path id="path3896" class="st3" d="M278.1,256c-6.7,13.8-16.9,30.3-28.5,39.5c-24.7,19-44.8,26.3-72.6,28.4"/>
		<path id="path3782-5" class="st13" d="M168.3,193.7c-0.6-2.6-3.6-8.9-8.1-10c-14.3-3.1-11.7,13.4-1.9,4.9
			C166.9,188.9,171.8,206.9,168.3,193.7z"/>
		<path id="path3788-8" class="st3" d="M143,204.1c-14.6,17-21.7,43.6-16.7,62.1"/>
		<path id="path3778-8" class="st3" d="M107.1,314.1c3.5-6.7,2.5-15.7-3-18.3c-15-6.6-30.1,18.9-28.1,31c0.5,2.2,1.2,2.7,2.6,3.7"/>
		<path id="path3780-1" class="st13" d="M97.8,307.2c-2.5,0-5.5,3-8.5,6.7c-2.3,2.8-4.1,5.9-4.9,9.2c-0.4,2.4,0,4.3,1.4,5.8
			c6.1,4.6,6.2-11.2,8.5-15.3L97.8,307.2z"/>
		<path id="path3790-2" class="st14" d="M143.2,209.5c8.6-3.6,16.2,2,17.5,7.5c3.9,13.2-4.3,45.7-18.1,47.6
			c-14.2,2.1-17.8-9.6-16-24.4C130.5,224.1,134.6,213.2,143.2,209.5z"/>
		<path id="path3792-1" class="st15" d="M155.7,250.9c-0.2-11.3-8.8-10-11-1.1c-1.2,4.7-2.7,19,6.2,9.3"/>
		<path id="path4094" class="st12" d="M236.7,116.7c-9.4-9.6-19.2-14.7-27.2-16.8c0,0-15.8-3.3-30.7-2.8
			c-20.5-0.4-72,17.2-59.9,22.7l19.2-7.3c0,0-20.8,8.3-23.6,9c-18.1,8.3-49.7,37.1-26,28.9c4-1.4-3.3,1.5,24.9-13.2
			c-11,6.9-19.8,7.7-33.1,21.2c-6.3,7-16.2,18.6-18.3,24c-9.1,22.4,33.5-1.9,38.9-4.8c3.7-2.9,1-2.6,45.2-32.8l-15.9,11.3
			c-9.9,20.1,32.2-6.7,39.1-9.3c1.7-1.7-23.4,17.1-11.5,21.2c18.4,0.2,28.3-9.3,41.7-20.3c-7.6,8.3-5.1,11.1-1.4,10
			c10.9-4.2,17.7-13.3,25.5-19.8c-6.8,11.5-3.1,11.6,6.5,5.7C232.1,134.4,232.3,125.5,236.7,116.7L236.7,116.7z"/>
		<path id="path4096" class="st10" d="M155,100.4c-5.2-9.3-16.9-24.5-22.5-29.7c-14-12.1-37.4-18.4-45.9-22.5L56.7,34
			c-5.1-2.7-25.4-24-29.3-26.8C13.3-4.3,25.1,28.6,30,33.9c4.4,6.9,19,18.1,26.3,24.8c-4.9-6.6-11-10.9-14.1-21.2
			c1.7,7.9,8.2,14.2,13.7,20.8c18.4,8.8,45.5,36.9,48,40.7l11.1,22.2l3.9-1.7c-8-3,11.9-11.5,14-12.5L155,100.4z"/>
		<path id="path4098" class="st16" d="M56.5,58.8c5.3,5.3,11.4,9.9,15.2,16.7c8.6,12.4,14.4,27.2,20.4,41.8
			c5.3,11.9,7,11.5,8.3,12.3c7.4-5,8.7-5.7,14.6-8.5l-10.8-21.7c-1.6-3.7-18.5-19-27.6-26.8C70.2,66.6,63.4,62.5,56.5,58.8
			L56.5,58.8z"/>
		<path id="path4100" class="st1" d="M271.6,118.9c0-8.2,18-23,33.6-32.2C322.8,76,339,70.9,366.1,56.8l17.2-16
			c-20.2,21.7-34.4,29-55.4,45.8c-10,7.7-12.9,15.9-15.6,24.2c-2.2,12.1-5,15.6-7.8,20.5c-7,10.5-15.9,18.8-26.7,23.4
			c-19.1,7.3-11.7-7-5.6-20.5C272.8,129,274.3,131.3,271.6,118.9L271.6,118.9z"/>
		<path id="path4102" class="st13" d="M84.7,353.7c18.6-7,32.1-16.6,46.3-26.3c3.3-4.6,4.2-9.5,6.1-14.3c-3.3-1-4.1,2.6-5.4,4.4
			c0.7-2.6,3.2-5.8,5.8-4.8c5.4,1,3.6,7.4,3.8,11.1c-0.5-3.8,0.3-9.7-4-10.7c-2.7,5.1-3.1,10.3-5.9,14.4s-8.6,11.9-11.8,15.3
			c-6.4,6.8-13.8,12.1-23.2,16.7c-11.4,4.6-7.9-6.1-1.3-10.1L84.7,353.7z"/>
	</g>
	<g>
		<path id="path42_1_" class="st17" d="M561.2,241.3c-18,3.4-50.5,11.3-67.6,31.9c-3.2,4.9,13.6,0.1,14.4-0.5
			c-18.2,29.8,45.1-25.2,76.3-12.3c19,10.5,26.2,34.7,19.7,53.6c-5.3,16.5-29.5,24.9-43.9,20.9c-11-11.5-27.1-20.8-48-27.3
			c-18.3-6.1-47.5-6.2-65.1-2.3c-61.5,13.3-170,40.5-159.5-55.5c2.6-21.2,8.3-39.2,8.5-57.3c-1.7-13.2-4.7-18.7-11.3-21.1
			c0.9-0.3,1-0.8,0.6-1.5c10.2-14.1,62.4-68.2,29.9-87.5c-21.6-14.7-78.7,53.4-78.9,53.5c-0.1,0-61-18-82-1.7
			c-0.1,0.1-24.7,22.3-25.1,22.6c0-0.1,0.1-0.2,0.1-0.2c-1.8,1.9-15.8,13.6-22.4,24.1c-9.6,16-14.2,29.9-18.1,40.1
			c-5.1,11.4-8.3,21.8-14.3,30.7c21,10.7,40.7,43.1,52.9,48.6c7.3-0.6,26.7-5.6,25.8,19.6c-0.4,5-5.4,14.6-10.5,21.2
			c14.1-11.6,28.1-16.7,33.9-16.6c21.5,10.2,32.6,38.5,30.4,59.8c-4.4,29.5-9.9,47.8-3.3,77.3c11.4,24.2,27.3,31.5,26.3,50.3
			c0.1,17.2-6,21.4-6.2,37.2c3.4,35.5,5.3,24.9,6.1,38.5c-3,3.9-5.3,6.4-7.7,8.6c-3.3,2.9-7.2,5.4-14.1,10c-0.5,0.4-0.9,0.7-1.3,1.1
			c-5.3,4.3-3.7,10.1,4.4,7.2c9.4-3.4,17.2-5.6,21.9-5.7c5.2,1.9,4.8,10,14,13.7c4.4,0.5,6.2-3,12-3c7.9,5.2,5.6,4,10.5,8
			c2.6,1.1,4.1,0.9,4.9-0.1c3.7-1.9-1.3-13.6-3.7-19.4c-3.7-10.3-8.3-20.3-7-31.9c4.2-17.8,12.9-32.3,14.7-52.1
			c1.8-17.4,0.7-24.9-1.5-39.6c24.5,13.3,87.5,19.8,123.9,9.2c13.1-3.3,23.8,0.2,26.6,2c12,16,13.7,22,20.1,35.2
			c-0.8,8.8-7.2,23-6,28.9c1,10.2,3.6,15.8,6,22.9c3.4,7.2,0.4,13.3-2,15.7c-2.8,2.2-5.7,4.7-8.4,7.1c-11,10-17.9,20,5.6,10.8
			c13.4,1.5,13.4,14.7,29.2,11.2c3.7,2.6,14.5,11.5,18.2,7.6c1.3-0.7,2-2.2,2-5.2c-1.5-8.4-4.2-16.2-7-23.9
			c-1.6-7.9-0.7-13.7,1-18.9c7.1-13.3,6.4-18.9,7.2-25.9c0.9-11.9-0.5-18-1.5-24.2c0.7-6.3-1.2-9.5,12.2-31.7
			c17.5-23.6,35-42.8,52.4-65.6c14.7-21.5,24.4-56.4,16.1-85.9c24.5,0,47.6-21.9,50.2-44.4C629.3,266.1,602.3,236,561.2,241.3z"/>
		<g>
			<defs>
				<path id="SVGID_1_" d="M561.2,241.3c-18,3.4-50.5,11.3-67.6,31.9c-3.2,4.9,13.6,0.1,14.4-0.5c-18.2,29.8,45.1-25.2,76.3-12.3
					c19,10.5,26.2,34.7,19.7,53.6c-5.3,16.5-29.5,24.9-43.9,20.9c-11-11.5-27.1-20.8-48-27.3c-18.3-6.1-47.5-6.2-65.1-2.3
					c-61.5,13.3-170,40.5-159.5-55.5c2.6-21.2,8.3-39.2,8.5-57.3c-1.7-13.2-4.7-18.7-11.3-21.1c0.9-0.3,1-0.8,0.6-1.5
					c10.2-14.1,16.1-38.5,22.5-56.5c2-16.3,7.3-19.8,2.3-23.3c-7.8-5.5-32.1,15.6-40.3,22.7c-11.6,9.9-33.3,23-33.5,23.1
					c-0.1,0-61-18-82-1.7c-0.1,0.1-24.7,22.3-25.1,22.6c0-0.1,0.1-0.2,0.1-0.2c-1.8,1.9-15.8,13.6-22.4,24.1
					c-9.6,16-14.2,29.9-18.1,40.1c-5.1,11.4-8.3,21.8-14.3,30.7c21,10.7,40.7,43.1,52.9,48.6c7.3-0.6,26.7-5.6,25.8,19.6
					c-0.4,5-5.4,14.6-10.5,21.2c14.1-11.6,28.1-16.7,33.9-16.6c21.5,10.2,32.6,38.5,30.4,59.8c-4.4,29.5-9.9,47.8-3.3,77.3
					c11.4,24.2,27.3,31.5,26.3,50.3c0.1,17.2-6,21.4-6.2,37.2c3.4,35.5,5.3,24.9,6.1,38.5c-3,3.9-5.3,6.4-7.7,8.6
					c-3.3,2.9-7.2,5.4-14.1,10c-0.5,0.4-0.9,0.7-1.3,1.1c-5.3,4.3-3.7,10.1,4.4,7.2c9.4-3.4,17.2-5.6,21.9-5.7
					c5.2,1.9,4.8,10,14,13.7c4.4,0.5,6.2-3,12-3c7.9,5.2,5.6,4,10.5,8c2.6,1.1,4.1,0.9,4.9-0.1c3.7-1.9-1.3-13.6-3.7-19.4
					c-3.7-10.3-8.3-20.3-7-31.9c4.2-17.8,12.9-32.3,14.7-52.1c1.8-17.4,0.7-24.9-1.5-39.6c24.5,13.3,87.5,19.8,123.9,9.2
					c13.1-3.3,23.8,0.2,26.6,2c12,16,13.7,22,20.1,35.2c-0.8,8.8-7.2,23-6,28.9c1,10.2,3.6,15.8,6,22.9c3.4,7.2,0.4,13.3-2,15.7
					c-2.8,2.2-5.7,4.7-8.4,7.1c-11,10-17.9,20,5.6,10.8c13.4,1.5,13.4,14.7,29.2,11.2c3.7,2.6,14.5,11.5,18.2,7.6
					c1.3-0.7,2-2.2,2-5.2c-1.5-8.4-4.2-16.2-7-23.9c-1.6-7.9-0.7-13.7,1-18.9c7.1-13.3,6.4-18.9,7.2-25.9c0.9-11.9-0.5-18-1.5-24.2
					c0.7-6.3-1.2-9.5,12.2-31.7c17.5-23.6,35-42.8,52.4-65.6c14.7-21.5,24.4-56.4,16.1-85.9c24.5,0,47.6-21.9,50.2-44.4
					C629.3,266.1,602.3,236,561.2,241.3z"/>
			</defs>
			<clipPath id="SVGID_2_">
				<use xlink:href="#SVGID_1_"  style="overflow:visible;"/>
			</clipPath>
			<g class="st18">
				<path class="st19" d="M60.6,315.7c3.9,1.1,86.9-33.8,109.7-29.2c33.9,5.6,24.6,34.6,24.6,34.6l12.3-2.8c0,0-4.2-48.1-31.3-49.3
					c-1,0-5-3.3-31,7.3s-90.8,18.5-90.8,18.5S59.3,311.7,60.6,315.7z"/>
				<path class="st19" d="M196.9,263c30,18.7,21.3,51,21.3,51c4.2-0.1,16.3-7.8,21-11.7c0,0-5.1-34.8-34-52c-21.8-3.8-45.7,8-45.7,8
					S182.9,257.3,196.9,263z"/>
				<path class="st19" d="M207,239.9c30,18.7,39.9,57.4,39.9,57.4c6.8-4.8,8.5-6.5,15.3-14c0,0-13-23.3-44-51
					c-21.5-7.8-48.5,3-48.5,3S193,234.2,207,239.9z"/>
				<path class="st19" d="M44.4,343.8c3.9,1.1,86.9-33.8,109.7-29.2c21.3-6.8,23.1,9.6,23.1,9.6l9.3-1.5c0,0,1.1-19.5-26-20.7
					c-1,0-122.6,20.9-122.6,20.9S43.1,339.9,44.4,343.8z"/>
				<path class="st19" d="M81.2,259.5c10.5-20.5,22.8-51.5,36.5-74.8c14.3-24.2,32.1-41.6,42.8-51.8l-3-4.8c0,0-10.8,16.3-22.8,26.5
					s-20.5,21.1-23.8,26c-5.3,8-8,26-37.5,73C73.9,253.3,77.9,257.6,81.2,259.5z"/>
				<path class="st19" d="M87.1,266.2c4.4-8.2,14.4-11,18.1-21.7c6-17.5,14.8-40.3,24.4-55.8c16.1-25.8,36-44.4,47.9-55.2l-7.9-7.3
					c0,0-10.3,17.3-23.8,28.3c-13.4,10.9-20.2,24.8-23.8,30c-4.5,6.6-13.4,30.2-26.2,59.2c-3.9,8.9-8.4,7-16,18.5
					C80.4,261.7,83.5,264.2,87.1,266.2z"/>
				<path class="st19" d="M98.9,274c3.8-4.8,22-12.5,21.3-27c-0.7-15.7,8.1-32.1,19.1-48.5c13.1-19.5,33.6-49.7,62.3-67.7l-22.3,5.3
					c0,0-9.6,13.8-23,24.8c-13.4,10.9-21,28.3-24.6,33.5c-4.8,6.9-11.6,27-21.3,55.4c-2.7,7.8-11.5,9-16.7,18.8
					C94.5,268,95.3,272,98.9,274z"/>
				<path class="st19" d="M406.2,325.3c14.5,133-39.3,178.9-39.3,178.9l40.3-8.6c0,0,14.9-60.4,12.2-92.9
					c-2.7-32.5,12.9-59.5,10.2-60.5C426,340.8,412.3,336.3,406.2,325.3z"/>
				<path class="st19" d="M519.6,300.1c0.9,3.3-13.4,18.7,17.2,43.2c13.5,10.9,16,38.1,22.8,48.2c24.3,36.2,11.5,64.3,11.5,64.3
					l18.8,0.4c0,0-15-80.1-33.8-106.8s-20.6-41.1-20.6-41.1S522.8,296.4,519.6,300.1z"/>
				<path class="st19" d="M406.5,309.7c1.7,4.5,68.4,38,95.7,72.1c11,13.8,30.8,17.2,41.4,31.9c15.6,21.6,54.7,53,54.7,53L574.6,430
					c0,0-38.5-44.2-59.4-69.3s-95.9-65-95.9-65S409.3,305.6,406.5,309.7z"/>
				<path class="st19" d="M410.5,344c1.1,2.9,5.5,10.6,27.3,23.3c12.5,7.3,16.6,22.1,30.1,30.6c19.5,12.3,76.6,84.9,76.6,84.9
					l11-15.7c0,0-52.3-49.5-65.8-79.3c-14.7-32.4-71.8-50.1-71.8-50.1S413.3,340,410.5,344z"/>
				<path class="st19" d="M430.7,415.5c1.7,4.5,16.9-3.1,42.2,32.5c24.3,34.3,58.2,39.3,58.2,39.3l-0.8-6.2c0,0-22.7-15.8-43.7-40.8
					c-20.9-25-44.8-40.3-44.8-40.3S433.4,409.2,430.7,415.5z"/>
				<path class="st19" d="M420.7,458.3c1.7,4.5,17.2,3.2,54.3,26.2c36.2,22.3,41.5,21,41.5,21l1.5-11.5c0,0-16.7,3.5-37.7-21.5
					s-57-39-57-39S420.6,446.2,420.7,458.3z"/>
				<path class="st19" d="M424.6,485.2c1.7,4.5,1.4,14.8,43.7,25.5c10.5,2.7,40.5-3.2,40.5-3.2s-22.5,3.5-45.8-7
					c-29.8-13.4-40.3-25.7-40.3-25.7S421.9,473,424.6,485.2z"/>
				<path class="st19" d="M290.9,253.3c-4.7,1.2-21.4,54.6-58.1,78.1c-0.6,0.4-1.2,0.8-1.8,1.1c-36.6,22.5-88,23.5-88,23.5
					l-0.8,18.8c0,0,80.4-13.4,107.5-31.6s43.2-79,43.2-79S294.6,256.5,290.9,253.3z"/>
				<path class="st19" d="M318.2,304.2c-3,0.8-9.8,22.5-24.8,36.8c-8.1,7.7-19.2,5.7-32,13.9c-36.7,23.6-89.8,24.6-89.8,24.6
					l-0.8,18.8c0,0,80.4-13.4,107.5-31.6s52.6-54.6,52.6-54.6S321.9,307.4,318.2,304.2z"/>
				<path class="st19" d="M324.9,340.7c-3.1,2.6-51.3,40.8-63.8,54.9c-8.2,9.2-14.1,18.5-25.5,22.1c-29.1,8.9-56.7,12-56.7,12
					l-0.7,18.3c0,0,72.9-12.5,100-30.7c6.5-4.4,12.4-19.5,17.9-25.1c17.6-17.6,29.5-37.5,29.5-37.5S328.6,343.9,324.9,340.7z"/>
				<path class="st19" d="M503.5,556.5c-3.1-1.4-8.8,10.5-40.6-4.3c-29.3-13.6-30.3-11.5-30.3-11.5l1.7,23.8c0,0,7.6,5.5,31.7,7.5
					c24.1,1.9,39.9-8.2,39.9-8.2S503.8,560,503.5,556.5z"/>
				<path class="st19" d="M277.6,468c-4.7-0.8-86.5,31.6-129.6,37.9c-43.2,6.3-92-14.6-92-14.6l-8.4,16.8c0,0,78.8,20.9,111,15.5
					c32.8-23.4,119.4-32.7,118.3-37.7C275.6,481,276.9,473.8,277.6,468z"/>
				<path class="st19" d="M287.9,431.2c-4.7-0.9-14.9,12.5-58.2,18.3S71.5,450,71.5,450l-8.6,16.7c0,0,118.3,15.3,150.6,10.2
					s67-24.3,67-24.3S283.7,438.2,287.9,431.2z"/>
				<path class="st19" d="M552.6,578.9c-2.7-1.2-57.2,4.5-84.4,1.6c-27.2-2.9-52.2-22.7-52.2-22.7l-8.6,8.6c0,0,42.9,24.4,63.4,26.2
					c20.4,1.8,82.9-5,82.9-5S552.9,581.8,552.6,578.9z"/>
				<path class="st19" d="M559.4,596.6c-2.9-1.3-63.5,6.1-93.5,3.5c-30.1-2.6-57.3-23.5-57.3-23.5l-9.7,9.5c0,0,47,25.6,69.6,27
					s91.9-7.1,91.9-7.1S559.6,599.8,559.4,596.6z"/>
				<path class="st19" d="M545.2,505.2c-2.7-1.2-56.8,16.5-84,13.6c-27.2-2.9-52.2-22.7-52.2-22.7l-8.6,8.6c0,0,42.9,24.4,63.4,26.2
					c20.4,1.8,82.9-5,82.9-5S545.5,508.2,545.2,505.2z"/>
				<path class="st19" d="M341.7,315.5c-0.7,2.5,8,19.4,11,40.8c2.6,18.7-0.6,40.6,0.7,60.9c2.7,43.5,1.6,89.2,1.6,89.2l10.3,6.7
					c0,0-1.4-20.4,5.7-46.7c5.8-21.5,2.3-43.5,1-58.1c-2.7-32.5-8-94.2-8-94.2S346.3,313.8,341.7,315.5z"/>
				<path class="st19" d="M324.6,341.1c-2.3,4.3-18.9,63.9-26.1,106.9s-15.9,47.5-15.9,47.5l11,37.5c0,0,24.6-35.1,23.3-67.7
					c-0.3-6-3-17.3,3.8-36.5c16.3-46.2,10-76,10-76S329.5,340.5,324.6,341.1z"/>
				<path class="st19" d="M283.6,543c-3.3-1-12.5,12.6-44.8,13.3c-32.3,0.7-29.2-3.3-29.2-3.3l-3.7,23.7c0,0,0.7,2.2,24.9,1.2
					C255,576.8,282,557,282,557S284.3,546.4,283.6,543z"/>
				<path class="st19" d="M329.8,549.7c-2.9-0.2-74.8,28.7-78.9,30.1c-4.1,1.4-15.5,3-15.5,3s23.5,4.6,43.3-0.7
					c19.8-5.3,55-24.6,55-24.6S331.1,552.3,329.8,549.7z"/>
				<path class="st19" d="M329.3,570.6c-3.1-0.8-56.7,28.5-91.6,19.4c-29.2-7.6-60.5-13.4-60.5-13.4l-16.2,38
					c0,0,60.1-15.7,81.9-9.3c17,5,90.7-12,90.7-12S330.1,573.7,329.3,570.6z"/>
				<path class="st19" d="M282.7,503.2c-2.5-1.5-43.9,6.7-70.7,0.7c-26.7-6-49.3-28.5-49.3-28.5l-9.5,7.6c0,0,39.9,29.1,60,33.2
					c20.1,4.1,78.3,15.1,78.3,15.1S282.7,506.2,282.7,503.2z"/>
				<path class="st19" d="M330.9,435c0,0-1.9,34.3-5,64.3s-20.3,56.3-20.3,56.3l9.3,9.8c0,0,26.4-46.6,28.2-69.2
					c1.9-22.6,0.1-105,0.1-105L330.9,435z"/>
				<path class="st19" d="M389.9,383.3c0,0,8.2-32.5,6.3-62.6s6.3-55.8,6.3-55.8l-16.3-12.6c0,0-18.2,50.3-16.3,72.9
					c1.9,22.6,17.4,103.5,17.4,103.5L389.9,383.3z"/>
				<path class="st19" d="M534.1,435.5c0,0,23.9,23.8,45.6,44.8c21.7,21,31.8,50.8,31.8,50.8l13.5-1.3c0,0-20.4-49.5-37-64.9
					c-16.6-15.4-82.5-64.9-82.5-64.9L534.1,435.5z"/>
				<path class="st19" d="M288.5,307.7c0,0,20.7-26.7,39.5-50.3s25-54.4,25-54.4l13.5-0.5c0,0-13.8,51.7-28.3,69.1
					c-14.5,17.4-73.5,75-73.5,75L288.5,307.7z"/>
				<path class="st19" d="M105.2,281.3c3-2.7,6.3-6.3,20-6c6.1,0.1,44.3-6,44.3-6s-33.7,0.3-41.3-1.3c0,0-13.7-2-17.7-0.3
					s-14,8.7-14,8.7L105.2,281.3z"/>
				<path class="st19" d="M516.4,335.8c0,0-23.7-24-45.3-45.1c-21.6-21.1-31.4-51-31.4-51l-13.5,1.2c0,0,20,49.6,36.5,65.2
					s82.1,65.5,82.1,65.5L516.4,335.8z"/>
				<path class="st19" d="M173.1,528.3c2.8-1,79.7,8.1,84,8.3c4.3,0.3,15.7-1.2,15.7-1.2s-21.5,10.6-42,10.7
					c-20.5,0.1-59.6-9.3-59.6-9.3S172.6,531.1,173.1,528.3z"/>
				<path class="st19" d="M550.8,536.6c-2.7-1.2-80.1,3.5-84.4,3.6c-4.3,0-15.6-2.1-15.6-2.1s20.8,11.8,41.3,13.1
					c20.5,1.3,60-5.9,60-5.9S551.2,539.5,550.8,536.6z"/>
				<path class="st19" d="M183.7,158.9c0,0,17.5-15.3,33.3-28.7s23.4-32.1,23.4-32.1l9.7,0.5c0,0-15.2,31.1-27.3,40.9
					c-12.1,9.9-60,41.9-60,41.9L183.7,158.9z"/>
				<path class="st19" d="M195.4,175.6c0,0,17.5-15.2,33.5-28.5c15.9-13.4,23.6-31.9,23.6-31.9l9.7,0.6c0,0-15.4,31-27.6,40.8
					c-12.2,9.8-60.3,41.6-60.3,41.6L195.4,175.6z"/>
				<path class="st19" d="M193.1,197.7c0,0,18.4-14.2,35-26.6c16.6-12.4,25.4-30.6,25.4-30.6l9.6,1.1c0,0-17.1,30.1-29.8,39.2
					s-62.5,38.1-62.5,38.1L193.1,197.7z"/>
				<path class="st19" d="M259.6,190.7c1.8-16.9,13.3-35.3,13.3-35.3l-5.7-8c0,0-11.4,29.9-27.8,47s-69.2,33-69.2,33
					s55.9-10.5,64.1-1.8s30.9,52.1,30.9,52.1s2.7-3,5.3-7c0.9-3.8-18.8-23.9-21.2-49.9C248.5,210.8,253.6,203.7,259.6,190.7z"/>
				<path class="st19" d="M275.2,198.7c2.4-13.9,8.7-52.7,8.7-52.7s-1.3,7-7,10.3c-0.7,0.5-10.8,21.5-11.3,54.2s9.4,51.6,9.4,51.6
					s2.3-3.1,3-6.4C281.5,241,273.4,209.3,275.2,198.7z"/>
				<path class="st19" d="M131.9,378.4c1.5-2.5,66.7-44.4,70.2-46.9c3.5-2.5,11.4-10.9,11.4-10.9s-9.9,21.8-25.6,35
					c-15.8,13.1-51.9,30.7-51.9,30.7S133.3,381,131.9,378.4z"/>
				<path class="st19" d="M152.6,411.9c2.4-1.7,79.1-13,83.3-13.9c4.2-0.9,14.9-5.3,14.9-5.3s-18,15.8-37.7,21.3
					c-19.8,5.5-59.9,6.6-59.9,6.6S152.8,414.9,152.6,411.9z"/>
				<path class="st19" d="M595.4,362.8c-0.5-3.2,1.9,1.9-13.2-24.3c-4-7-4.5-20.4-4.5-20.4l-11.6,4.6c0,0-4.2,4.9,6.4,24.9
					S588,368,588,368S592.9,364.7,595.4,362.8z"/>
				<path class="st19" d="M608.5,338.1c0,0,7.1,6.9-14.1-14.6c-5.7-5.8-9.5-18.6-9.5-18.6l-10.1,7.4c0,0-2.8,5.8,12.5,22.4
					C597.2,340.9,608.5,338.1,608.5,338.1z"/>
				<path class="st19" d="M640,320c-2.7-1.7,2.7-0.2-27-5.8c-7.9-1.5-18.4-9.9-18.4-9.9l-4.1,11.8c0,0,1,6.4,23.1,11.3
					c22.1,5,25.5,1.5,25.5,1.5S639.8,323.2,640,320z"/>
				<path class="st19" d="M638.8,294.8c-3-1,2.5-0.9-27.6,1.2c-8.1,0.6-20.3-4.9-20.3-4.9l-0.9,12.5c0,0,2.6,5.9,25.2,5.1
					c22.6-0.8,25.1-5,25.1-5S639.4,297.9,638.8,294.8z"/>
				<path class="st19" d="M634,248.6c-3.3,2.2,6.2-13.6-14.9,16.7c-5.6,8.1-20.3,15.6-20.3,15.6s19,12.4,35.6-9.8
					s14.4-27.7,14.4-27.7S637.5,250.4,634,248.6z"/>
				<path class="st19" d="M514.4,251c-0.3,3.2-1.4-2.3,6.7,26.8c2.2,7.8-0.7,20.9-0.7,20.9l12.4-1.6c0,0,5.3-3.7,0-25.7
					s-9.9-23.6-9.9-23.6S517.4,249.8,514.4,251z"/>
				<path class="st19" d="M534.2,234.3c0,2.9-1.3-3.2,7.6,31.3c2.4,9.2,1.1,20.3,1.1,20.3l9.9,7c0,0,3.9,0-2.1-25.6
					c-6.1-25.6-9.9-30.3-9.9-30.3S536.5,235.1,534.2,234.3z"/>
				<path class="st19" d="M548.7,234.3c0,2.9-1.3-3.2,7.6,31.3c2.4,9.2,1.1,20.3,1.1,20.3l9.9,7c0,0,3.9,0-2.1-25.6
					c-6.1-25.6-9.9-30.3-9.9-30.3S550.9,235.1,548.7,234.3z"/>
				<path class="st19" d="M567.6,255.9c-6,5.4-3,20.7-3,20.7l12.5-0.2c0,0,5.6-3.1,2.8-25.5s-7.2-24.5-7.2-24.5
					S577,247.4,567.6,255.9z"/>
				<path class="st19" d="M583.9,232.3c-3.8,3.2,18.7,0.3-0.9,33.1c-5.2,8.8-25.1,18-25.1,18l20.1-10.3c0,0,9.6,11,25.5-13.5
					c15.9-24.6,11.2-27.8,11.2-27.8S589.2,232,583.9,232.3z"/>
			</g>
		</g>
		<path id="path4096_1_" class="st20" d="M218.7,125.4c-0.5,1.9,18-62.1-4.4-63c-26.8,0.1-38.6,48.9-38.6,48.9l-14.6,28.1
			c0,0,26.1-7.6,28.8-9C189.8,130.5,219.1,123.5,218.7,125.4z"/>
		<path id="path36" class="st17" d="M14.6,293.8c-0.7,1.9-1.3,3.8-1.8,5.8C13.3,297.7,13.9,295.8,14.6,293.8z"/>
		<path id="path38" class="st17" d="M21.7,282.8c-1.2,1.8-2.2,3.6-2.6,4.6C19.9,285.8,20.7,284.3,21.7,282.8z"/>
		<path id="path40" class="st17" d="M33.1,334.9c-0.6,1.2-0.4,3.2,0.1,5.2C32.9,338.6,32.9,336.8,33.1,334.9z"/>
		<path id="path42" class="st21" d="M561.2,241.3c-18,3.4-50.5,11.3-67.6,31.9c-3.2,4.9,13.6,0.1,14.4-0.5
			c-18.2,29.8,45.1-25.2,76.3-12.3c19,10.5,26.2,34.7,19.7,53.6c-5.3,16.5-29.5,24.9-43.9,20.9c-11-11.5-27.1-20.8-48-27.3
			c-18.3-6.1-47.5-6.2-65.1-2.3c-61.5,13.3-170,40.5-159.5-55.5c2.6-21.2,8.3-39.2,8.5-57.3c-1.7-13.2-4.7-18.7-11.3-21.1
			c0.9-0.3,1-0.8,0.6-1.5c10.2-14.1,62.4-68.2,29.9-87.5c-21.6-14.7-78.7,53.4-78.9,53.5c-0.1,0-61-18-82-1.7
			c-0.1,0.1-24.7,22.3-25.1,22.6c0-0.1,0.1-0.2,0.1-0.2c-1.8,1.9-15.8,13.6-22.4,24.1c-9.6,16-14.2,29.9-18.1,40.1
			c-5.1,11.4-8.3,21.8-14.3,30.7c21,10.7,40.7,43.1,52.9,48.6c7.3-0.6,26.7-5.6,25.8,19.6c-0.4,5-5.4,14.6-10.5,21.2
			c14.1-11.6,28.1-16.7,33.9-16.6c21.5,10.2,32.6,38.5,30.4,59.8c-4.4,29.5-9.9,47.8-3.3,77.3c11.4,24.2,27.3,31.5,26.3,50.3
			c0.1,17.2-6,21.4-6.2,37.2c3.4,35.5,5.3,24.9,6.1,38.5c-3,3.9-5.3,6.4-7.7,8.6c-3.3,2.9-7.2,5.4-14.1,10c-0.5,0.4-0.9,0.7-1.3,1.1
			c-5.3,4.3-3.7,10.1,4.4,7.2c9.4-3.4,17.2-5.6,21.9-5.7c5.2,1.9,4.8,10,14,13.7c4.4,0.5,6.2-3,12-3c7.9,5.2,5.6,4,10.5,8
			c2.6,1.1,4.1,0.9,4.9-0.1c3.7-1.9-1.3-13.6-3.7-19.4c-3.7-10.3-8.3-20.3-7-31.9c4.2-17.8,12.9-32.3,14.7-52.1
			c1.8-17.4,0.7-24.9-1.5-39.6c24.5,13.3,87.5,19.8,123.9,9.2c13.1-3.3,23.8,0.2,26.6,2c12,16,13.7,22,20.1,35.2
			c-0.8,8.8-7.2,23-6,28.9c1,10.2,3.6,15.8,6,22.9c3.4,7.2,0.4,13.3-2,15.7c-2.8,2.2-5.7,4.7-8.4,7.1c-11,10-17.9,20,5.6,10.8
			c13.4,1.5,13.4,14.7,29.2,11.2c3.7,2.6,14.5,11.5,18.2,7.6c1.3-0.7,2-2.2,2-5.2c-1.5-8.4-4.2-16.2-7-23.9
			c-1.6-7.9-0.7-13.7,1-18.9c7.1-13.3,6.4-18.9,7.2-25.9c0.9-11.9-0.5-18-1.5-24.2c0.7-6.3-1.2-9.5,12.2-31.7
			c17.5-23.6,35-42.8,52.4-65.6c14.7-21.5,24.4-56.4,16.1-85.9c24.5,0,47.6-21.9,50.2-44.4C629.3,266.1,602.3,236,561.2,241.3z"/>
		<path id="path3853_1_" class="st22" d="M127.6,300c3.8-0.6,11.9-2,17.8,0.9c15.4,10.8,4.5,31.7-2.5,39.6
			c-9.2,10.3-22.1,19-39,26.1c-17,7.1-32,3.3-19.4-12.8c-22.6,0.5-54.5,3.6-51.9-18.6c-1.6,2.8,1.9,10.7,2.5,11.1
			c0.9,0.6-3.3-0.5-10.4-5.5c-16-12.2-17.2-28.7-10.6-46.6c-1.9,4.6-2.8,9.9-3.7,15.4c-9.2-13.5-7.3-21.9,3-32.2
			c1.4-1.2,4.7-4,10.1-3.1c1.2,0.4,3.7,0.7,2.6,2c-2.4,2.9-6.6,9-7.5,11.4c2.2-4.3,4.8-8.4,8-12c16.5-16.2,25.7-20.4,48-24.3
			C99.3,264.1,107.3,287.1,127.6,300L127.6,300z"/>
		<path id="path3868_1_" class="st21" d="M289.9,425.8c-8.6,20.9-12.2,35.7-13.3,57.2c2.1-10.1,5.3-19.4,11.3-28.3"/>
		<path id="path3870_1_" class="st23" d="M448.7,392.9c-28.3,24.1-35.2,62.1-21,101.6"/>
		<path id="path3872_1_" class="st24" d="M400.2,493.2c4.3,9.3,6.6,10.2,13.3,20c4.3,8.7,7.9,13.5,8.1,23.2c-4,15-6,31.3-2.7,45.1
			c-5.8,5.3-22.1,18.5-6.7,18.9c4.4-1.2,8.2-5.1,12-6c7.6-1.5,11.1,11.2,12.9,10c2.5-2.8,17.6-7.6,9.6-24.8
			c-1.4-6.8-5-12.3-4.5-24.7c1.9-11.1,5.3-20,5.3-24.8c-0.3-5.1-12.1-24.7-19.4-35.5C420.6,492.2,412.9,489.8,400.2,493.2
			L400.2,493.2z"/>
		<path id="path3874_1_" class="st22" d="M427.6,616.1c-17.8,15-21,27.8-21.7,44.9c0.7,11,64.9,7.6,74.2,0.7
			c5.8-8.8,4.7-25.3,4.3-27.4c-2.6-1.3-8.2-5.3-12.2-8.8c-5.1,2.1-9.4,0.9-13.1-2.1c-5-4.1-10-6.6-15.1-8
			C427.3,620.8,426.8,618,427.6,616.1L427.6,616.1z"/>
		<path id="path3876_1_" class="st22" d="M406,598.7c-15.3,14.7-23,36.3-20.7,45.6c1.4,2.6,3,4.5,22.1,2.9
			c3.4-11.5,10.2-21.4,19.7-30.6c1.5-5.1,5.9-8.1,9.6-11.7c-5-6.4-6.5-12.1-13.5-10C415.6,598.3,413.3,602.7,406,598.7L406,598.7z"
			/>
		<path id="path3878_1_" class="st22" d="M205.2,614c-8.3,4.2-11,9.4-14.7,15c-6.4,11.2-7.3,18.2-6.2,27.2c2.4,6.4,27.5,3.5,38.9,4
			c16.2-0.6,33.4-1,37.4-3.5c3-4.4,4.1-12.1,5.5-16.7c0.9-5.9,3.1-12.9-2-17.7c-5.3-6-10-2.2-15.7-0.2c-6.5-0.6-7.3-7.2-14.2-13.5
			c-5-1.1-10,1.5-15,2.7C213.9,612.8,206.7,616.2,205.2,614L205.2,614z"/>
		<path id="path3880_1_" class="st22" d="M190.5,529.2c7.1,12.1,13.7,26.4,10.2,30.2c-16.6,17.3-64.9,39-71.3,33.4
			c-12.2-5.3-10.2-44.6,1.2-55.6c7.6,3.2,6.8-4.5,18.4-13.8c9.6-6.9,9.9-6.6,19.4-0.9c8.6-5.2,9.4-2.5,13.5,3.9
			C183.6,527.6,189.8,529,190.5,529.2L190.5,529.2z"/>
		<path id="path3882_1_" class="st24" d="M204.7,401.9c0.6-3.8-19.6,21.9-30.9,29.3c-9.8,6.5-46.1,19.3-52.8,26.9
			c-16.8,19.2,7,48,12.5,58.6l-3.2,17.7c-0.4,4.8,5.6,4.9,8.2,0.6c6.4-10.8,17-17.3,19.7-17.3c4.2,0.1,7.8,2.6,10.5,5.1
			c5.8-3.7,8.2-6.6,13.2,3.4c14.9,7.9,17.4-1.2,14.2-8.5c-4.2-4.8-11.4-8.5-19.7-14.2c-3.5-6-4.6-15.3-5.3-25.1
			c15.5-5.7,26.9-11.2,33.3-17.3C199.6,438.4,201.6,424,204.7,401.9L204.7,401.9z"/>
		<path id="path3884_1_" class="st21" d="M166.3,467.1l5.5,10l-3.5,4l-9-5h-8.5"/>
		<path id="path3894_1_" class="st22" d="M299.5,139.4c2.6,1.8,8.3,13,11.2,15.5c1.6,1.4-11,16-9.4,17.5
			c1.3,1.3,13.4-11.9,14.6-10.7c5.4,5.5,4.3,17,4.3,17l-12.8,10.2l13.1-3.3l-0.7,18.5l-11.6,7.3l11,8.3l-0.5,15.2l-14.4,4.7l14.7,3
			l-0.5,12.3l-10,6.5l10.8,2.8l1,11.5l-9.3,6.8l9.8,3l3.5,6.8l-7,7.3l11.3-2.8c5.4,3.6,20.2,20.5,23.9,22.4
			c-14-0.6-19.2-0.1-38.1-7.2c-21.9-13.5-29.6-26.7-26.3-66.3c9.1-44.8,8.5-45.4,7.9-54.6c-0.6-9.9-7.2-17.2-11.6-19.7
			C289.4,164.1,299.5,139.4,299.5,139.4z"/>
		<path id="path3896_1_" class="st21" d="M278.5,255.7c-6.7,13.8-16.9,30.3-28.5,39.5c-24.7,19-44.8,26.3-72.6,28.4"/>
		<path id="path3782-5_1_" class="st25" d="M168.7,193.4c-0.6-2.6-3.6-8.9-8.1-10c-14.3-3.1-11.7,13.4-1.9,4.9
			C167.3,188.6,172.2,206.6,168.7,193.4z"/>
		<path id="path3788-8_1_" class="st21" d="M143.4,203.8c-14.6,17-21.7,43.6-16.7,62.1"/>
		<path id="path3778-8_1_" class="st21" d="M107.5,313.8c3.5-6.7,2.5-15.7-3-18.3c-15-6.6-30.1,18.9-28.1,31
			c0.5,2.2,1.2,2.7,2.6,3.7"/>
		<path id="path3780-1_1_" class="st25" d="M98.2,306.9c-2.5,0-5.5,3-8.5,6.7c-2.3,2.8-4.1,5.9-4.9,9.2c-0.4,2.4,0,4.3,1.4,5.8
			c6.1,4.6,6.2-11.2,8.5-15.3L98.2,306.9z"/>
		<path id="path3790-2_1_" class="st17" d="M143.6,209.2c8.6-3.6,16.2,2,17.5,7.5c3.9,13.2-4.3,45.7-18.1,47.6
			c-14.2,2.1-17.8-9.6-16-24.4C130.9,223.8,135,212.9,143.6,209.2z"/>
		<path id="path3792-1_1_" class="st26" d="M156.1,250.6c-0.2-11.3-8.8-10-11-1.1c-1.2,4.7-2.7,19,6.2,9.3"/>
		<path id="path4094_1_" class="st22" d="M238.7,112.7c-9.4-3.8-1.7-25.2-1.7-25.2s-28.9,16.1-21.8,23.2c-7.9-3.7-6.3-21.5-6.3-21.5
			s-26.4,17.1-18.7,22c-13.5-6.3-13.7-17.1-13.7-17.1s-12.3,20.4-14,19.4c1.8-10-23.6-14-23.6-14s-0.5,42.9,19.6,41.4
			c14.6-0.5,40.9-15,77.9-5c8-8.6,11.8-13.7,23.9-25.4c-4.5-5.1-1.5-11-0.3-15.8C260.2,91.2,238.7,112.7,238.7,112.7z"/>
		<path id="path4100_1_" class="st22" d="M299.2,134.2c-3.9,4.8-16.3,18.4-27.1,23c-10.8-7-9.2-5.3-19.2-14.5
			c0.7-5.1,41.6-56.1,53.8-46.1C318.8,106.6,303,129.5,299.2,134.2z"/>
		<path id="path4102_1_" class="st25" d="M85.1,353.4c18.6-7,32.1-16.6,46.3-26.3c3.3-4.6,4.2-9.5,6.1-14.3c-3.3-1-4.1,2.6-5.4,4.4
			c0.7-2.6,3.2-5.8,5.8-4.8c5.4,1,3.6,7.4,3.8,11.1c-0.5-3.8,0.3-9.7-4-10.7c-2.7,5.1-3.1,10.3-5.9,14.4s-8.6,11.9-11.8,15.3
			c-6.4,6.8-13.8,12.1-23.2,16.7c-11.4,4.6-7.9-6.1-1.3-10.1L85.1,353.4z"/>
		<g id="g71">
			<path id="path3886_1_" class="st22" d="M585,125.4c-15.7,20.4-19.2,35.2-28.2,59.1c-2.2,9.3-6.5,23-17,36.9
				c-8.8,10.9-19.7,19.1-30.8,27.6c-5,4.4-3.8,7.4-1.3,11.7l-9.4,7.4c-17.8,16.8,27-3,10.1,4.7c-5.5,9.3-3.3,8.7-1.2,8.9
				c-69.1,38.2-51.8-60.7-17.6-80.2c-4.9,7.6-6.7,14.2-8.7,20.8c3-7.9,4.2-15.3,10.2-22.7c7.9-9.5,10.4-18.9,26.5-29.5
				c7.5-4.3,14.1-8.4,22.4-10.5c0.6,7-3.9,13-8.7,17.8c-2.3,2.3-4.6,4.3-6.5,6c7.7-7.7,15.5-11.9,15.2-23.8
				c15.2-7.8,24.1-18.4,36.4-28.3L585,125.4z"/>
			<path id="path3888_1_" class="st22" d="M533,187.2c-6.3,10.7-7.6,12.7-14.5,16.2c2.5-0.9,4.5-2.6,7.1-4.4
				c2.2,11.6-2.6,19.1-7.6,22.3"/>
			<path id="path3890_1_" class="st22" d="M547.9,197c-1.4,8.8-5.1,16.8-8.5,24.9"/>
			<path id="path3892_1_" class="st22" d="M508.8,209.4c-12.7,9.1-23.7,25.6-25.1,40.6c-0.7,0.7-1.3-11.4-1.1-10.5
				c-6.6,9.9-8.3,15.5-9.8,26.7"/>
		</g>
		<g>
			<defs>
				<path id="path3872_3_" d="M400.2,493.2c4.3,9.3,6.6,10.2,13.3,20c4.3,8.7,7.9,13.5,8.1,23.2c-4,15-6,31.3-2.7,45.1
					c-5.8,5.3-22.1,18.5-6.7,18.9c4.4-1.2,8.2-5.1,12-6c7.6-1.5,11.1,11.2,12.9,10c2.5-2.8,17.6-7.6,9.6-24.8
					c-1.4-6.8-5-12.3-4.5-24.7c1.9-11.1,5.3-20,5.3-24.8c-0.3-5.1-12.1-24.7-19.4-35.5C420.6,492.2,412.9,489.8,400.2,493.2
					L400.2,493.2z"/>
			</defs>
			<clipPath id="path3872_4_">
				<use xlink:href="#path3872_3_"  style="overflow:visible;"/>
			</clipPath>
			<path class="st27" d="M437.3,499.9c-2.9-0.4-76.6,23.6-80.7,24.7c-4.2,1.1-15.7,1.9-15.7,1.9s23.1,6.2,43.3,2.3
				c20.1-3.9,56.6-20.8,56.6-20.8S438.4,502.6,437.3,499.9z"/>
			<path class="st27" d="M490.8,510.9c-2.9-0.4-76.6,23.6-80.7,24.7c-4.2,1.1-15.7,1.9-15.7,1.9s23.1,6.2,43.3,2.3
				c20.1-3.9,56.6-20.8,56.6-20.8S491.9,513.6,490.8,510.9z"/>
			<path class="st27" d="M458.1,547.5c-2.6-1.3-80.1-1-84.4-1.2c-4.3-0.2-15.5-2.9-15.5-2.9s20.1,12.9,40.5,15.4
				c20.4,2.4,60.2-2.5,60.2-2.5S458.3,550.5,458.1,547.5z"/>
			<path class="st27" d="M368.4,593.5c2.9,0.6,77.8-19.2,82-20.1c4.2-0.9,15.7-1,15.7-1s-22.8-7.5-43.1-4.7
				c-20.3,2.8-57.7,17.6-57.7,17.6S367.4,590.7,368.4,593.5z"/>
		</g>
		<g>
			<defs>
				<path id="path3882_3_" d="M204.7,401.9c0.6-3.8-19.6,21.9-30.9,29.3c-9.8,6.5-46.1,19.3-52.8,26.9c-16.8,19.2,7,48,12.5,58.6
					l-3.2,17.7c-0.4,4.8,5.6,4.9,8.2,0.6c6.4-10.8,17-17.3,19.7-17.3c4.2,0.1,7.8,2.6,10.5,5.1c5.8-3.7,8.2-6.6,13.2,3.4
					c14.9,7.9,17.4-1.2,14.2-8.5c-4.2-4.8-11.4-8.5-19.7-14.2c-3.5-6-4.6-15.3-5.3-25.1c15.5-5.7,26.9-11.2,33.3-17.3
					C199.6,438.4,201.6,424,204.7,401.9L204.7,401.9z"/>
			</defs>
			<clipPath id="path3882_4_">
				<use xlink:href="#path3882_3_"  style="overflow:visible;"/>
			</clipPath>
			<path class="st28" d="M208.1,471.8c0.6-3.4-13.9-11-18.3-43c-4.3-32,0-29.4,0-29.4l-24-1c0,0-2.1,1,1.7,24.9
				c3.7,23.9,26.5,48.5,26.5,48.5S204.9,473,208.1,471.8z"/>
			<path class="st28" d="M185.2,484.5c-3.4-0.3-6.8-16.4-36.3-29.4s-28.3-8-28.3-8l5.7-23.3c0,0,1.5-1.7,23.5,8.4
				S187.2,481.6,185.2,484.5z"/>
			<path class="st28" d="M118.1,514.1c3.2,1.4,13.9-11.1,46-8.1s28.6,6.6,28.6,6.6l6.3-23.2c0,0-0.5-2.2-24.6-4
				c-24.1-1.7-53.3,14.9-53.3,14.9S117.7,510.7,118.1,514.1z"/>
			<path class="st28" d="M158.3,471.6c-1.7-3-16.2,2.4-39.9-19.5c-23.7-21.9-18.7-22.7-18.7-22.7L80.6,444c0,0-1,2.1,17.1,18.1
				C115.8,478.2,156.5,474.6,158.3,471.6z"/>
		</g>
	</g>
</g>
<g id="Calque_2" class="st0">
	<g class="st29">
		<defs>
			<path id="SVGID_3_" d="M561.3,241.2c-18,3.4-50.5,11.3-67.6,31.9c-3.2,4.9,13.6,0.1,14.4-0.5c-18.2,29.8,45.1-25.2,76.3-12.3
				c19,10.5,26.2,34.7,19.7,53.6c-5.3,16.5-29.5,24.9-43.9,20.9c-11-11.5-27.1-20.8-48-27.3c-18.3-6.1-47.5-6.2-65.1-2.3
				c-61.5,13.3-170,40.5-159.5-55.5c2.6-21.2,8.3-39.2,8.5-57.3c-1.7-13.2-4.7-18.7-11.3-21.1c0.9-0.3,1-0.8,0.6-1.5
				c10.2-14.1,16.1-38.5,22.5-56.5c2-16.3,7.3-19.8,2.3-23.3c-7.8-5.5-32.1,15.6-40.3,22.7c-11.6,9.9-33.3,23-33.5,23.1
				c-0.1,0-61-18-82-1.7c-0.1,0.1-24.7,22.3-25.1,22.6c0-0.1,0.1-0.2,0.1-0.2c-1.8,1.9-15.8,13.6-22.4,24.1
				c-9.6,16-14.2,29.9-18.1,40.1c-5.1,11.4-8.3,21.8-14.3,30.7c21,10.7,40.7,43.1,52.9,48.6c7.3-0.6,26.7-5.6,25.8,19.6
				c-0.4,5-5.4,14.6-10.5,21.2c14.1-11.6,28.1-16.7,33.9-16.6c21.5,10.2,32.6,38.5,30.4,59.8c-4.4,29.5-9.9,47.8-3.3,77.3
				c11.4,24.2,27.3,31.5,26.3,50.3c0.1,17.2-6,21.4-6.2,37.2c3.4,35.5,5.3,24.9,6.1,38.5c-3,3.9-5.3,6.4-7.7,8.6
				c-3.3,2.9-7.2,5.4-14.1,10c-0.5,0.4-0.9,0.7-1.3,1.1c-5.3,4.3-3.7,10.1,4.4,7.2c9.4-3.4,17.2-5.6,21.9-5.7
				c5.2,1.9,4.8,10,14,13.7c4.4,0.5,6.2-3,12-3c7.9,5.2,5.6,4,10.5,8c2.6,1.1,4.1,0.9,4.9-0.1c3.7-1.9-1.3-13.6-3.7-19.4
				c-3.7-10.3-8.3-20.3-7-31.9c4.2-17.8,12.9-32.3,14.7-52.1c1.8-17.4,0.7-24.9-1.5-39.6c24.5,13.3,87.5,19.8,123.9,9.2
				c13.1-3.3,23.8,0.2,26.6,2c12,16,13.7,22,20.1,35.2c-0.8,8.8-7.2,23-6,28.9c1,10.2,3.6,15.8,6,22.9c3.4,7.2,0.4,13.3-2,15.7
				c-2.8,2.2-5.7,4.7-8.4,7.1c-11,10-17.9,20,5.6,10.8c13.4,1.5,13.4,14.7,29.2,11.2c3.7,2.6,14.5,11.5,18.2,7.6
				c1.3-0.7,2-2.2,2-5.2c-1.5-8.4-4.2-16.2-7-23.9c-1.6-7.9-0.7-13.7,1-18.9c7.1-13.3,6.4-18.9,7.2-25.9c0.9-11.9-0.5-18-1.5-24.2
				c0.7-6.3-1.2-9.5,12.2-31.7c17.5-23.6,35-42.8,52.4-65.6c14.7-21.5,24.4-56.4,16.1-85.9c24.5,0,47.6-21.9,50.2-44.4
				C629.4,266,602.4,235.9,561.3,241.2z"/>
		</defs>
		<clipPath id="SVGID_4_">
			<use xlink:href="#SVGID_3_"  style="overflow:visible;"/>
		</clipPath>
		<g class="st30">
			<path class="st19" d="M60.7,315.6c3.9,1.1,86.9-33.8,109.7-29.2c33.9,5.6,24.6,34.6,24.6,34.6l12.3-2.8c0,0-4.2-48.1-31.3-49.3
				c-1,0-5-3.3-31,7.3s-90.8,18.5-90.8,18.5S59.4,311.6,60.7,315.6z"/>
			<path class="st19" d="M197,262.9c30,18.7,21.3,51,21.3,51c4.2-0.1,16.3-7.8,21-11.7c0,0-5.1-34.8-34-52c-21.8-3.8-45.7,8-45.7,8
				S183,257.2,197,262.9z"/>
			<path class="st19" d="M207.1,239.8c30,18.7,39.9,57.4,39.9,57.4c6.8-4.8,8.5-6.5,15.3-14c0,0-13-23.3-44-51
				c-21.5-7.8-48.5,3-48.5,3S193.1,234.1,207.1,239.8z"/>
			<path class="st19" d="M44.5,343.7c3.9,1.1,86.9-33.8,109.7-29.2c21.3-6.8,23.1,9.6,23.1,9.6l9.3-1.5c0,0,1.1-19.5-26-20.7
				c-1,0-122.6,20.9-122.6,20.9S43.2,339.8,44.5,343.7z"/>
			<path class="st19" d="M81.3,259.4c10.5-20.5,22.8-51.5,36.5-74.8c14.3-24.2,32.1-41.6,42.8-51.8l-3-4.8c0,0-10.8,16.3-22.8,26.5
				s-20.5,21.1-23.8,26c-5.3,8-8,26-37.5,73C74,253.2,78,257.5,81.3,259.4z"/>
			<path class="st19" d="M87.2,266.1c4.4-8.2,14.4-11,18.1-21.7c6-17.5,14.8-40.3,24.4-55.8c16.1-25.8,36-44.4,47.9-55.2l-7.9-7.3
				c0,0-10.3,17.3-23.8,28.3c-13.4,10.9-20.2,24.8-23.8,30c-4.5,6.6-13.4,30.2-26.2,59.2c-3.9,8.9-8.4,7-16,18.5
				C80.5,261.6,83.6,264.1,87.2,266.1z"/>
			<path class="st19" d="M99,273.9c3.8-4.8,22-12.5,21.3-27c-0.7-15.7,8.1-32.1,19.1-48.5c13.1-19.5,33.6-49.7,62.3-67.7l-22.3,5.3
				c0,0-9.6,13.8-23,24.8c-13.4,10.9-21,28.3-24.6,33.5c-4.8,6.9-11.6,27-21.3,55.4c-2.7,7.8-11.5,9-16.7,18.8
				C94.6,267.9,95.4,271.9,99,273.9z"/>
			<path class="st19" d="M406.3,325.2c14.5,133-39.3,178.9-39.3,178.9l40.3-8.6c0,0,14.9-60.4,12.2-92.9
				c-2.7-32.5,12.9-59.5,10.2-60.5C426.1,340.7,412.4,336.2,406.3,325.2z"/>
			<path class="st19" d="M519.7,300c0.9,3.3-13.4,18.7,17.2,43.2c13.5,10.9,16,38.1,22.8,48.2c24.3,36.2,11.5,64.3,11.5,64.3
				l18.8,0.4c0,0-15-80.1-33.8-106.8s-20.6-41.1-20.6-41.1S522.9,296.3,519.7,300z"/>
			<path class="st19" d="M406.6,309.6c1.7,4.5,68.4,38,95.7,72.1c11,13.8,30.8,17.2,41.4,31.9c15.6,21.6,54.7,53,54.7,53l-23.7-36.7
				c0,0-38.5-44.2-59.4-69.3s-95.9-65-95.9-65S409.4,305.5,406.6,309.6z"/>
			<path class="st19" d="M410.6,343.9c1.1,2.9,5.5,10.6,27.3,23.3c12.5,7.3,16.6,22.1,30.1,30.6c19.5,12.3,76.6,84.9,76.6,84.9
				l11-15.7c0,0-52.3-49.5-65.8-79.3c-14.7-32.4-71.8-50.1-71.8-50.1S413.4,339.9,410.6,343.9z"/>
			<path class="st19" d="M430.8,415.4c1.7,4.5,16.9-3.1,42.2,32.5c24.3,34.3,58.2,39.3,58.2,39.3l-0.8-6.2c0,0-22.7-15.8-43.7-40.8
				c-20.9-25-44.8-40.3-44.8-40.3S433.5,409.1,430.8,415.4z"/>
			<path class="st19" d="M420.8,458.2c1.7,4.5,17.2,3.2,54.3,26.2c36.2,22.3,41.5,21,41.5,21l1.5-11.5c0,0-16.7,3.5-37.7-21.5
				s-57-39-57-39S420.7,446.1,420.8,458.2z"/>
			<path class="st19" d="M424.7,485.1c1.7,4.5,1.4,14.8,43.7,25.5c10.5,2.7,40.5-3.2,40.5-3.2s-22.5,3.5-45.8-7
				c-29.8-13.4-40.3-25.7-40.3-25.7S422,472.9,424.7,485.1z"/>
			<path class="st19" d="M291,253.2c-4.7,1.2-21.4,54.6-58.1,78.1c-0.6,0.4-1.2,0.8-1.8,1.1C194.4,355,143,356,143,356l-0.8,18.8
				c0,0,80.4-13.4,107.5-31.6s43.2-79,43.2-79S294.7,256.4,291,253.2z"/>
			<path class="st19" d="M318.3,304.1c-3,0.8-9.8,22.5-24.8,36.8c-8.1,7.7-19.2,5.7-32,13.9c-36.7,23.6-89.8,24.6-89.8,24.6
				l-0.8,18.8c0,0,80.4-13.4,107.5-31.6s52.6-54.6,52.6-54.6S322,307.3,318.3,304.1z"/>
			<path class="st19" d="M325,340.6c-3.1,2.6-51.3,40.8-63.8,54.9c-8.2,9.2-14.1,18.5-25.5,22.1c-29.1,8.9-56.7,12-56.7,12
				l-0.7,18.3c0,0,72.9-12.5,100-30.7c6.5-4.4,12.4-19.5,17.9-25.1c17.6-17.6,29.5-37.5,29.5-37.5S328.7,343.8,325,340.6z"/>
			<path class="st19" d="M503.6,556.4c-3.1-1.4-8.8,10.5-40.6-4.3c-29.3-13.6-30.3-11.5-30.3-11.5l1.7,23.8c0,0,7.6,5.5,31.7,7.5
				c24.1,1.9,39.9-8.2,39.9-8.2S503.9,559.9,503.6,556.4z"/>
			<path class="st19" d="M277.7,467.9c-4.7-0.8-86.5,31.6-129.6,37.9s-92-14.6-92-14.6l-8.4,16.8c0,0,78.8,20.9,111,15.5
				c32.8-23.4,119.4-32.7,118.3-37.7C275.7,480.9,277,473.7,277.7,467.9z"/>
			<path class="st19" d="M288,431.1c-4.7-0.9-14.9,12.5-58.2,18.3s-158.3,0.5-158.3,0.5l-8.6,16.7c0,0,118.3,15.3,150.6,10.2
				s67-24.3,67-24.3S283.8,438.1,288,431.1z"/>
			<path class="st19" d="M552.7,578.8c-2.7-1.2-57.2,4.5-84.4,1.6c-27.2-2.9-52.2-22.7-52.2-22.7l-8.6,8.6c0,0,42.9,24.4,63.4,26.2
				c20.4,1.8,82.9-5,82.9-5S553,581.7,552.7,578.8z"/>
			<path class="st19" d="M559.5,596.5c-2.9-1.3-63.5,6.1-93.5,3.5c-30.1-2.6-57.3-23.5-57.3-23.5l-9.7,9.5c0,0,47,25.6,69.6,27
				c22.6,1.5,91.9-7.1,91.9-7.1S559.7,599.7,559.5,596.5z"/>
			<path class="st19" d="M545.3,505.1c-2.7-1.2-56.8,16.5-84,13.6c-27.2-2.9-52.2-22.7-52.2-22.7l-8.6,8.6c0,0,42.9,24.4,63.4,26.2
				c20.4,1.8,82.9-5,82.9-5S545.6,508.1,545.3,505.1z"/>
			<path class="st19" d="M341.8,315.4c-0.7,2.5,8,19.4,11,40.8c2.6,18.7-0.6,40.6,0.7,60.9c2.7,43.5,1.6,89.2,1.6,89.2l10.3,6.7
				c0,0-1.4-20.4,5.7-46.7c5.8-21.5,2.3-43.5,1-58.1c-2.7-32.5-8-94.2-8-94.2S346.4,313.7,341.8,315.4z"/>
			<path class="st19" d="M324.7,341c-2.3,4.3-18.9,63.9-26.1,106.9s-15.9,47.5-15.9,47.5l11,37.5c0,0,24.6-35.1,23.3-67.8
				c-0.3-6-3-17.3,3.8-36.5c16.3-46.2,10-76,10-76S329.6,340.4,324.7,341z"/>
			<path class="st19" d="M283.7,542.9c-3.3-1-12.5,12.6-44.8,13.3c-32.3,0.7-29.2-3.3-29.2-3.3l-3.7,23.7c0,0,0.7,2.2,24.9,1.2
				s51.2-20.9,51.2-20.9S284.4,546.3,283.7,542.9z"/>
			<path class="st19" d="M329.9,549.6c-2.9-0.2-74.8,28.7-78.9,30.1c-4.1,1.4-15.5,3-15.5,3s23.5,4.6,43.3-0.7
				c19.8-5.3,55-24.6,55-24.6S331.2,552.2,329.9,549.6z"/>
			<path class="st19" d="M329.4,570.5c-3.1-0.8-56.7,28.5-91.6,19.4c-29.2-7.6-60.5-13.4-60.5-13.4l-16.2,38c0,0,60.1-15.7,81.9-9.3
				c17,5,90.7-12,90.7-12S330.2,573.6,329.4,570.5z"/>
			<path class="st19" d="M282.8,503.1c-2.5-1.5-43.9,6.7-70.7,0.7c-26.7-6-49.3-28.5-49.3-28.5l-9.5,7.6c0,0,39.9,29.1,60,33.2
				s78.3,15.1,78.3,15.1S282.8,506.1,282.8,503.1z"/>
			<path class="st19" d="M331,434.9c0,0-1.9,34.3-5,64.3c-3.1,30-20.3,56.3-20.3,56.3l9.3,9.8c0,0,26.4-46.6,28.2-69.2
				c1.9-22.6,0.1-105,0.1-105L331,434.9z"/>
			<path class="st19" d="M390,383.2c0,0,8.2-32.5,6.3-62.6s6.3-55.8,6.3-55.8l-16.3-12.6c0,0-18.2,50.3-16.3,72.9
				c1.9,22.6,17.4,103.5,17.4,103.5L390,383.2z"/>
			<path class="st19" d="M534.2,435.4c0,0,23.9,23.8,45.6,44.8c21.7,21,31.8,50.8,31.8,50.8l13.5-1.3c0,0-20.4-49.5-37-64.9
				c-16.6-15.4-82.5-64.9-82.5-64.9L534.2,435.4z"/>
			<path class="st19" d="M288.6,307.6c0,0,20.7-26.7,39.5-50.3s25-54.4,25-54.4l13.5-0.5c0,0-13.8,51.7-28.3,69.1
				c-14.5,17.4-73.5,75-73.5,75L288.6,307.6z"/>
			<path class="st19" d="M105.3,281.2c3-2.7,6.3-6.3,20-6c6.1,0.1,44.3-6,44.3-6s-33.7,0.3-41.3-1.3c0,0-13.7-2-17.7-0.3
				s-14,8.7-14,8.7L105.3,281.2z"/>
			<path class="st19" d="M516.5,335.7c0,0-23.7-24-45.3-45.1c-21.6-21.1-31.4-51-31.4-51l-13.5,1.2c0,0,20,49.6,36.5,65.2
				s82.1,65.5,82.1,65.5L516.5,335.7z"/>
			<path class="st19" d="M173.2,528.2c2.8-1,79.7,8.1,84,8.3c4.3,0.3,15.7-1.2,15.7-1.2s-21.5,10.6-42,10.7
				c-20.5,0.1-59.6-9.3-59.6-9.3S172.7,531,173.2,528.2z"/>
			<path class="st19" d="M550.9,536.5c-2.7-1.2-80.1,3.5-84.4,3.6c-4.3,0-15.6-2.1-15.6-2.1s20.8,11.8,41.3,13.1
				c20.5,1.3,60-5.9,60-5.9S551.3,539.4,550.9,536.5z"/>
			<path class="st19" d="M183.8,158.8c0,0,17.5-15.3,33.3-28.7S240.5,98,240.5,98l9.7,0.5c0,0-15.2,31.1-27.3,40.9
				c-12.1,9.9-60,41.9-60,41.9L183.8,158.8z"/>
			<path class="st19" d="M195.5,175.5c0,0,17.5-15.2,33.5-28.5c15.9-13.4,23.6-31.9,23.6-31.9l9.7,0.6c0,0-15.4,31-27.6,40.8
				c-12.2,9.8-60.3,41.6-60.3,41.6L195.5,175.5z"/>
			<path class="st19" d="M193.2,197.6c0,0,18.4-14.2,35-26.6c16.6-12.4,25.4-30.6,25.4-30.6l9.6,1.1c0,0-17.1,30.1-29.8,39.2
				s-62.5,38.1-62.5,38.1L193.2,197.6z"/>
			<path class="st19" d="M259.7,190.6c1.8-16.9,13.3-35.3,13.3-35.3l-5.7-8c0,0-11.4,29.9-27.8,47s-69.2,33-69.2,33
				s55.9-10.5,64.1-1.8s30.9,52.1,30.9,52.1s2.7-3,5.3-7c0.9-3.8-18.8-23.9-21.2-49.9C248.6,210.7,253.7,203.6,259.7,190.6z"/>
			<path class="st19" d="M275.3,198.6c2.4-13.9,8.7-52.7,8.7-52.7s-1.3,7-7,10.3c-0.7,0.5-10.8,21.5-11.3,54.2s9.4,51.6,9.4,51.6
				s2.3-3.1,3-6.4C281.6,240.9,273.5,209.2,275.3,198.6z"/>
			<path class="st19" d="M132,378.3c1.5-2.5,66.7-44.4,70.2-46.9c3.5-2.5,11.4-10.9,11.4-10.9s-9.9,21.8-25.6,35
				C172.2,368.5,136,386,136,386S133.4,380.9,132,378.3z"/>
			<path class="st19" d="M152.7,411.8c2.4-1.7,79.1-13,83.3-13.9c4.2-0.9,14.9-5.3,14.9-5.3s-18,15.8-37.7,21.3
				c-19.8,5.5-59.9,6.6-59.9,6.6S152.9,414.8,152.7,411.8z"/>
			<path class="st19" d="M595.5,362.7c-0.5-3.2,1.9,1.9-13.2-24.3c-4-7-4.5-20.4-4.5-20.4l-11.6,4.6c0,0-4.2,4.9,6.4,24.9
				s15.5,20.4,15.5,20.4S593,364.6,595.5,362.7z"/>
			<path class="st19" d="M618.2,340.5c-1.2-2.9,2.3,1.3-18.9-20.2c-5.7-5.8-9.5-18.6-9.5-18.6l-10.1,7.4c0,0-2.8,5.8,12.5,22.4
				s20.1,15.8,20.1,15.8S616.2,343,618.2,340.5z"/>
			<path class="st19" d="M644,306.9c-2.7-1.7,2.7-0.2-27-5.8c-7.9-1.5-18.4-9.9-18.4-9.9l-4.1,11.8c0,0,1,6.4,23.1,11.3
				c22.1,5,25.5,1.5,25.5,1.5S643.8,310.1,644,306.9z"/>
			<path class="st19" d="M636.9,257.3c-3.2,0.2,2-1.7-25.3,11.2c-7.3,3.5-20.7,2.8-20.7,2.8l3.7,12c0,0,4.5,4.6,25.3-4.4
				s21.5-13.8,21.5-13.8S638.6,260,636.9,257.3z"/>
			<path class="st19" d="M519.9,246.2c-0.3,3.2-1.4-2.3,6.7,26.8c2.2,7.8-0.7,20.9-0.7,20.9l12.4-1.6c0,0,5.3-3.7,0-25.7
				s-9.9-23.6-9.9-23.6S522.9,245,519.9,246.2z"/>
			<path class="st19" d="M549.4,227.2c-0.3,3.2-1.4-2.3,6.7,26.8c2.2,7.8-0.7,20.9-0.7,20.9l12.4-1.6c0,0,5.3-3.7,0-25.7
				s-9.9-23.6-9.9-23.6S552.4,226,549.4,227.2z"/>
			<path class="st19" d="M591.5,235.6c-2.3,2.2,0.4-2.6-12.1,24.8c-3.4,7.4-14,15.5-14,15.5l10.5,6.8c0,0,6.4,0.6,16.5-19.7
				c10.1-20.3,7.6-24.4,7.6-24.4S594.5,236.6,591.5,235.6z"/>
		</g>
	</g>
	<g class="st29">
		<defs>
			<path id="path3872_2_" d="M399.7,493.9c4.3,9.3,6.6,10.2,13.3,20c4.3,8.7,7.9,13.5,8.1,23.2c-4,15-6,31.3-2.7,45.1
				c-5.8,5.3-22.1,18.5-6.7,18.9c4.4-1.2,8.2-5.1,12-6c7.6-1.5,11.1,11.2,12.9,10c2.5-2.8,17.6-7.6,9.6-24.8
				c-1.4-6.8-5-12.3-4.5-24.7c1.9-11.1,5.3-20,5.3-24.8c-0.3-5.1-12.1-24.7-19.4-35.5C420.1,492.9,412.4,490.5,399.7,493.9
				L399.7,493.9z"/>
		</defs>
		<clipPath id="path3872_5_">
			<use xlink:href="#path3872_2_"  style="overflow:visible;"/>
		</clipPath>
		<path class="st31" d="M436.8,500.6c-2.9-0.4-76.6,23.6-80.7,24.7c-4.2,1.1-15.7,1.9-15.7,1.9s23.1,6.2,43.3,2.3
			c20.1-3.9,56.6-20.8,56.6-20.8S437.9,503.3,436.8,500.6z"/>
		<path class="st31" d="M490.3,511.6c-2.9-0.4-76.6,23.6-80.7,24.7c-4.2,1.1-15.7,1.9-15.7,1.9s23.1,6.2,43.3,2.3
			c20.1-3.9,56.6-20.8,56.6-20.8S491.4,514.3,490.3,511.6z"/>
		<path class="st31" d="M457.6,548.2c-2.6-1.3-80.1-1-84.4-1.2c-4.3-0.2-15.5-2.9-15.5-2.9s20.1,12.9,40.5,15.4
			c20.4,2.4,60.2-2.5,60.2-2.5S457.8,551.2,457.6,548.2z"/>
		<path class="st31" d="M367.9,594.2c2.9,0.6,77.8-19.2,82-20.1c4.2-0.9,15.7-1,15.7-1s-22.8-7.5-43.1-4.7
			c-20.3,2.8-57.7,17.6-57.7,17.6S366.9,591.4,367.9,594.2z"/>
	</g>
	<g class="st29">
		<defs>
			<path id="path3882_2_" d="M204.2,402.6c0.6-3.8-19.6,21.9-30.9,29.3c-9.8,6.5-46.1,19.3-52.8,26.9c-16.8,19.2,7,48,12.5,58.6
				l-3.2,17.7c-0.4,4.8,5.6,4.9,8.2,0.6c6.4-10.8,17-17.3,19.7-17.3c4.2,0.1,7.8,2.6,10.5,5.1c5.8-3.7,8.2-6.6,13.2,3.4
				c14.9,7.9,17.4-1.2,14.2-8.5c-4.2-4.8-11.4-8.5-19.7-14.2c-3.5-6-4.6-15.3-5.3-25.1c15.5-5.7,26.9-11.2,33.3-17.3
				C199.1,439.1,201.1,424.7,204.2,402.6L204.2,402.6z"/>
		</defs>
		<clipPath id="path3882_5_">
			<use xlink:href="#path3882_2_"  style="overflow:visible;"/>
		</clipPath>
		<path class="st32" d="M207.6,472.5c0.6-3.4-13.9-11-18.3-43c-4.3-32,0-29.4,0-29.4l-24-1c0,0-2.1,1,1.7,24.9
			c3.7,23.9,26.5,48.5,26.5,48.5S204.4,473.7,207.6,472.5z"/>
		<path class="st32" d="M203.2,485.1c-0.8-3.3-17.3-4.2-34.6-31.4S156.3,427,156.3,427l-22.2,9.2c0,0-1.5,1.8,11.9,21.9
			C159.4,478.2,200.7,487.5,203.2,485.1z"/>
		<path class="st32" d="M107.7,509.1c3.2,1.4,13.9-11.1,46-8.1c32.1,3,28.6,6.6,28.6,6.6l6.3-23.2c0,0-0.5-2.2-24.6-4
			s-53.3,14.9-53.3,14.9S107.4,505.7,107.7,509.1z"/>
		<path class="st32" d="M159.3,474.4c-1.7-3-17.8,0.4-41.5-21.5c-23.7-21.9-18.7-22.7-18.7-22.7l-19.1,14.5c0,0-1,2.1,17.1,18.1
			C115.3,478.9,157.6,477.3,159.3,474.4z"/>
	</g>
</g>
</svg>
